<svg width="53" height="47" viewBox="0 0 53 47" fill="none" xmlns="http://www.w3.org/2000/svg">
<g clip-path="url(#clip0_208_13329)">
<path d="M49.179 30.7809C48.8712 29.5414 48.077 28.4032 46.8288 27.5765C46.776 27.5414 46.7362 27.4901 46.7155 27.4303C46.6948 27.3706 46.6943 27.3057 46.714 27.2456C46.7496 27.1404 46.779 27.0311 46.8014 26.9178C46.8237 26.8116 46.84 26.7003 46.8481 26.5859L46.8593 26.3826L46.8349 26.0365C46.8293 25.9868 46.837 25.9366 46.8572 25.8908C46.9202 25.7441 47.0908 25.6763 47.2381 25.739C49.4166 26.6709 51.0426 28.0601 51.9983 29.6446C52.7469 30.8841 53.0851 32.246 52.9591 33.6039L52.9581 33.612C52.8291 34.9718 52.236 36.3256 51.1239 37.5469C49.6126 39.2053 47.1376 40.6258 43.5615 41.4889L43.3889 41.5304C41.3749 42.0171 39.1365 42.5574 36.7477 42.8508L36.7 42.8549C36.6229 42.8549 36.5491 42.8244 36.4946 42.7701C36.4401 42.7158 36.4095 42.6422 36.4095 42.5655V40.0501C36.4098 39.9792 36.436 39.9109 36.4833 39.8579C36.5307 39.805 36.5958 39.7712 36.6665 39.7628C37.7237 39.6403 38.7414 39.4774 39.7144 39.2913C40.6914 39.1051 41.6227 38.8946 42.5053 38.6771C45.3795 37.9698 47.3082 36.6029 48.3604 35.0244C48.8133 34.3455 49.1038 33.6271 49.2379 32.9088C49.3709 32.1914 49.3496 31.47 49.179 30.7809ZM11.092 5.92778L26.6829 0.755394C26.8697 0.692662 27.0637 0.698733 27.2364 0.75843V0.755394L43.0344 6.14633C43.2197 6.20839 43.3785 6.33079 43.4854 6.49379C43.5923 6.65679 43.6409 6.8509 43.6235 7.04482C43.6255 7.06404 43.6255 7.08529 43.6255 7.10755V26.0881H43.6235C43.6235 26.4048 43.4478 26.7104 43.1441 26.8632L27.4588 34.8039C27.3224 34.8859 27.1662 34.9292 27.0069 34.9293C26.8312 34.9293 26.6697 34.8777 26.5326 34.7897L10.8117 26.6203C10.6706 26.5467 10.5524 26.4361 10.4698 26.3004C10.3873 26.1647 10.3436 26.009 10.3435 25.8504H10.3405V6.79085C10.3405 6.35071 10.6665 5.98848 11.092 5.92778ZM30.459 27.4359L30.853 16.4526L35.3675 14.9845C37.1052 14.4189 38.2549 14.4422 38.848 15.0371C39.434 15.627 39.6879 16.8483 39.6118 18.7019C39.5376 20.5525 39.1771 21.9903 38.5271 23.0233C37.871 24.0655 36.6919 24.9306 34.9602 25.6267L30.459 27.4359ZM35.3096 17.7053L34.0035 18.1555L33.8065 23.3937L35.1105 22.8959C35.5351 22.733 35.8438 22.564 36.0368 22.3839C36.2308 22.2058 36.3344 21.9255 36.3496 21.5431L36.4806 18.1849C36.4948 17.8014 36.4115 17.5889 36.2247 17.5484C36.0398 17.5059 35.7341 17.5575 35.3096 17.7053ZM20.0651 18.9771L20.1392 17.943C19.8142 17.7113 19.2881 17.3977 18.5609 17.001C17.8419 16.6095 16.9461 16.2361 15.8807 15.88L15.6339 13.3626C16.942 13.6479 18.2136 14.1133 19.4486 14.7639C20.5251 15.3326 21.3082 15.8132 21.7926 16.2027C22.2791 16.5953 22.6346 16.9454 22.859 17.256C23.3526 17.9572 23.5669 18.7363 23.503 19.5903C23.4217 20.6719 22.8915 21.1879 21.9176 21.1353L21.9115 21.2163C22.9992 22.2827 23.503 23.4028 23.4146 24.5664C23.3719 25.136 23.2409 25.567 23.0226 25.8605C22.8052 26.1509 22.5462 26.3249 22.2487 26.3765C21.9521 26.4301 21.5702 26.3846 21.104 26.2409C20.4144 26.0213 19.4699 25.5529 18.2765 24.8436C17.0994 24.1434 15.9467 23.3198 14.8163 22.3728L15.4257 20.0911C16.3987 20.8975 17.2406 21.5077 17.9414 21.9114C18.6503 22.3222 19.2647 22.6429 19.7817 22.8746L19.8548 21.8628L17.0974 20.0152L17.2569 17.7528L20.0651 18.9771ZM26.1324 32.6254V14.4412L12.0894 8.09811V25.3272L26.1324 32.6254ZM41.8756 8.30553L27.8813 14.4493V32.6416L41.8756 25.5559V8.30553ZM26.949 2.4947L13.6666 6.90215L27.0119 12.9315L40.3572 7.07214L26.949 2.4947ZM1.37452 29.679C2.07936 28.301 3.79475 26.9937 6.81928 25.8483C6.85889 25.8321 6.90256 25.824 6.94827 25.8271C7.10772 25.8382 7.22858 25.9758 7.21842 26.1347C7.21537 26.1883 7.22248 26.2925 7.22858 26.3482C7.2428 26.5374 7.27834 26.7246 7.33116 26.9036C7.38194 27.0797 7.45201 27.2527 7.53936 27.4197L7.55764 27.4521C7.6328 27.5907 7.58303 27.7647 7.44491 27.8426C6.25866 28.5104 5.57006 29.1812 5.28772 29.844C4.92412 30.6969 5.25623 31.5701 6.06467 32.4292C6.92998 33.3469 8.32342 34.2393 10.0063 35.068C15.5405 37.7968 24.1123 39.8103 27.4507 39.9014V37.0966C27.4517 37.0288 27.4751 36.9611 27.5238 36.9064C27.5744 36.8491 27.6458 36.814 27.7223 36.8089C27.7988 36.8038 27.8742 36.829 27.9321 36.8791C29.6779 38.4069 31.5833 39.9307 33.2194 41.5608C33.246 41.5878 33.267 41.6199 33.2811 41.655C33.2953 41.6902 33.3023 41.7278 33.3018 41.7657C33.3014 41.8036 33.2934 41.841 33.2784 41.8758C33.2634 41.9106 33.2416 41.9421 33.2144 41.9685C31.5416 43.5803 29.6922 45.097 27.9412 46.6309C27.8894 46.6805 27.8183 46.7109 27.7412 46.7109C27.5807 46.7109 27.4507 46.5804 27.4507 46.4205V43.8161C21.489 43.9365 11.7572 41.068 5.93467 37.3638C4.10452 36.2002 2.65014 34.9465 1.80819 33.6717C0.930687 32.3431 0.703187 30.9893 1.37452 29.679Z" fill="#102039"/>
</g>
<defs>
<clipPath id="clip0_208_13329">
<rect width="52" height="46" fill="white" transform="translate(0.984375 0.710938)"/>
</clipPath>
</defs>
</svg>
