<svg width="150" height="150" viewBox="0 0 150 150" fill="none" xmlns="http://www.w3.org/2000/svg">
<circle cx="74.7969" cy="74.8743" r="74.6621" fill="#02375D"/>
<g clip-path="url(#clip0_271_8796)">
<path d="M119.184 92.4179C118.569 89.912 116.98 87.6107 114.484 85.9394C114.378 85.8685 114.299 85.7647 114.257 85.6439C114.216 85.5231 114.215 85.392 114.254 85.2705C114.325 85.0578 114.384 84.8368 114.429 84.6077C114.474 84.3929 114.506 84.1679 114.522 83.9368L114.545 83.5256L114.496 82.826C114.485 82.7256 114.5 82.6239 114.541 82.5314C114.667 82.2348 115.008 82.0978 115.302 82.2246C119.659 84.1086 122.911 86.9172 124.823 90.1207C126.32 92.6266 126.996 95.38 126.744 98.1252L126.742 98.1416C126.484 100.891 125.298 103.628 123.074 106.097C120.051 109.45 115.101 112.322 107.949 114.067L107.604 114.151C103.576 115.135 99.0991 116.227 94.3216 116.82L94.2261 116.828C94.0721 116.828 93.9243 116.767 93.8153 116.657C93.7064 116.547 93.6452 116.398 93.6452 116.243V111.158C93.6457 111.015 93.6982 110.876 93.7929 110.769C93.8875 110.662 94.0178 110.594 94.1591 110.577C96.2736 110.329 98.3089 110 100.255 109.624C102.209 109.247 104.072 108.822 105.837 108.382C111.585 106.952 115.443 104.188 117.547 100.997C118.453 99.6246 119.034 98.1722 119.302 96.7198C119.568 95.2695 119.525 93.811 119.184 92.4179ZM43.0102 42.1714L74.1919 31.7141C74.5657 31.5873 74.9536 31.5996 75.299 31.7203V31.7141L106.895 42.6132C107.265 42.7387 107.583 42.9861 107.797 43.3157C108.011 43.6452 108.108 44.0377 108.073 44.4297C108.077 44.4686 108.077 44.5115 108.077 44.5565V82.9303H108.073C108.073 83.5706 107.722 84.1884 107.114 84.4973L75.7438 100.551C75.471 100.717 75.1585 100.805 74.8399 100.805C74.4885 100.805 74.1655 100.701 73.8913 100.523L42.4496 84.0063C42.1673 83.8575 41.9309 83.6338 41.7658 83.3594C41.6008 83.085 41.5134 82.7704 41.5132 82.4496H41.5071V43.9163C41.5071 43.0264 42.1591 42.2941 43.0102 42.1714ZM81.7441 85.6551L82.5322 63.4499L91.5611 60.4817C95.0366 59.3382 97.336 59.3852 98.5222 60.5881C99.6943 61.7807 100.202 64.2497 100.05 67.9973C99.9014 71.7387 99.1804 74.6456 97.8803 76.7341C96.5682 78.8411 94.2099 80.5901 90.7466 81.9975L81.7441 85.6551ZM91.4454 65.9824L88.8332 66.8927L88.4391 77.4828L91.0472 76.4764C91.8963 76.147 92.5138 75.8054 92.8997 75.4413C93.2877 75.0813 93.4949 74.5146 93.5254 73.7414L93.7874 66.952C93.8158 66.1767 93.6493 65.7471 93.2755 65.6653C92.9058 65.5794 92.2944 65.6837 91.4454 65.9824ZM60.9563 68.5537L61.1046 66.4631C60.4546 65.9946 59.4024 65.3605 57.948 64.5586C56.5099 63.767 54.7183 63.0121 52.5875 62.2921L52.094 57.2026C54.7102 57.7794 57.2533 58.7204 59.7233 60.0357C61.8764 61.1854 63.4425 62.1571 64.4114 62.9446C65.3844 63.7383 66.0954 64.4461 66.5443 65.0741C67.5314 66.4917 67.96 68.0668 67.8321 69.7934C67.6696 71.9801 66.6093 73.0234 64.6613 72.917L64.6491 73.0807C66.8246 75.2367 67.8321 77.5012 67.6554 79.8537C67.57 81.0054 67.308 81.8768 66.8713 82.4701C66.4366 83.0571 65.9186 83.409 65.3235 83.5133C64.7304 83.6217 63.9666 83.5297 63.0343 83.2392C61.655 82.7953 59.766 81.8482 57.3793 80.4142C55.025 78.9986 52.7196 77.3335 50.4588 75.4188L51.6775 70.8059C53.6235 72.4363 55.3074 73.6698 56.709 74.486C58.1268 75.3165 59.3557 75.965 60.3896 76.4334L60.5358 74.3878L55.021 70.6525L55.3399 66.0785L60.9563 68.5537ZM73.091 96.1471V59.3832L45.0049 46.5592V81.392L73.091 96.1471ZM104.577 46.9786L76.5888 59.3996V96.1798L104.577 81.8543V46.9786ZM74.7241 35.2306L48.1594 44.1413L74.85 56.3311L101.541 44.485L74.7241 35.2306ZM23.5752 90.1902C24.9849 87.4041 28.4157 84.7612 34.4647 82.4455C34.544 82.4128 34.6313 82.3964 34.7227 82.4025C35.0416 82.4251 35.2833 82.7033 35.263 83.0244C35.2569 83.1328 35.2711 83.3435 35.2833 83.456C35.3118 83.8386 35.3829 84.217 35.4885 84.5791C35.59 84.935 35.7302 85.2848 35.9049 85.6224L35.9415 85.6878C36.0918 85.9681 35.9922 86.3199 35.716 86.4774C33.3435 87.8275 31.9663 89.1838 31.4016 90.5237C30.6744 92.2481 31.3386 94.0135 32.9555 95.7502C34.6861 97.6056 37.473 99.4098 40.8388 101.085C51.9071 106.602 69.0508 110.673 75.7275 110.857V105.187C75.7296 105.05 75.7763 104.913 75.8738 104.802C75.9751 104.686 76.1178 104.615 76.2708 104.605C76.4238 104.595 76.5746 104.646 76.6903 104.747C80.1821 107.836 83.9927 110.916 87.265 114.212C87.3182 114.267 87.3601 114.331 87.3884 114.403C87.4167 114.474 87.4308 114.55 87.4298 114.626C87.4289 114.703 87.4129 114.778 87.3829 114.849C87.3529 114.919 87.3094 114.983 87.2549 115.036C83.9094 118.295 80.2105 121.361 76.7086 124.463C76.605 124.563 76.4629 124.624 76.3085 124.624C75.9875 124.624 75.7275 124.36 75.7275 124.037V118.772C63.8041 119.015 44.3407 113.216 32.6955 105.727C29.0352 103.374 26.1265 100.84 24.4425 98.2622C22.6875 95.5763 22.2325 92.8393 23.5752 90.1902Z" fill="white"/>
</g>
<defs>
<clipPath id="clip0_271_8796">
<rect width="104" height="93" fill="white" transform="translate(22.7949 31.6243)"/>
</clipPath>
</defs>
</svg>
