<svg width="97" height="27" viewBox="0 0 97 27" fill="none" xmlns="http://www.w3.org/2000/svg">
<g clip-path="url(#clip0_145_1400)">
<path d="M8.21429 5.90625H14.0086C15.7143 5.90625 17.0429 6.24206 17.9686 6.91538C18.9046 7.58869 19.3743 8.55394 19.3743 9.81787C19.3743 10.5401 19.2065 11.1662 18.8703 11.691C18.5343 12.2226 18.0389 12.6427 17.3806 12.9549C18.2891 13.2519 18.9851 13.7227 19.472 14.3674C19.9554 15.012 20.1954 15.795 20.1954 16.713C20.1954 17.6192 19.9606 18.3988 19.4926 19.0417C19.0246 19.6931 18.356 20.196 17.4869 20.5504C16.6194 20.9048 15.584 21.0819 14.3669 21.0819H8.21257L8.21429 5.90625ZM0.5 27H27.9286V0H0.5V27ZM13.7171 8.4375C15.3817 8.4375 16.22 9.03994 16.22 10.2431C16.22 10.8658 16.0074 11.3518 15.5806 11.6978C15.1537 12.0454 14.5349 12.2175 13.7291 12.2175H11.3634V8.4375H13.7171ZM14.1149 14.5969H11.3377V18.6975H14.0634C14.9994 18.6975 15.7211 18.5237 16.2234 18.1777C16.7274 17.8301 16.9794 17.3323 16.9794 16.6809C16.9794 15.2938 16.0211 14.6053 14.0994 14.6053L14.1149 14.5969Z" fill="black"/>
<path d="M42.4994 5.90625H48.2937C49.9994 5.90625 51.328 6.24206 52.2537 6.91538C53.1897 7.58869 53.6594 8.55394 53.6594 9.81787C53.6594 10.5401 53.4916 11.1662 53.1554 11.691C52.8194 12.2226 52.3223 12.6427 51.6657 12.9549C52.5743 13.2519 53.2703 13.7227 53.7572 14.3674C54.2406 15.012 54.4806 15.795 54.4806 16.713C54.4806 17.6192 54.2457 18.3988 53.7777 19.0417C53.3097 19.6931 52.6412 20.196 51.772 20.5504C50.9046 20.9048 49.8692 21.0819 48.652 21.0819H42.4977L42.4994 5.90625ZM34.7852 27H62.2137V0H34.7852V27ZM48.0023 8.4375C49.6669 8.4375 50.5052 9.03994 50.5052 10.2431C50.5052 10.8658 50.2926 11.3518 49.8657 11.6978C49.4389 12.0454 48.82 12.2175 48.0143 12.2175H45.6486V8.4375H48.0023ZM48.4 14.5969H45.6229V18.6975H48.3486C49.2846 18.6975 50.0063 18.5237 50.5086 18.1777C51.0126 17.8301 51.2646 17.3323 51.2646 16.6809C51.2646 15.2938 50.3063 14.6053 48.3846 14.6053L48.4 14.5969Z" fill="black"/>
<path d="M86.558 20.9251C87.3997 20.7242 88.1403 20.4492 88.7866 20.1032V17.2176C87.4374 18.0361 85.958 18.4461 84.3637 18.4461C83.318 18.4461 82.4266 18.2521 81.6894 17.8639C80.9557 17.4758 80.3968 16.9105 80.0128 16.1596C79.6271 15.4171 79.4351 14.5176 79.4351 13.4596C79.4351 12.4049 79.634 11.5021 80.0334 10.7764C80.4328 10.0407 81.0054 9.47875 81.7477 9.09062C82.4951 8.7025 83.3986 8.50843 84.4563 8.50843C85.226 8.50843 85.9597 8.60935 86.6506 8.8105C87.3466 9.01131 87.9928 9.30662 88.5877 9.69475V6.74162C87.9346 6.40918 87.2266 6.15606 86.462 5.98225C85.6991 5.80843 84.89 5.72237 84.0277 5.72237C82.7934 5.72237 81.6791 5.90293 80.6848 6.26406C79.6905 6.62518 78.8334 7.14493 78.1306 7.825C77.4191 8.50506 76.874 9.32012 76.4968 10.2719C76.1197 11.2219 75.9311 12.28 75.9311 13.4612C75.9311 14.6695 76.1128 15.7562 76.4763 16.7181C76.8397 17.6834 77.3608 18.49 78.0448 19.165C78.7271 19.8316 79.562 20.3412 80.5477 20.6956C81.5351 21.0499 82.6391 21.2271 83.8734 21.2271C84.8026 21.2271 85.6906 21.1262 86.5306 20.9251H86.558ZM96.5008 26.9663H69.0723V-0.0336914H96.5008V26.9663Z" fill="black"/>
</g>
<defs>
<clipPath id="clip0_145_1400">
<rect width="96" height="27" fill="white" transform="translate(0.5)"/>
</clipPath>
</defs>
</svg>
