<svg width="38" height="50" viewBox="0 0 38 50" fill="none" xmlns="http://www.w3.org/2000/svg">
<g clip-path="url(#clip0_14_1388)">
<path d="M37.9996 49.9995H0V0.000762939H37.9996V49.9995Z" fill="white"/>
<mask id="mask0_14_1388" style="mask-type:luminance" maskUnits="userSpaceOnUse" x="16" y="0" width="22" height="30">
<path d="M35.6413 29.4773C36.4391 29.4773 37.2259 29.4323 37.9986 29.3454L37.9946 0.00296211H21.7016C18.5171 3.13707 16.5244 7.34372 16.5244 11.94C16.5244 21.6262 25.0832 29.478 35.6413 29.478V29.4773Z" fill="white"/>
</mask>
<g mask="url(#mask0_14_1388)">
<path d="M35.6413 29.4773C36.4391 29.4773 37.2259 29.4323 37.9986 29.3454L37.9946 0.00296211H21.7016C18.5171 3.13707 16.5244 7.34372 16.5244 11.94C16.5244 21.6262 25.0832 29.478 35.6413 29.478" fill="url(#paint0_radial_14_1388)"/>
</g>
<mask id="mask1_14_1388" style="mask-type:luminance" maskUnits="userSpaceOnUse" x="23" y="39" width="3" height="2">
<path d="M23.875 40.4362C23.875 40.619 23.9888 40.9331 24.4659 40.9331C24.7384 40.9331 24.9429 40.8244 25.0737 40.6246C25.193 40.4305 25.1985 40.2708 25.2096 39.8706C25.1133 39.8593 25.0338 39.8536 24.9031 39.8536C24.6875 39.8536 23.875 39.8536 23.875 40.4362Z" fill="white"/>
</mask>
<g mask="url(#mask1_14_1388)">
<path d="M23.875 40.4362C23.875 40.619 23.9888 40.9331 24.4659 40.9331C24.7384 40.9331 24.9429 40.8244 25.0737 40.6246C25.193 40.4305 25.1985 40.2708 25.2096 39.8706C25.1133 39.8593 25.0338 39.8536 24.9031 39.8536C24.6875 39.8536 23.875 39.8536 23.875 40.4362Z" fill="url(#paint1_radial_14_1388)"/>
</g>
<mask id="mask2_14_1388" style="mask-type:luminance" maskUnits="userSpaceOnUse" x="15" y="37" width="3" height="3">
<path d="M15.9175 39.7275H17.4678L16.7127 37.7054L15.9175 39.7275Z" fill="white"/>
</mask>
<g mask="url(#mask2_14_1388)">
<path d="M15.9175 39.7275H17.4678L16.7127 37.7054L15.9175 39.7275Z" fill="url(#paint2_radial_14_1388)"/>
</g>
<mask id="mask3_14_1388" style="mask-type:luminance" maskUnits="userSpaceOnUse" x="0" y="0" width="39" height="51">
<path d="M35.7344 41.2642H35.1891V39.4422C35.1891 39.2538 35.1663 39.0824 35.0359 38.951C34.8993 38.8196 34.712 38.7569 34.5302 38.7569C34.1439 38.7569 33.7862 39.0367 33.7862 39.6137V41.2642H33.2526V38.7282L33.2467 38.3972H33.7805L33.7862 38.8597C33.8488 38.7395 34.053 38.3398 34.7006 38.3398C34.9562 38.3398 35.7344 38.437 35.7344 39.3163V41.2642ZM31.0846 41.361C30.1419 41.361 29.6816 40.7043 29.6816 39.8646C29.6816 39.1566 30.0112 38.3227 31.13 38.3227C32.2714 38.3227 32.5268 39.2251 32.5268 39.8249C32.5268 40.6646 32.0555 41.361 31.0846 41.361ZM29.0298 37.7401H28.3877V37.1517H29.0298V37.7401ZM28.9784 41.2641H28.4445V38.3971H28.9784V41.2641ZM27.8817 38.7796H27.2456V40.4989C27.2456 40.6415 27.2456 40.8813 27.6259 40.8813C27.7339 40.8813 27.8362 40.8643 27.8817 40.8529V41.2698C27.7848 41.287 27.6316 41.304 27.4386 41.304C26.9502 41.304 26.7175 41.1612 26.7175 40.6928V38.7796H26.2117V38.3856H26.7175V37.7858L27.2456 37.6142V38.3856H27.8817V38.7796ZM25.2469 47.2032L24.8381 48.2712H24.2874L24.7188 47.1745L23.5321 44.319H24.1341L25.0256 46.5806L25.9342 44.319H26.5135L25.2469 47.2032ZM25.1087 38.8653C25.0009 38.7224 24.7683 38.677 24.6146 38.677C24.0751 38.677 24.0468 39.048 24.0413 39.1623H23.5072C23.5242 39.0138 23.5411 38.8138 23.7058 38.6195C23.922 38.3799 24.325 38.3112 24.626 38.3112C25.0408 38.3112 25.4833 38.4426 25.637 38.7339C25.7279 38.9053 25.7334 39.0425 25.7334 39.1738L25.7108 40.5444C25.7108 40.5903 25.7165 40.9728 25.756 41.2641H25.2736C25.2336 41.1215 25.2224 40.9843 25.2224 40.8359C24.9666 41.3101 24.5806 41.3556 24.3419 41.3556C23.6889 41.3556 23.3369 40.9843 23.3369 40.5102C23.3369 40.282 23.4163 39.9163 23.8366 39.6705C24.1434 39.4991 24.5977 39.4821 24.8247 39.4821C24.9611 39.4821 25.0463 39.4876 25.2108 39.4991C25.2108 39.1454 25.2108 38.9909 25.1087 38.8653ZM23.1838 44.7015H22.5478V46.4207C22.5478 46.5636 22.5478 46.8035 22.9283 46.8035C23.036 46.8035 23.1384 46.7862 23.1838 46.775V47.1917C23.0874 47.2087 22.934 47.2262 22.7407 47.2262C22.2523 47.2262 22.0194 47.0832 22.0194 46.6151V44.7015H21.5143V44.3075H22.0194V43.7079L22.5478 43.5363V44.3075H23.1838V44.7015ZM21.0354 43.6621H20.394V43.0739H21.0354V43.6621ZM20.9846 47.1859H20.4507V44.3189H20.9846V47.1859ZM19.7768 41.264L18.5841 38.3971H19.1803L20.0889 40.6702L20.9748 38.3971H21.5656L20.3164 41.264H19.7768ZM19.9129 44.8213C19.8845 44.8101 19.8502 44.8044 19.8107 44.7986C19.7709 44.7929 19.7198 44.7929 19.6572 44.7929C19.0268 44.7929 18.8793 45.1699 18.8793 45.661V47.186H18.3398V44.9013C18.3398 44.7072 18.3285 44.5074 18.3114 44.319H18.851L18.8623 44.8729C18.9645 44.4732 19.3052 44.3417 19.5439 44.3075C19.7028 44.2845 19.8221 44.2905 19.9129 44.296V44.8213ZM17.6393 40.1905H15.7367L15.2939 41.2641H14.7089L16.4354 37.1402H17.043L18.7013 41.2641H18.0822L17.6393 40.1905ZM16.1736 47.2831C15.2307 47.2831 14.7707 46.6261 14.7707 45.7866C14.7707 45.0786 15.1001 44.2445 16.219 44.2445C17.3604 44.2445 17.616 45.1471 17.616 45.7467C17.616 46.5864 17.1447 47.2831 16.1736 47.2831ZM14.0726 47.1859H13.5273V45.4896C13.5273 45.2328 13.5273 44.6787 12.914 44.6787C12.5165 44.6787 12.3176 44.924 12.2438 45.0614C12.153 45.2211 12.153 45.4896 12.153 45.6667V47.1859H11.6134V43.0681H12.153V44.7412C12.3291 44.4389 12.6811 44.2673 13.0785 44.2673C13.3796 44.2673 13.8113 44.3757 13.976 44.7242C14.0327 44.8387 14.0726 44.9758 14.0726 45.3925V47.1859ZM11.2872 37.7401H10.6454V37.1517H11.2872V37.7401ZM11.2359 41.2641H10.7022V38.3971H11.2359V41.2641ZM11.0536 44.7014H10.4174V46.4207C10.4174 46.5636 10.4174 46.8035 10.798 46.8035C10.9058 46.8035 11.0081 46.7861 11.0536 46.7749V47.1917C10.957 47.2087 10.8037 47.2262 10.6106 47.2262C10.1221 47.2262 9.88926 47.0832 9.88926 46.6151V44.7014H9.38373V44.3074H9.88926V43.7078L10.4174 43.5363V44.3074H11.0536V44.7014ZM8.37285 41.2641L7.1804 38.3971H7.77668L8.6853 40.6702L9.57117 38.3971H10.1619L8.91241 41.2641H8.37285ZM8.31197 47.1859L8.30043 46.695C8.19819 46.8949 8.00518 47.2147 7.3919 47.2147C6.6877 47.2147 6.35832 46.809 6.35832 46.2436V44.3189H6.90355V46.1636C6.90355 46.4434 6.96593 46.7977 7.51116 46.7977C7.77797 46.7977 8.02795 46.7062 8.18126 46.4777C8.30043 46.3065 8.30043 46.0839 8.30043 45.9407V44.3189H8.85144V46.6493C8.85144 46.7062 8.86267 47.0258 8.86836 47.1859H8.31197ZM6.11419 38.3971H6.6479V41.2641H6.11419V38.3971ZM6.05738 37.1517H6.69902V37.7401H6.05738V37.1517ZM5.36481 47.1859L4.92194 46.1121H3.01951L2.57644 47.1859H1.99161L3.71795 43.0623H4.32556L5.98377 47.1859H5.36481ZM4.04724 37.0832C4.62667 37.0832 5.4444 37.3174 5.51829 38.2539H4.91059C4.88781 38.1113 4.81399 37.5402 4.02456 37.5402C3.03652 37.5402 2.86036 38.5567 2.86036 39.2422C2.86036 40.019 3.08188 40.8586 4.01896 40.8586C4.26876 40.8586 4.50732 40.7957 4.68338 40.6128C4.831 40.4529 4.86513 40.276 4.88215 40.1791H5.50677C5.42172 40.99 4.67772 41.327 3.9736 41.327C2.53099 41.327 2.25263 40.0474 2.25263 39.248C2.25263 38.3799 2.5877 37.0832 4.04724 37.0832ZM2.46861 31.2186H3.03652V33.7715C3.03652 34.2113 3.13293 34.3941 3.21827 34.514C3.47383 34.8571 3.87134 34.9195 4.15535 34.9195C5.26264 34.9195 5.26264 34.0456 5.26264 33.7488V31.2186H5.81344V33.7603C5.81344 33.9828 5.80788 34.4453 5.4784 34.8571C5.07523 35.3651 4.45051 35.4278 4.15535 35.4278C3.76888 35.4278 3.08748 35.3194 2.70705 34.771C2.58211 34.5882 2.46861 34.3484 2.46861 33.7315V31.2186ZM6.75526 31.2186H7.31751V33.0231L9.02684 31.2186H9.80485L7.97057 33.0633L10.0037 35.3424H9.20859L7.31751 33.1547V35.3424H6.75526V31.2186ZM12.1257 37.1462H12.6595V41.264H12.1257V37.1462ZM22.6398 38.3971V41.2641H22.1064V38.3971H22.6398ZM22.0494 37.1517H22.6911V37.7401H22.0494V37.1517ZM37.9994 30.147C35.4113 30.9745 32.6858 31.4118 29.8042 31.4118C15.5368 31.4118 3.97058 20.4177 3.97058 6.85878C3.97058 4.02818 4.47538 1.30959 5.40261 0.00271606H0.000976562V50.0015H38.0006L37.9994 30.147Z" fill="white"/>
</mask>
<g mask="url(#mask3_14_1388)">
<path d="M35.7344 41.2642H35.1891V39.4422C35.1891 39.2538 35.1663 39.0824 35.0359 38.951C34.8993 38.8196 34.712 38.7569 34.5302 38.7569C34.1439 38.7569 33.7862 39.0367 33.7862 39.6137V41.2642H33.2526V38.7282L33.2467 38.3972H33.7805L33.7862 38.8597C33.8488 38.7395 34.053 38.3398 34.7006 38.3398C34.9562 38.3398 35.7344 38.437 35.7344 39.3163V41.2642ZM31.0846 41.361C30.1419 41.361 29.6816 40.7043 29.6816 39.8646C29.6816 39.1566 30.0112 38.3227 31.13 38.3227C32.2714 38.3227 32.5268 39.2251 32.5268 39.8249C32.5268 40.6646 32.0555 41.361 31.0846 41.361ZM29.0298 37.7401H28.3877V37.1517H29.0298V37.7401ZM28.9784 41.2641H28.4445V38.3971H28.9784V41.2641ZM27.8817 38.7796H27.2456V40.4989C27.2456 40.6415 27.2456 40.8813 27.6259 40.8813C27.7339 40.8813 27.8362 40.8643 27.8817 40.8529V41.2698C27.7848 41.287 27.6316 41.304 27.4386 41.304C26.9502 41.304 26.7175 41.1612 26.7175 40.6928V38.7796H26.2117V38.3856H26.7175V37.7858L27.2456 37.6142V38.3856H27.8817V38.7796ZM25.2469 47.2032L24.8381 48.2712H24.2874L24.7188 47.1745L23.5321 44.319H24.1341L25.0256 46.5806L25.9342 44.319H26.5135L25.2469 47.2032ZM25.1087 38.8653C25.0009 38.7224 24.7683 38.677 24.6146 38.677C24.0751 38.677 24.0468 39.048 24.0413 39.1623H23.5072C23.5242 39.0138 23.5411 38.8138 23.7058 38.6195C23.922 38.3799 24.325 38.3112 24.626 38.3112C25.0408 38.3112 25.4833 38.4426 25.637 38.7339C25.7279 38.9053 25.7334 39.0425 25.7334 39.1738L25.7108 40.5444C25.7108 40.5903 25.7165 40.9728 25.756 41.2641H25.2736C25.2336 41.1215 25.2224 40.9843 25.2224 40.8359C24.9666 41.3101 24.5806 41.3556 24.3419 41.3556C23.6889 41.3556 23.3369 40.9843 23.3369 40.5102C23.3369 40.282 23.4163 39.9163 23.8366 39.6705C24.1434 39.4991 24.5977 39.4821 24.8247 39.4821C24.9611 39.4821 25.0463 39.4876 25.2108 39.4991C25.2108 39.1454 25.2108 38.9909 25.1087 38.8653ZM23.1838 44.7015H22.5478V46.4207C22.5478 46.5636 22.5478 46.8035 22.9283 46.8035C23.036 46.8035 23.1384 46.7862 23.1838 46.775V47.1917C23.0874 47.2087 22.934 47.2262 22.7407 47.2262C22.2523 47.2262 22.0194 47.0832 22.0194 46.6151V44.7015H21.5143V44.3075H22.0194V43.7079L22.5478 43.5363V44.3075H23.1838V44.7015ZM21.0354 43.6621H20.394V43.0739H21.0354V43.6621ZM20.9846 47.1859H20.4507V44.3189H20.9846V47.1859ZM19.7768 41.264L18.5841 38.3971H19.1803L20.0889 40.6702L20.9748 38.3971H21.5656L20.3164 41.264H19.7768ZM19.9129 44.8213C19.8845 44.8101 19.8502 44.8044 19.8107 44.7986C19.7709 44.7929 19.7198 44.7929 19.6572 44.7929C19.0268 44.7929 18.8793 45.1699 18.8793 45.661V47.186H18.3398V44.9013C18.3398 44.7072 18.3285 44.5074 18.3114 44.319H18.851L18.8623 44.8729C18.9645 44.4732 19.3052 44.3417 19.5439 44.3075C19.7028 44.2845 19.8221 44.2905 19.9129 44.296V44.8213ZM17.6393 40.1905H15.7367L15.2939 41.2641H14.7089L16.4354 37.1402H17.043L18.7013 41.2641H18.0822L17.6393 40.1905ZM16.1736 47.2831C15.2307 47.2831 14.7707 46.6261 14.7707 45.7866C14.7707 45.0786 15.1001 44.2445 16.219 44.2445C17.3604 44.2445 17.616 45.1471 17.616 45.7467C17.616 46.5864 17.1447 47.2831 16.1736 47.2831ZM14.0726 47.1859H13.5273V45.4896C13.5273 45.2328 13.5273 44.6787 12.914 44.6787C12.5165 44.6787 12.3176 44.924 12.2438 45.0614C12.153 45.2211 12.153 45.4896 12.153 45.6667V47.1859H11.6134V43.0681H12.153V44.7412C12.3291 44.4389 12.6811 44.2673 13.0785 44.2673C13.3796 44.2673 13.8113 44.3757 13.976 44.7242C14.0327 44.8387 14.0726 44.9758 14.0726 45.3925V47.1859ZM11.2872 37.7401H10.6454V37.1517H11.2872V37.7401ZM11.2359 41.2641H10.7022V38.3971H11.2359V41.2641ZM11.0536 44.7014H10.4174V46.4207C10.4174 46.5636 10.4174 46.8035 10.798 46.8035C10.9058 46.8035 11.0081 46.7861 11.0536 46.7749V47.1917C10.957 47.2087 10.8037 47.2262 10.6106 47.2262C10.1221 47.2262 9.88926 47.0832 9.88926 46.6151V44.7014H9.38373V44.3074H9.88926V43.7078L10.4174 43.5363V44.3074H11.0536V44.7014ZM8.37285 41.2641L7.1804 38.3971H7.77668L8.6853 40.6702L9.57117 38.3971H10.1619L8.91241 41.2641H8.37285ZM8.31197 47.1859L8.30043 46.695C8.19819 46.8949 8.00518 47.2147 7.3919 47.2147C6.6877 47.2147 6.35832 46.809 6.35832 46.2436V44.3189H6.90355V46.1636C6.90355 46.4434 6.96593 46.7977 7.51116 46.7977C7.77797 46.7977 8.02795 46.7062 8.18126 46.4777C8.30043 46.3065 8.30043 46.0839 8.30043 45.9407V44.3189H8.85144V46.6493C8.85144 46.7062 8.86267 47.0258 8.86836 47.1859H8.31197ZM6.11419 38.3971H6.6479V41.2641H6.11419V38.3971ZM6.05738 37.1517H6.69902V37.7401H6.05738V37.1517ZM5.36481 47.1859L4.92194 46.1121H3.01951L2.57644 47.1859H1.99161L3.71795 43.0623H4.32556L5.98377 47.1859H5.36481ZM4.04724 37.0832C4.62667 37.0832 5.4444 37.3174 5.51829 38.2539H4.91059C4.88781 38.1113 4.81399 37.5402 4.02456 37.5402C3.03652 37.5402 2.86036 38.5567 2.86036 39.2422C2.86036 40.019 3.08188 40.8586 4.01896 40.8586C4.26876 40.8586 4.50732 40.7957 4.68338 40.6128C4.831 40.4529 4.86513 40.276 4.88215 40.1791H5.50677C5.42172 40.99 4.67772 41.327 3.9736 41.327C2.53099 41.327 2.25263 40.0474 2.25263 39.248C2.25263 38.3799 2.5877 37.0832 4.04724 37.0832ZM2.46861 31.2186H3.03652V33.7715C3.03652 34.2113 3.13293 34.3941 3.21827 34.514C3.47383 34.8571 3.87134 34.9195 4.15535 34.9195C5.26264 34.9195 5.26264 34.0456 5.26264 33.7488V31.2186H5.81344V33.7603C5.81344 33.9828 5.80788 34.4453 5.4784 34.8571C5.07523 35.3651 4.45051 35.4278 4.15535 35.4278C3.76888 35.4278 3.08748 35.3194 2.70705 34.771C2.58211 34.5882 2.46861 34.3484 2.46861 33.7315V31.2186ZM6.75526 31.2186H7.31751V33.0231L9.02684 31.2186H9.80485L7.97057 33.0633L10.0037 35.3424H9.20859L7.31751 33.1547V35.3424H6.75526V31.2186ZM12.1257 37.1462H12.6595V41.264H12.1257V37.1462ZM22.6398 38.3971V41.2641H22.1064V38.3971H22.6398ZM22.0494 37.1517H22.6911V37.7401H22.0494V37.1517ZM37.9994 30.147C35.4113 30.9745 32.6858 31.4118 29.8042 31.4118C15.5368 31.4118 3.97058 20.4177 3.97058 6.85878C3.97058 4.02818 4.47538 1.30959 5.40261 0.00271606H0.000976562V50.0015H38.0006L37.9982 30.1487" fill="url(#paint3_radial_14_1388)"/>
</g>
<mask id="mask4_14_1388" style="mask-type:luminance" maskUnits="userSpaceOnUse" x="3" y="43" width="2" height="3">
<path d="M3.2002 45.6494H4.75045L3.99512 43.6276L3.2002 45.6494Z" fill="white"/>
</mask>
<g mask="url(#mask4_14_1388)">
<path d="M3.2002 45.6494H4.75045L3.99512 43.6276L3.2002 45.6494Z" fill="url(#paint4_radial_14_1388)"/>
</g>
<mask id="mask5_14_1388" style="mask-type:luminance" maskUnits="userSpaceOnUse" x="15" y="44" width="3" height="3">
<path d="M16.2184 44.6386C15.8775 44.6386 15.3267 44.8557 15.3267 45.7524C15.3267 46.3406 15.5765 46.8833 16.1842 46.8833C16.5874 46.8833 17.0474 46.592 17.0474 45.7293C17.0474 45.0154 16.7182 44.6386 16.2184 44.6386Z" fill="white"/>
</mask>
<g mask="url(#mask5_14_1388)">
<path d="M16.2184 44.6386C15.8775 44.6386 15.3267 44.8557 15.3267 45.7524C15.3267 46.3406 15.5765 46.8833 16.1842 46.8833C16.5874 46.8833 17.0474 46.592 17.0474 45.7293C17.0474 45.0154 16.7182 44.6386 16.2184 44.6386Z" fill="url(#paint5_radial_14_1388)"/>
</g>
<mask id="mask6_14_1388" style="mask-type:luminance" maskUnits="userSpaceOnUse" x="30" y="38" width="2" height="3">
<path d="M31.129 38.717C30.788 38.717 30.2373 38.9338 30.2373 39.8308C30.2373 40.4189 30.4872 40.9614 31.0945 40.9614C31.4982 40.9614 31.958 40.6704 31.958 39.8078C31.958 39.094 31.6288 38.717 31.129 38.717Z" fill="white"/>
</mask>
<g mask="url(#mask6_14_1388)">
<path d="M31.129 38.717C30.788 38.717 30.2373 38.9338 30.2373 39.8308C30.2373 40.4189 30.4872 40.9614 31.0945 40.9614C31.4982 40.9614 31.958 40.6704 31.958 39.8078C31.958 39.094 31.6288 38.717 31.129 38.717Z" fill="url(#paint6_radial_14_1388)"/>
</g>
</g>
<defs>
<radialGradient id="paint0_radial_14_1388" cx="0" cy="0" r="1" gradientUnits="userSpaceOnUse" gradientTransform="translate(0.544782 49.5845) rotate(-52.6777) scale(61.7289 61.6364)">
<stop stop-color="#1A2B69"/>
<stop offset="0.32047" stop-color="#1A2B69"/>
<stop offset="0.90184" stop-color="#1FB6DE"/>
<stop offset="1" stop-color="#1FB6DE"/>
</radialGradient>
<radialGradient id="paint1_radial_14_1388" cx="0" cy="0" r="1" gradientUnits="userSpaceOnUse" gradientTransform="translate(0.492726 49.5843) rotate(-52.6777) scale(61.729 61.6364)">
<stop stop-color="#1A2B69"/>
<stop offset="0.32047" stop-color="#1A2B69"/>
<stop offset="0.90184" stop-color="#1FB6DE"/>
<stop offset="1" stop-color="#1FB6DE"/>
</radialGradient>
<radialGradient id="paint2_radial_14_1388" cx="0" cy="0" r="1" gradientUnits="userSpaceOnUse" gradientTransform="translate(0.492612 49.5839) rotate(-52.6778) scale(61.7289 61.6364)">
<stop stop-color="#1A2B69"/>
<stop offset="0.32047" stop-color="#1A2B69"/>
<stop offset="0.90184" stop-color="#1FB6DE"/>
<stop offset="1" stop-color="#1FB6DE"/>
</radialGradient>
<radialGradient id="paint3_radial_14_1388" cx="0" cy="0" r="1" gradientUnits="userSpaceOnUse" gradientTransform="translate(0.493135 49.5841) rotate(-52.6777) scale(61.7289 61.6364)">
<stop stop-color="#1A2B69"/>
<stop offset="0.32047" stop-color="#1A2B69"/>
<stop offset="0.90184" stop-color="#1FB6DE"/>
<stop offset="1" stop-color="#1FB6DE"/>
</radialGradient>
<radialGradient id="paint4_radial_14_1388" cx="0" cy="0" r="1" gradientUnits="userSpaceOnUse" gradientTransform="translate(0.492954 49.5839) rotate(-52.6777) scale(61.7289 61.6364)">
<stop stop-color="#1A2B69"/>
<stop offset="0.32047" stop-color="#1A2B69"/>
<stop offset="0.90184" stop-color="#1FB6DE"/>
<stop offset="1" stop-color="#1FB6DE"/>
</radialGradient>
<radialGradient id="paint5_radial_14_1388" cx="0" cy="0" r="1" gradientUnits="userSpaceOnUse" gradientTransform="translate(0.492915 49.5839) rotate(-52.6777) scale(61.729 61.6364)">
<stop stop-color="#1A2B69"/>
<stop offset="0.32047" stop-color="#1A2B69"/>
<stop offset="0.90184" stop-color="#1FB6DE"/>
<stop offset="1" stop-color="#1FB6DE"/>
</radialGradient>
<radialGradient id="paint6_radial_14_1388" cx="0" cy="0" r="1" gradientUnits="userSpaceOnUse" gradientTransform="translate(0.492917 49.5842) rotate(-52.6778) scale(61.7289 61.6364)">
<stop stop-color="#1A2B69"/>
<stop offset="0.32047" stop-color="#1A2B69"/>
<stop offset="0.90184" stop-color="#1FB6DE"/>
<stop offset="1" stop-color="#1FB6DE"/>
</radialGradient>
<clipPath id="clip0_14_1388">
<rect width="38" height="50" fill="white"/>
</clipPath>
</defs>
</svg>
