<svg width="36" height="48" viewBox="0 0 36 48" fill="none" xmlns="http://www.w3.org/2000/svg">
<g clip-path="url(#clip0_145_1411)">
<path d="M9.4698 44.1015H13.3916V48H9.4698V44.1015ZM22.3417 48H32.1414V44.1015H22.3417V48ZM0.5 32.1408H19.8226V28.2422H0.5V32.1408ZM15.9107 48H19.8325V34.6449H15.9107V48ZM13.3818 17.9019V11.7055L1.96204 25.7381H7.01009L13.3818 17.9018V17.9019ZM22.9245 0L22.3419 0.716924V6.91333L25.9774 2.44526L22.9245 8.4629e-05V0ZM28.7826 28.2421V32.1407H35.5V28.2421H28.7826ZM26.2636 6.0688L22.3417 10.8805V41.5973H26.2636V6.06888V6.0688ZM15.9107 25.738H19.8325V3.8005L15.9107 8.61216V25.7381V25.738Z" fill="#192D48"/>
</g>
<defs>
<clipPath id="clip0_145_1411">
<rect width="35" height="48" fill="white" transform="translate(0.5)"/>
</clipPath>
</defs>
</svg>
