<svg width="19" height="19" viewBox="0 0 19 19" fill="none" xmlns="http://www.w3.org/2000/svg">
<path d="M0.609375 9.45142C0.609375 4.4367 4.66383 0.34668 9.71411 0.34668C14.7288 0.34668 18.8188 4.4367 18.8188 9.45142C18.8188 14.5017 14.7288 18.5562 9.71411 18.5562C4.66383 18.5562 0.609375 14.5017 0.609375 9.45142ZM13.8041 7.88654C14.1953 7.49532 14.1953 6.89071 13.8041 6.49949C13.4129 6.10827 12.8083 6.10827 12.4171 6.49949L8.57602 10.3406L6.97558 8.77567C6.58436 8.38445 5.97975 8.38445 5.58853 8.77567C5.19731 9.16689 5.19731 9.7715 5.58853 10.1627L7.86471 12.4389C8.25593 12.8301 8.86054 12.8301 9.25176 12.4389L13.8041 7.88654Z" fill="#0B487F"/>
</svg>
