<svg width="30" height="30" viewBox="0 0 30 30" fill="none" xmlns="http://www.w3.org/2000/svg">
<path d="M15.4404 0.625C23.4268 0.625 29.9404 7.13867 29.9404 15.125C29.9404 23.168 23.4268 29.625 15.4404 29.625C7.39746 29.625 0.94043 23.168 0.94043 15.125C0.94043 7.13867 7.39746 0.625 15.4404 0.625ZM22.6338 18.8633C22.7471 18.4668 22.5205 18.0137 22.124 17.8438L19.0654 16.541C18.6689 16.3711 18.2725 16.4844 18.0459 16.7676L16.7998 18.2969C14.8174 17.334 13.2314 15.748 12.2686 13.7656L13.7979 12.5195C14.0811 12.293 14.1943 11.8965 14.0244 11.5L12.7217 8.44141C12.5518 8.04492 12.0986 7.81836 11.7021 7.93164L8.87012 8.55469C8.47363 8.66797 8.19043 9.00781 8.19043 9.46094C8.19043 16.5977 13.9678 22.375 21.1045 22.375C21.5576 22.375 21.8975 22.1484 21.9541 21.6953L22.6338 18.8633Z" fill="#15B1D7"/>
</svg>
