<svg width="24" height="24" viewBox="0 0 24 24" fill="none" xmlns="http://www.w3.org/2000/svg">
<path d="M7.10157 5.65967H5.27344V7.12217H7.10157V5.65967Z" fill="#15B1D7"/>
<path d="M23.0079 14.4345V12.972H19.922L19.3516 10.6028C19.3116 10.4405 19.2172 10.2969 19.0842 10.1958C18.9511 10.0946 18.7874 10.0421 18.6204 10.047H17.1579V7.85325H15.6954V10.047H13.5016C13.3077 10.047 13.1217 10.1241 12.9845 10.2612C12.8474 10.3983 12.7704 10.5843 12.7704 10.7783V12.972H8.74847V9.31576H10.5766V7.85325H9.61135L10.1013 4.92824H11.3079V3.46573H6.92034V1.27197H5.45783V3.46573H1.07031V4.92824H2.27688L2.76682 7.85325H1.80157V9.31576H3.6297V21.7471H1.07031V23.2096H23.0079V21.7471H21.5454V14.4345H23.0079ZM14.2329 11.5095H18.05L18.4156 12.972H14.2329V11.5095ZM3.76132 4.92824H8.61685L8.12691 7.85325H4.25126L3.76132 4.92824ZM7.28597 9.31576V11.5095H5.09221V9.31576H7.28597ZM5.09221 12.972H7.28597V21.7471H5.09221V12.972ZM13.6844 19.5533V21.7471H12.5876V19.5533H13.6844ZM16.2438 19.5533V21.7471H15.1469V19.5533H16.2438ZM20.0829 21.7471H17.7063V19.5533H18.4376V18.0908H10.3938V19.5533H11.125V21.7471H8.74847V14.4345H20.0829V21.7471Z" fill="#15B1D7"/>
</svg>
