<svg width="17" height="14" viewBox="0 0 17 14" fill="none" xmlns="http://www.w3.org/2000/svg">
<path d="M15.4062 0.75C16.2695 0.75 17 1.48047 17 2.34375C17 2.875 16.7344 3.33984 16.3359 3.63867L9.13086 9.05078C8.73242 9.34961 8.23438 9.34961 7.83594 9.05078L0.630859 3.63867C0.232422 3.33984 0 2.875 0 2.34375C0 1.48047 0.697266 0.75 1.59375 0.75H15.4062ZM7.20508 9.91406C7.96875 10.4785 8.99805 10.4785 9.76172 9.91406L17 4.46875V11.375C17 12.5703 16.0371 13.5 14.875 13.5H2.125C0.929688 13.5 0 12.5703 0 11.375V4.46875L7.20508 9.91406Z" fill="#15B1D7"/>
</svg>
