<svg width="140" height="251" viewBox="0 0 140 251" fill="none" xmlns="http://www.w3.org/2000/svg">
<path d="M117.461 85.6935C121.746 82.9332 124.891 78.7477 126.319 73.908C130.252 60.57 121.593 47.3173 108.742 45.9788C108.715 45.9759 98.0342 44.8728 98.0342 44.8728L92.7408 38.0804L88.352 37.6233L89.6363 25.2938L128.363 29.3278L129.006 23.1631L45.6237 14.4777L44.9816 20.6424L83.7087 24.6764L82.4244 37.0058L76.4968 36.3884L75.8546 42.5531L51.6488 40.0317C51.0037 32.8624 45.5682 26.9351 38.4118 26.1897L35.448 25.881L33.4664 44.9053C29.8842 45.8184 27.0493 48.9864 26.6308 53.0048C26.0997 58.1036 29.6563 62.6673 34.559 63.178C37.9033 63.5264 41.0223 61.8993 42.8363 59.212L67.5605 66.1694C67.6704 73.67 71.5604 80.4019 77.5103 84.1828L76.6451 92.4883L68.9813 91.69L64.4698 85.901L59.8243 89.8235L65.8838 97.5988L115.958 102.815L123.49 96.4551L119.752 91.6594L114.144 96.3944L106.481 95.5961L107.156 89.1141C110.794 88.8639 114.357 87.6934 117.461 85.6935ZM121.237 65.9753L114.788 65.3036L112.262 53.3242C117.238 55.4636 120.724 60.2896 121.237 65.9753ZM105.874 51.9118L108.537 64.6524L102.936 64.069L100.279 51.329L105.874 51.9118ZM35.2011 57.0135C33.5669 56.8433 32.3813 55.322 32.5584 53.6224C32.7354 51.9228 34.209 50.6786 35.8432 50.8488C37.4775 51.019 38.663 52.5402 38.486 54.2399C38.3089 55.9395 36.8353 57.1837 35.2011 57.0135ZM100.553 94.9789L82.5727 93.1059L83.2406 86.6944C84.2552 86.9634 85.3018 87.1586 86.3763 87.2705L101.195 88.8141L100.553 94.9789ZM104.115 82.8866L87.0184 81.1058C78.7381 80.2433 72.7219 72.6279 73.6071 64.1298L73.8794 61.5158L44.4436 53.2325C44.2273 49.8698 42.2574 46.9315 39.394 45.5229L40.6785 33.1914C43.996 34.823 46.1165 38.5091 45.6979 42.5279L45.3768 45.6102L81.1401 49.3355L81.7822 43.1707L89.6436 43.9896L93.714 49.2126L98.022 69.7867L120.618 72.1404C118.548 79.1468 111.609 83.6673 104.115 82.8866Z" fill="#15B1D7"/>
<path d="M86.3263 107.94C86.3283 119.474 77.9217 132.079 69.9943 137.776" stroke="#15B1D7" stroke-width="8"/>
<path d="M86.4145 165.475C88.8584 168.37 88.4764 172.888 85.581 175.332C83.7992 176.836 81.4882 177.261 79.358 176.771L40.8093 167.927C38.6792 167.436 37.2692 165.766 37.1435 163.584L34.8983 124.097C34.7726 121.915 35.6737 119.819 37.4555 118.315C40.3509 115.872 44.7747 116.142 47.3125 119.149L86.4145 165.475ZM32.4623 163.912C32.731 168.071 35.6449 171.523 39.6999 172.486L78.4539 181.348L55.291 200.899C51.282 204.282 45.438 203.685 42.1482 199.787L6.05408 157.025C2.67025 153.016 3.15648 147.266 7.16546 143.882L30.3284 124.331L32.4623 163.912Z" fill="#15B1D7"/>
<ellipse cx="76.0785" cy="243.394" rx="55.891" ry="6.98637" fill="#15B1D7"/>
</svg>
