<svg width="24" height="24" viewBox="0 0 24 24" fill="none" xmlns="http://www.w3.org/2000/svg">
<path d="M22.1164 17.2417C23.0544 16.5181 23.6903 15.4996 23.9069 14.3739C24.504 11.2715 22.1478 8.48441 19.0991 8.48441C19.0926 8.48441 16.559 8.48652 16.559 8.48652L15.1507 7.07815H14.1095V4.26563H23.297V2.85938H3.51565V4.26563H12.7032V7.07815H11.2969V8.48441H5.55439C5.22772 6.8817 3.80716 5.67189 2.10939 5.67189H1.40626V10.0116C0.587863 10.3019 0 11.0834 0 12.0001C0 13.1632 0.946271 14.1094 2.10939 14.1094C2.9028 14.1094 3.59501 13.669 3.95505 13.0199L9.92771 14.0088C10.1369 15.6988 11.2144 17.1265 12.7032 17.8399V19.7345H10.885L9.68471 18.5341L8.69035 19.5285L10.3025 21.1407H22.182L23.7942 19.5285L22.7998 18.5341L21.5995 19.7345H19.7814V18.2558C20.6292 18.1139 21.4368 17.7659 22.1164 17.2417ZM22.5203 12.7032H20.9905L20.1049 10.0593C21.325 10.4251 22.261 11.4322 22.5203 12.7032ZM18.571 9.89071L19.5074 12.7032H18.1787L17.2436 9.89071H18.571ZM2.10939 12.7032C1.72168 12.7032 1.40626 12.3878 1.40626 12.0001C1.40626 11.6124 1.72168 11.297 2.10939 11.297C2.49709 11.297 2.81252 11.6124 2.81252 12.0001C2.81252 12.3878 2.49709 12.7032 2.10939 12.7032ZM18.3751 19.7345H14.1095V18.272C14.3541 18.3088 14.6046 18.3283 14.8595 18.3283H18.3751V19.7345ZM18.9153 16.922H14.8595C12.8951 16.922 11.2969 15.3449 11.2969 13.4064V12.8101L4.1861 11.6327C4.05312 10.879 3.51897 10.2622 2.81252 10.0117V7.19867C3.63101 7.48887 4.21877 8.27084 4.21877 9.18758V9.89071H12.7032V8.48445H14.5682L15.6512 9.56741L17.1652 14.109H22.5258C22.2114 15.7388 20.6933 16.922 18.9153 16.922Z" fill="#1FB6DE"/>
</svg>
