<svg width="52" height="52" viewBox="0 0 52 52" fill="none" xmlns="http://www.w3.org/2000/svg">
<g clip-path="url(#clip0_17_2037)">
<path d="M47.9373 36.793C49.9382 35.2494 51.2946 33.077 51.7568 30.6757C53.0304 24.0581 48.0043 18.1129 41.5012 18.1129C41.4874 18.1129 36.083 18.1174 36.083 18.1174L33.0788 15.1133H30.8579V9.11393H50.4557V6.11426H8.2604V9.11393H27.8582V15.1133H24.8586V18.1129H12.6092C11.9124 14.6942 8.88223 12.1136 5.26073 12.1136H3.7609V21.3706C2.01519 21.9897 0.76123 23.6568 0.76123 25.6121C0.76123 28.0931 2.77971 30.1116 5.26073 30.1116C6.95314 30.1116 8.42968 29.172 9.1977 27.7875L21.9379 29.8968C22.384 33.5018 24.6825 36.5473 27.8582 38.0689V42.1103H23.98L21.4195 39.5499L19.2985 41.6709L22.7374 45.1098H48.0773L51.5162 41.6709L49.3951 39.5499L46.8347 42.1103H42.9566V38.9562C44.765 38.6534 46.4877 37.9112 47.9373 36.793ZM48.799 27.112H45.5357L43.6466 21.4723C46.2492 22.2526 48.2459 24.4008 48.799 27.112ZM40.3747 21.1127L42.3722 27.112H39.538L37.5434 21.1127H40.3747ZM5.26073 27.112C4.43372 27.112 3.7609 26.4392 3.7609 25.6122C3.7609 24.7852 4.43372 24.1124 5.26073 24.1124C6.08774 24.1124 6.76057 24.7852 6.76057 25.6122C6.76057 26.4392 6.08774 27.112 5.26073 27.112ZM39.9569 42.1104H30.8579V38.9906C31.3798 39.0692 31.914 39.1107 32.4577 39.1107H39.9569V42.1104ZM41.1093 36.111H32.4577C28.2675 36.111 24.8586 32.7469 24.8586 28.6119V27.3399L9.69054 24.8286C9.40687 23.2208 8.2675 21.9051 6.76057 21.3707V15.3703C8.50647 15.9894 9.76023 17.6574 9.76023 19.6129V21.1127H27.8582V18.113H31.8365L34.1465 20.4231L37.3761 30.1107H48.8107C48.1401 33.5871 44.9017 36.111 41.1093 36.111Z" fill="#102039"/>
</g>
<defs>
<clipPath id="clip0_17_2037">
<rect width="51.194" height="51.194" fill="white" transform="translate(0.76123 0.0146484)"/>
</clipPath>
</defs>
</svg>
