<svg width="84" height="41" viewBox="0 0 84 41" fill="none" xmlns="http://www.w3.org/2000/svg">
<g clip-path="url(#clip0_145_1405)">
<path d="M0.5 5.38847C0.5 2.41931 2.61678 0 6.03333 0C9.63557 0 11.5481 2.54761 11.5481 5.51676C11.5481 8.7975 9.11566 10.7953 6.0519 10.7953C2.72819 10.7953 0.5 8.55923 0.5 5.38847Z" fill="#18ADB7"/>
<path d="M0.537109 15.2857C0.537109 14.7909 0.815633 14.4243 1.39125 14.4243H10.7125C11.2138 14.4243 11.5295 14.8092 11.5295 15.2857V29.3984C11.5295 31.7994 12.9221 34.6036 17.2114 34.6036C21.3892 34.6036 23.5432 32.0376 23.5432 26.8141V25.7144L27.981 34.0354L28.5566 36.8579C28.5566 36.8579 24.2116 41.0001 16.3387 41.0001C12.4208 41.0001 0.555678 40.3586 0.555678 27.5472V15.2857H0.537109Z" fill="#18ADB7"/>
<path d="M57.2257 25.4025L50.9682 22.3234C50.9682 22.3234 52.1566 24.2479 52.1566 26.6855C52.1566 31.4691 48.2759 34.5483 42.7611 34.5483C36.7264 34.5483 34.3868 30.901 34.3868 26.1357V24.1562C34.3868 24.1012 34.3868 24.0646 34.3868 24.0096V20.6189C34.3868 20.6189 35.9094 21.1871 37.3949 21.1871H43.0767C43.6338 21.1871 43.838 20.8205 43.838 20.344V15.3404C43.838 14.7722 43.5967 14.424 42.9839 14.424H34.4054V6.04805C34.4054 4.65511 33.8669 2.78564 29.0392 2.78564C24.6014 2.78564 23.543 4.19691 23.543 5.80978V26.0257C23.543 33.082 28.5378 36.8576 28.5378 36.8576C28.5378 36.8576 32.7157 40.9631 41.8698 40.9631C53.6049 40.9631 57.7642 32.8987 57.7642 32.8987L57.2257 25.4025Z" fill="#1D2232"/>
<path d="M82.8133 15.579L78.0598 14.1311C77.2985 13.9295 76.7786 14.0944 76.593 14.7359C76.593 14.7359 73.7892 24.1565 69.3885 32.056C62.4625 19.4829 59.7516 15.5607 59.7516 15.5607C59.0831 14.461 58.1361 13.9111 57.0592 13.9111C55.4437 13.9111 53.4569 14.6992 52.8999 15.0475C50.3375 16.6237 49.5947 17.6684 49.5762 19.098C49.5762 20.0694 49.9104 20.5642 50.356 21.389L57.7462 32.8991L61.3113 38.2142C62.444 39.8821 63.5766 40.9634 66.8075 40.9634C70.8182 40.9634 72.0437 39.4789 73.2321 37.7377C73.2321 37.7377 79.4153 28.3903 83.3704 17.0452C83.686 16.0189 83.3889 15.7806 82.8133 15.579Z" fill="#6E7D81"/>
</g>
<defs>
<clipPath id="clip0_145_1405">
<rect width="83" height="41" fill="white" transform="translate(0.5)"/>
</clipPath>
</defs>
</svg>
