<svg width="154" height="47" viewBox="0 0 154 47" fill="none" xmlns="http://www.w3.org/2000/svg">
<path fill-rule="evenodd" clip-rule="evenodd" d="M34.0628 5.6602C34.0628 5.6602 28.3558 -0.861979 16.3022 1.98877C4.24862 4.83953 0.582037 12.5147 0.582031 17.7034C0.582025 22.8922 2.67379 30.0909 12.1179 30.0909C15.1738 30.0909 17.6768 29.0703 20.1819 27.4663V27.5536H25.7379V23.3097C27.4805 21.9273 29.3782 20.4388 31.5662 18.9507V27.5536H37.1495V15.5886C38.3492 14.9577 39.6261 14.343 40.9918 13.7534C63.6105 3.99016 80.5318 12.6638 80.5318 12.6638C80.5318 12.6638 66.6913 5.15159 48.2612 8.91332C43.4077 9.90396 38.9606 11.3381 34.9561 12.917H31.5662V14.3279C29.4807 15.2404 27.5358 16.1707 25.7379 17.0672V12.917H20.1819V19.9193C16.7472 21.6955 14.1704 22.956 12.5336 23.0217C7.80635 23.2114 5.81369 20.7507 5.81369 17.7034C5.81369 14.6562 6.96424 7.21561 16.8696 4.26707C26.775 1.31853 34.0628 5.6602 34.0628 5.6602ZM123.365 14.0685V9.61845L117.864 11.1288V14.0685H115.63V17.8174H117.864V23.2383C117.864 24.3531 118.072 25.2431 118.49 25.9084C118.926 26.5736 119.543 27.0591 120.342 27.3648C121.159 27.6704 122.149 27.8232 123.311 27.8232C124.019 27.8232 124.745 27.7333 125.49 27.5535C126.234 27.3917 126.824 27.158 127.26 26.8523L126.906 23.6699C126.652 23.8317 126.379 23.9485 126.089 24.0205C125.798 24.0924 125.453 24.1283 125.054 24.1283C124.491 24.1283 124.064 23.9935 123.774 23.7238C123.501 23.4541 123.365 23.0046 123.365 22.3753V17.8174H127.069V14.0685H123.365ZM134.977 27.8232C133.416 27.8232 132.063 27.5535 130.919 27.0141C129.793 26.4568 128.922 25.6566 128.305 24.6138C127.705 23.571 127.406 22.3034 127.406 20.811C127.406 19.3187 127.714 18.0511 128.332 17.0082C128.949 15.9654 129.812 15.1743 130.919 14.6349C132.027 14.0775 133.307 13.7988 134.759 13.7988C136.248 13.7988 137.51 14.0775 138.545 14.6349C139.598 15.1743 140.397 15.9294 140.942 16.9004C141.505 17.8713 141.786 19.004 141.786 20.2986C141.786 20.6043 141.768 20.9099 141.732 21.2156C141.713 21.5212 141.686 21.7819 141.65 21.9977H132.702C132.747 22.3287 132.816 22.6164 132.907 22.8607C133.107 23.3282 133.379 23.6519 133.724 23.8317C134.069 24.0115 134.505 24.1014 135.032 24.1014C135.613 24.1014 136.067 23.9845 136.393 23.7508C136.72 23.517 136.956 23.1934 137.102 22.7798L141.514 24.0744C141.296 24.9015 140.851 25.5937 140.179 26.1511C139.525 26.7085 138.745 27.131 137.837 27.4187C136.929 27.6884 135.976 27.8232 134.977 27.8232ZM132.853 18.8962C132.791 19.1098 132.743 19.3525 132.707 19.6243H136.583C136.517 19.0793 136.39 18.6388 136.203 18.3028C135.93 17.7634 135.449 17.4937 134.759 17.4937C134.287 17.4937 133.888 17.6016 133.561 17.8173C133.252 18.0331 133.016 18.3927 132.853 18.8962ZM142.986 14.0685H147.916L148.079 17.224C148.388 16.1632 148.869 15.3271 149.523 14.7158C150.195 14.1045 151.066 13.7988 152.137 13.7988C152.519 13.7988 152.827 13.8348 153.063 13.9067C153.299 13.9606 153.472 14.0326 153.581 14.1225L153.091 18.5455C152.909 18.4736 152.673 18.4107 152.383 18.3568C152.092 18.3028 151.756 18.2758 151.375 18.2758C150.83 18.2758 150.34 18.3747 149.904 18.5725C149.468 18.7703 149.123 19.067 148.869 19.4625C148.615 19.8401 148.488 20.3256 148.488 20.9189V27.5535H142.986V14.0685ZM100.542 33.2173V14.0685H105.526L105.663 16.8142C105.744 16.6205 105.835 16.4335 105.935 16.2531C106.352 15.4979 106.906 14.9046 107.596 14.4731C108.304 14.0236 109.121 13.7988 110.047 13.7988C111.173 13.7988 112.135 14.0775 112.934 14.6349C113.733 15.1743 114.341 15.9654 114.759 17.0082C115.195 18.0331 115.412 19.2827 115.412 20.7571C115.412 22.2314 115.195 23.499 114.759 24.5599C114.323 25.6207 113.697 26.4298 112.88 26.9872C112.081 27.5445 111.127 27.8232 110.02 27.8232C108.731 27.8232 107.714 27.4277 106.97 26.6366C106.592 26.2163 106.284 25.7426 106.044 25.2156V33.2173H100.542ZM107.923 23.9126C108.54 23.9126 109.021 23.6878 109.366 23.2383C109.711 22.7708 109.884 21.9617 109.884 20.811C109.884 19.6603 109.711 18.8512 109.366 18.3837C109.021 17.9162 108.549 17.6825 107.95 17.6825C107.569 17.6825 107.233 17.7994 106.942 18.0331C106.652 18.2668 106.425 18.6175 106.261 19.0849C106.116 19.5344 106.044 20.1098 106.044 20.811C106.044 21.4763 106.107 22.0427 106.234 22.5101C106.379 22.9776 106.597 23.3282 106.888 23.562C107.178 23.7957 107.523 23.9126 107.923 23.9126ZM95.7852 14.6349C94.6777 14.0775 93.3794 13.7988 91.8906 13.7988C90.438 13.7988 89.1489 14.0775 88.0232 14.6349C86.9156 15.1743 86.0441 15.9654 85.4086 17.0082C84.7913 18.0511 84.4826 19.3187 84.4826 20.811C84.4826 22.2854 84.7913 23.553 85.4086 24.6138C86.0441 25.6566 86.9156 26.4568 88.0232 27.0141C89.1489 27.5535 90.438 27.8232 91.8906 27.8232C93.3794 27.8232 94.6777 27.5535 95.7852 27.0141C96.8928 26.4568 97.7552 25.6566 98.3726 24.6138C98.9899 23.553 99.2986 22.2854 99.2986 20.811C99.2986 19.3187 98.9899 18.0511 98.3726 17.0082C97.7552 15.9654 96.8928 15.1743 95.7852 14.6349ZM90.8557 17.8443C91.1462 17.6465 91.4911 17.5476 91.8906 17.5476C92.3082 17.5476 92.6532 17.6465 92.9255 17.8443C93.1979 18.0421 93.4067 18.3837 93.5519 18.8692C93.6972 19.3546 93.7698 20.0019 93.7698 20.811C93.7698 21.6201 93.6972 22.2674 93.5519 22.7529C93.4067 23.2204 93.1979 23.562 92.9255 23.7777C92.6532 23.9755 92.3082 24.0744 91.8906 24.0744C91.4911 24.0744 91.1462 23.9755 90.8557 23.7777C90.5833 23.562 90.3745 23.2204 90.2292 22.7529C90.084 22.2674 90.0114 21.6201 90.0114 20.811C90.0114 20.0019 90.084 19.3546 90.2292 18.8692C90.3745 18.3837 90.5833 18.0421 90.8557 17.8443ZM77.1745 13.7988C78.6996 13.7988 79.9525 14.0146 80.9329 14.4461C81.9315 14.8596 82.6851 15.408 83.1934 16.0913C83.7018 16.7565 83.9923 17.4577 84.065 18.1949L78.972 19.7322C78.9175 18.995 78.7632 18.4466 78.509 18.087C78.2729 17.7274 77.8917 17.5476 77.3651 17.5476C76.9112 17.5476 76.5299 17.6555 76.2212 17.8713C75.9126 18.087 75.6856 18.4377 75.5403 18.9231C75.3951 19.4086 75.3225 20.0559 75.3225 20.865C75.3225 21.692 75.4042 22.3393 75.5676 22.8068C75.7492 23.2743 75.9943 23.6069 76.3029 23.8047C76.6298 23.9845 76.9929 24.0744 77.3923 24.0744C77.7555 24.0744 78.046 24.0025 78.2639 23.8586C78.4999 23.6968 78.6906 23.4721 78.8358 23.1844C78.9811 22.8787 79.0718 22.5191 79.1082 22.1056L84.0377 23.6429C83.9651 24.416 83.6474 25.1172 83.0845 25.7465C82.5398 26.3758 81.7863 26.8793 80.824 27.2569C79.8617 27.6344 78.7269 27.8232 77.4196 27.8232C75.8581 27.8232 74.5054 27.5535 73.3615 27.0141C72.2176 26.4568 71.337 25.6566 70.7197 24.6138C70.1024 23.571 69.7937 22.3034 69.7937 20.811C69.7937 19.3187 70.1024 18.0511 70.7197 17.0082C71.337 15.9654 72.1995 15.1743 73.3071 14.6349C74.4146 14.0775 75.7038 13.7988 77.1745 13.7988ZM63.426 14.7673C63.9162 15.1449 64.706 15.3337 65.7954 15.3337C66.8848 15.3337 67.6656 15.1449 68.1377 14.7673C68.6279 14.3897 68.873 13.7784 68.873 12.9333C68.873 12.0703 68.6279 11.45 68.1377 11.0724C67.6656 10.6948 66.8848 10.506 65.7954 10.506C64.706 10.506 63.9162 10.6948 63.426 11.0724C62.9539 11.45 62.7178 12.0703 62.7178 12.9333C62.7178 13.7784 62.9539 14.3897 63.426 14.7673ZM68.5462 27.5536V15.8876C66.6395 16.5991 65.1619 16.7177 63.0447 15.8876V27.5536H68.5462ZM59.7607 10.94V22.5371C59.7607 23.1125 59.8515 23.526 60.033 23.7777C60.2146 24.0295 60.4143 24.1823 60.8683 24.1823C61.0861 24.1823 61.2768 24.1733 61.4402 24.1553C61.6218 24.1194 61.8124 24.0654 62.0121 23.9935V26.9463C61.6853 27.1801 61.0407 27.4636 60.4416 27.6075C59.8606 27.7513 59.2795 27.8232 58.6985 27.8232C57.1189 27.8232 55.9841 27.4816 55.2941 26.7984C54.6042 26.0972 54.2592 24.9374 54.2592 23.3192V11.6755C55.9371 11.0823 57.7569 10.94 59.7607 10.94ZM42.219 27.0142C43.3629 27.5536 44.7156 27.8233 46.2771 27.8233C47.2757 27.8233 48.2289 27.6884 49.1368 27.4187C50.0446 27.131 50.8254 26.7085 51.479 26.1511C52.1508 25.5937 52.5956 24.9015 52.8135 24.0744L48.4014 22.7799C48.2562 23.1934 48.0201 23.517 47.6933 23.7508C47.3665 23.9845 46.9126 24.1014 46.3315 24.1014C45.805 24.1014 45.3692 24.0115 45.0243 23.8317C44.6793 23.6519 44.4069 23.3283 44.2072 22.8608C44.1158 22.6164 44.0474 22.3287 44.002 21.9977H52.9497C52.986 21.782 53.0133 21.5213 53.0314 21.2156C53.0677 20.9099 53.0859 20.6043 53.0859 20.2986C53.0859 19.0041 52.8045 17.8713 52.2416 16.9004C51.6969 15.9295 50.898 15.1743 49.8449 14.6349C48.81 14.0775 47.5481 13.7988 46.0592 13.7988C44.6067 13.7988 43.3266 14.0775 42.219 14.6349C41.1115 15.1743 40.249 15.9654 39.6317 17.0083C39.0144 18.0511 38.7057 19.3187 38.7057 20.811C38.7057 22.3034 39.0053 23.571 39.6045 24.6138C40.2218 25.6567 41.0933 26.4568 42.219 27.0142ZM44.0071 19.6244H47.8833C47.8167 19.0793 47.6899 18.6388 47.5027 18.3028C47.2303 17.7634 46.7492 17.4937 46.0592 17.4937C45.5871 17.4937 45.1877 17.6016 44.8608 17.8174C44.5522 18.0331 44.3161 18.3927 44.1527 18.8962C44.0911 19.1098 44.0425 19.3525 44.0071 19.6244Z" fill="url(#paint0_linear_203_5133)"/>
<path fill-rule="evenodd" clip-rule="evenodd" d="M34.0723 5.66484C34.0723 5.66484 28.3936 -0.869186 16.34 1.98157C4.28635 4.83232 0.582037 12.5147 0.582031 17.7034C0.582026 22.8922 2.67379 30.0909 12.1179 30.0909C15.1738 30.0909 17.6768 29.0703 20.1819 27.4663V27.5536H25.7379V23.3097C27.4805 21.9273 29.3782 20.4388 31.5662 18.9507V27.5536H37.1495V15.5886C38.3492 14.9577 39.6261 14.343 40.9918 13.7534C63.6105 3.99016 80.5241 12.66 80.5241 12.66C80.5241 12.66 66.6913 5.15159 48.2612 8.91332C44.2767 9.72659 40.5661 10.8388 37.1495 12.0845V11.3351H31.5662V14.3279C29.4807 15.2404 27.5358 16.1707 25.7379 17.0673V12.1261H20.1819V19.9194C16.7472 21.6955 14.1704 22.956 12.5336 23.0217C7.80635 23.2114 5.81369 20.7507 5.81369 17.7034C5.81369 14.6562 7.00197 7.2084 16.9074 4.25986C26.8128 1.31132 34.0723 5.66484 34.0723 5.66484ZM123.365 14.0685V9.61845L117.864 11.1288V14.0685H115.63V17.8173H117.864V23.2383C117.864 24.3531 118.072 25.2431 118.49 25.9084C118.926 26.5736 119.543 27.0591 120.342 27.3647C121.159 27.6704 122.149 27.8232 123.311 27.8232C124.019 27.8232 124.745 27.7333 125.49 27.5535C126.234 27.3917 126.824 27.158 127.26 26.8523L126.906 23.6698C126.652 23.8317 126.379 23.9485 126.089 24.0205C125.798 24.0924 125.453 24.1283 125.054 24.1283C124.491 24.1283 124.064 23.9935 123.774 23.7238C123.501 23.4541 123.365 23.0046 123.365 22.3753V17.8173H127.069V14.0685H123.365ZM134.977 27.8232C133.416 27.8232 132.063 27.5535 130.919 27.0141C129.793 26.4568 128.922 25.6566 128.305 24.6138C127.705 23.571 127.406 22.3034 127.406 20.811C127.406 19.3187 127.714 18.0511 128.332 17.0082C128.949 15.9654 129.812 15.1743 130.919 14.6349C132.027 14.0775 133.307 13.7988 134.759 13.7988C136.248 13.7988 137.51 14.0775 138.545 14.6349C139.598 15.1743 140.397 15.9294 140.942 16.9004C141.505 17.8713 141.786 19.004 141.786 20.2986C141.786 20.6043 141.768 20.9099 141.732 21.2156C141.713 21.5212 141.686 21.7819 141.65 21.9977H132.702C132.747 22.3287 132.816 22.6164 132.907 22.8607C133.107 23.3282 133.379 23.6519 133.724 23.8317C134.069 24.0115 134.505 24.1014 135.032 24.1014C135.613 24.1014 136.067 23.9845 136.393 23.7508C136.72 23.517 136.956 23.1934 137.102 22.7798L141.514 24.0744C141.296 24.9015 140.851 25.5937 140.179 26.1511C139.525 26.7085 138.745 27.131 137.837 27.4187C136.929 27.6884 135.976 27.8232 134.977 27.8232ZM132.853 18.8961C132.791 19.1097 132.743 19.3525 132.707 19.6243H136.583C136.517 19.0793 136.39 18.6388 136.203 18.3028C135.93 17.7634 135.449 17.4937 134.759 17.4937C134.287 17.4937 133.888 17.6016 133.561 17.8173C133.252 18.0331 133.016 18.3927 132.853 18.8961ZM142.986 14.0685H147.916L148.079 17.224C148.388 16.1632 148.869 15.3271 149.523 14.7158C150.195 14.1045 151.066 13.7988 152.137 13.7988C152.519 13.7988 152.827 13.8348 153.063 13.9067C153.299 13.9606 153.472 14.0325 153.581 14.1224L153.091 18.5455C152.909 18.4736 152.673 18.4107 152.383 18.3567C152.092 18.3028 151.756 18.2758 151.375 18.2758C150.83 18.2758 150.34 18.3747 149.904 18.5725C149.468 18.7703 149.123 19.067 148.869 19.4625C148.615 19.8401 148.488 20.3256 148.488 20.9189V27.5535H142.986V14.0685ZM100.542 33.2172V14.0685H105.526L105.663 16.8142C105.744 16.6205 105.835 16.4335 105.935 16.2531C106.352 15.4979 106.906 14.9046 107.596 14.4731C108.304 14.0236 109.121 13.7988 110.047 13.7988C111.173 13.7988 112.135 14.0775 112.934 14.6349C113.733 15.1743 114.341 15.9654 114.759 17.0082C115.195 18.0331 115.412 19.2827 115.412 20.7571C115.412 22.2314 115.195 23.499 114.759 24.5599C114.323 25.6207 113.697 26.4298 112.88 26.9872C112.081 27.5445 111.127 27.8232 110.02 27.8232C108.731 27.8232 107.714 27.4277 106.97 26.6366C106.592 26.2163 106.284 25.7426 106.044 25.2156V33.2172H100.542ZM107.923 23.9126C108.54 23.9126 109.021 23.6878 109.366 23.2383C109.711 22.7708 109.884 21.9617 109.884 20.811C109.884 19.6603 109.711 18.8512 109.366 18.3837C109.021 17.9162 108.549 17.6825 107.95 17.6825C107.569 17.6825 107.233 17.7994 106.942 18.0331C106.652 18.2668 106.425 18.6175 106.261 19.0849C106.116 19.5344 106.044 20.1098 106.044 20.811C106.044 21.4763 106.107 22.0427 106.234 22.5101C106.379 22.9776 106.597 23.3282 106.888 23.562C107.178 23.7957 107.523 23.9126 107.923 23.9126ZM95.7852 14.6349C94.6777 14.0775 93.3794 13.7988 91.8906 13.7988C90.438 13.7988 89.1489 14.0775 88.0232 14.6349C86.9156 15.1743 86.0441 15.9654 85.4086 17.0082C84.7913 18.0511 84.4826 19.3187 84.4826 20.811C84.4826 22.2854 84.7913 23.553 85.4086 24.6138C86.0441 25.6566 86.9156 26.4568 88.0232 27.0141C89.1489 27.5535 90.438 27.8232 91.8906 27.8232C93.3794 27.8232 94.6777 27.5535 95.7852 27.0141C96.8928 26.4568 97.7552 25.6566 98.3726 24.6138C98.9899 23.553 99.2986 22.2854 99.2986 20.811C99.2986 19.3187 98.9899 18.0511 98.3726 17.0082C97.7552 15.9654 96.8928 15.1743 95.7852 14.6349ZM90.8557 17.8443C91.1462 17.6465 91.4911 17.5476 91.8906 17.5476C92.3082 17.5476 92.6532 17.6465 92.9255 17.8443C93.1979 18.0421 93.4067 18.3837 93.5519 18.8692C93.6972 19.3546 93.7698 20.0019 93.7698 20.811C93.7698 21.6201 93.6972 22.2674 93.5519 22.7529C93.4067 23.2203 93.1979 23.562 92.9255 23.7777C92.6532 23.9755 92.3082 24.0744 91.8906 24.0744C91.4911 24.0744 91.1462 23.9755 90.8557 23.7777C90.5833 23.562 90.3745 23.2203 90.2292 22.7529C90.084 22.2674 90.0114 21.6201 90.0114 20.811C90.0114 20.0019 90.084 19.3546 90.2292 18.8692C90.3745 18.3837 90.5833 18.0421 90.8557 17.8443ZM77.1745 13.7988C78.6996 13.7988 79.9525 14.0146 80.9329 14.4461C81.9315 14.8596 82.6851 15.408 83.1934 16.0913C83.7018 16.7565 83.9923 17.4577 84.065 18.1949L78.972 19.7322C78.9175 18.995 78.7632 18.4466 78.509 18.087C78.2729 17.7274 77.8917 17.5476 77.3651 17.5476C76.9112 17.5476 76.5299 17.6555 76.2212 17.8713C75.9126 18.087 75.6856 18.4377 75.5403 18.9231C75.3951 19.4086 75.3225 20.0559 75.3225 20.865C75.3225 21.692 75.4042 22.3393 75.5676 22.8068C75.7492 23.2743 75.9943 23.6069 76.3029 23.8047C76.6298 23.9845 76.9929 24.0744 77.3923 24.0744C77.7555 24.0744 78.046 24.0025 78.2639 23.8586C78.4999 23.6968 78.6906 23.4721 78.8358 23.1844C78.9811 22.8787 79.0718 22.5191 79.1082 22.1056L84.0377 23.6429C83.9651 24.416 83.6474 25.1172 83.0845 25.7465C82.5398 26.3758 81.7863 26.8793 80.824 27.2569C79.8617 27.6344 78.7269 27.8232 77.4196 27.8232C75.8581 27.8232 74.5054 27.5535 73.3615 27.0141C72.2176 26.4568 71.337 25.6566 70.7197 24.6138C70.1024 23.571 69.7937 22.3034 69.7937 20.811C69.7937 19.3187 70.1024 18.0511 70.7197 17.0082C71.337 15.9654 72.1995 15.1743 73.3071 14.6349C74.4146 14.0775 75.7038 13.7988 77.1745 13.7988ZM63.426 14.7673C63.9162 15.1449 64.706 15.3337 65.7954 15.3337C66.8848 15.3337 67.6656 15.1449 68.1377 14.7673C68.6279 14.3897 68.873 13.7784 68.873 12.9333C68.873 12.0703 68.6279 11.45 68.1377 11.0724C67.6656 10.6948 66.8848 10.506 65.7954 10.506C64.706 10.506 63.9162 10.6948 63.426 11.0724C62.9539 11.45 62.7178 12.0703 62.7178 12.9333C62.7178 13.7784 62.9539 14.3897 63.426 14.7673ZM68.5462 27.5536V15.8876C66.6395 16.599 65.1619 16.7177 63.0447 15.8876V27.5536H68.5462ZM59.7607 10.9382V22.5371C59.7607 23.1125 59.8515 23.526 60.033 23.7777C60.2146 24.0295 60.4143 24.1823 60.8683 24.1823C61.0861 24.1823 61.2768 24.1733 61.4402 24.1553C61.6218 24.1194 61.8124 24.0654 62.0121 23.9935V26.9463C61.6853 27.1801 61.0407 27.4636 60.4416 27.6075C59.8606 27.7513 59.2795 27.8232 58.6985 27.8232C57.1189 27.8232 55.9841 27.4816 55.2941 26.7984C54.6042 26.0972 54.2592 24.9374 54.2592 23.3192V11.6727C55.9371 11.0796 57.4147 10.9382 59.7607 10.9382ZM42.219 27.0142C43.3629 27.5536 44.7156 27.8233 46.2771 27.8233C47.2757 27.8233 48.2289 27.6884 49.1368 27.4187C50.0446 27.131 50.8254 26.7085 51.479 26.1511C52.1508 25.5937 52.5956 24.9015 52.8135 24.0744L48.4014 22.7799C48.2562 23.1934 48.0201 23.517 47.6933 23.7508C47.3665 23.9845 46.9126 24.1014 46.3315 24.1014C45.805 24.1014 45.3692 24.0115 45.0243 23.8317C44.6793 23.6519 44.4069 23.3282 44.2072 22.8608C44.1158 22.6164 44.0474 22.3287 44.002 21.9977H52.9497C52.986 21.782 53.0133 21.5213 53.0314 21.2156C53.0677 20.9099 53.0859 20.6043 53.0859 20.2986C53.0859 19.004 52.8045 17.8713 52.2416 16.9004C51.6969 15.9295 50.898 15.1743 49.8449 14.6349C48.81 14.0775 47.5481 13.7988 46.0592 13.7988C44.6067 13.7988 43.3266 14.0775 42.219 14.6349C41.1115 15.1743 40.249 15.9654 39.6317 17.0083C39.0144 18.0511 38.7057 19.3187 38.7057 20.811C38.7057 22.3034 39.0053 23.571 39.6045 24.6138C40.2218 25.6567 41.0933 26.4568 42.219 27.0142ZM44.0071 19.6244H47.8833C47.8167 19.0793 47.6899 18.6388 47.5027 18.3028C47.2303 17.7634 46.7492 17.4937 46.0592 17.4937C45.5871 17.4937 45.1877 17.6016 44.8608 17.8174C44.5522 18.0331 44.3161 18.3927 44.1527 18.8962C44.0911 19.1098 44.0425 19.3525 44.0071 19.6244Z" fill="white"/>
<path d="M16.3291 1.98878C28.3828 -0.861974 34.046 5.64023 34.046 5.64023C34.046 5.64023 26.802 1.31854 16.8965 4.26708C6.99114 7.21562 6.0285 14.6562 6.0285 17.7034C6.0285 20.7507 8.29228 23.1919 12.5336 23.0217C16.775 22.8515 29.8312 12.6751 48.2612 8.91332C66.6913 5.15159 80.5507 12.6756 80.5507 12.6756C80.5507 12.6756 63.6105 3.99016 40.9918 13.7534C25.7248 20.3434 21.562 30.0909 12.1179 30.0909C2.6738 30.0909 0.582029 22.8922 0.582034 17.7034C0.58204 12.5147 4.27553 4.83953 16.3291 1.98878Z" fill="url(#paint1_linear_203_5133)"/>
<path d="M25.7379 9.66878V17.0635L20.1819 19.921V9.66878H25.7379Z" fill="url(#paint2_linear_203_5133)"/>
<path d="M25.7379 6.58457V17.0635L20.1819 19.921V7.50372C21.4459 6.58457 24.1642 6.20582 25.7379 6.58457Z" fill="white"/>
<path d="M25.737 23.2911L25.7191 27.5468L20.1881 27.5468L20.1881 27.4611C21.402 26.5411 24.4462 24.3141 25.737 23.2911Z" fill="url(#paint3_linear_203_5133)"/>
<path d="M25.737 23.2911L25.7191 27.5468L20.1881 27.5468L20.1881 27.4611C21.402 26.5411 24.4462 24.3141 25.737 23.2911Z" fill="url(#paint4_linear_203_5133)"/>
<path d="M31.6018 18.9241L29.9056 20.1117L28.186 21.3648L27.1723 16.3581L29.3831 15.3107L31.5686 14.3164L31.6018 18.9241Z" fill="url(#paint5_linear_203_5133)"/>
<path d="M31.6018 18.9241L29.9056 20.1117L28.186 21.3648L27.1723 16.3581L29.3831 15.3107L31.5686 14.3164L31.6018 18.9241Z" fill="url(#paint6_linear_203_5133)"/>
<path d="M37.1495 11.5573V27.5536H31.5663V11.5573H37.1495Z" fill="url(#paint7_linear_203_5133)"/>
<path d="M37.1495 9.96302V27.5536H31.5663V7.22963C33.876 7.57814 35.7533 8.50018 37.1495 9.96302Z" fill="white"/>
<path d="M153.107 41.5542C153.107 42.1381 152.892 42.5869 152.463 42.9004C152.033 43.2104 151.418 43.3654 150.617 43.3654C149.813 43.3654 149.167 43.2447 148.679 43.0032V41.9056C149.389 42.23 150.05 42.3922 150.661 42.3922C151.451 42.3922 151.846 42.1561 151.846 41.684C151.846 41.5326 151.802 41.4064 151.715 41.3055C151.627 41.2046 151.484 41.1 151.283 40.9919C151.083 40.8838 150.805 40.7612 150.448 40.6243C149.753 40.3575 149.282 40.0908 149.034 39.8241C148.79 39.5574 148.668 39.2113 148.668 38.786C148.668 38.2742 148.876 37.8777 149.291 37.5966C149.709 37.3118 150.277 37.1694 150.994 37.1694C151.704 37.1694 152.375 37.3118 153.009 37.5966L152.594 38.5535C151.942 38.2868 151.394 38.1534 150.95 38.1534C150.273 38.1534 149.935 38.3445 149.935 38.7265C149.935 38.914 150.022 39.0726 150.197 39.2023C150.375 39.3321 150.761 39.5105 151.354 39.7376C151.853 39.9286 152.215 40.1034 152.441 40.262C152.667 40.4206 152.834 40.6044 152.943 40.8135C153.052 41.0189 153.107 41.2658 153.107 41.5542Z" fill="#3EBFF7"/>
<path d="M145.245 43.3654C144.306 43.3654 143.571 43.0951 143.039 42.5544C142.511 42.0102 142.248 41.2622 142.248 40.3107C142.248 39.3339 142.493 38.5661 142.985 38.0075C143.476 37.4488 144.151 37.1694 145.01 37.1694C145.807 37.1694 146.437 37.4091 146.899 37.8885C147.362 38.3679 147.593 39.0275 147.593 39.8673V40.554H143.569C143.587 41.1343 143.745 41.5812 144.044 41.8948C144.342 42.2048 144.763 42.3598 145.305 42.3598C145.662 42.3598 145.993 42.3273 146.299 42.2625C146.608 42.194 146.939 42.0822 147.292 41.9273V42.9599C146.979 43.1077 146.663 43.2122 146.342 43.2735C146.022 43.3348 145.656 43.3654 145.245 43.3654ZM145.01 38.1318C144.603 38.1318 144.275 38.2598 144.027 38.5157C143.784 38.7716 143.638 39.1446 143.591 39.6348H146.331C146.324 39.141 146.204 38.768 145.971 38.5157C145.738 38.2598 145.418 38.1318 145.01 38.1318Z" fill="#3EBFF7"/>
<path d="M139.507 43.3654C138.593 43.3654 137.898 43.1023 137.421 42.576C136.948 42.0462 136.711 41.2875 136.711 40.2999C136.711 39.2942 136.959 38.5211 137.454 37.9804C137.952 37.4398 138.671 37.1694 139.61 37.1694C140.247 37.1694 140.821 37.2866 141.33 37.5209L140.943 38.5427C140.4 38.3337 139.953 38.2291 139.6 38.2291C138.555 38.2291 138.033 38.9158 138.033 40.2891C138.033 40.9595 138.162 41.4641 138.42 41.8029C138.682 42.1381 139.064 42.3057 139.567 42.3057C140.138 42.3057 140.679 42.1651 141.188 41.884V42.9924C140.959 43.1257 140.713 43.2212 140.451 43.2789C140.193 43.3366 139.878 43.3654 139.507 43.3654Z" fill="#3EBFF7"/>
<path d="M135.232 43.2573H133.949V37.2775H135.232V43.2573ZM133.872 35.6934C133.872 35.4663 133.934 35.2915 134.058 35.169C134.185 35.0464 134.366 34.9851 134.598 34.9851C134.824 34.9851 134.999 35.0464 135.123 35.169C135.25 35.2915 135.314 35.4663 135.314 35.6934C135.314 35.9097 135.25 36.0809 135.123 36.207C134.999 36.3296 134.824 36.3909 134.598 36.3909C134.366 36.3909 134.185 36.3296 134.058 36.207C133.934 36.0809 133.872 35.9097 133.872 35.6934Z" fill="#3EBFF7"/>
<path d="M129.341 43.2573L127.047 37.2776H128.402L129.63 40.754C129.841 41.3379 129.968 41.8101 130.012 42.1705H130.056C130.089 41.911 130.216 41.4388 130.438 40.754L131.666 37.2776H133.031L130.727 43.2573H129.341Z" fill="#3EBFF7"/>
<path d="M126.201 37.1694C126.46 37.1694 126.673 37.1875 126.84 37.2235L126.714 38.4075C126.532 38.3643 126.343 38.3427 126.147 38.3427C125.633 38.3427 125.217 38.5085 124.896 38.8401C124.58 39.1717 124.421 39.6024 124.421 40.1323V43.2573H123.138V37.2776H124.143L124.312 38.3319H124.378C124.578 37.975 124.838 37.6921 125.158 37.483C125.482 37.274 125.83 37.1694 126.201 37.1694Z" fill="#3EBFF7"/>
<path d="M119.333 43.3654C118.394 43.3654 117.659 43.0951 117.127 42.5544C116.599 42.0102 116.335 41.2622 116.335 40.3107C116.335 39.3339 116.581 38.5661 117.073 38.0075C117.564 37.4488 118.239 37.1694 119.098 37.1694C119.895 37.1694 120.525 37.4091 120.987 37.8885C121.449 38.3679 121.681 39.0275 121.681 39.8673V40.554H117.657C117.675 41.1343 117.833 41.5812 118.132 41.8948C118.43 42.2048 118.851 42.3598 119.393 42.3598C119.75 42.3598 120.081 42.3273 120.387 42.2625C120.696 42.194 121.027 42.0822 121.38 41.9273V42.9599C121.067 43.1077 120.751 43.2122 120.43 43.2735C120.11 43.3348 119.744 43.3654 119.333 43.3654ZM119.098 38.1318C118.69 38.1318 118.363 38.2598 118.115 38.5157C117.871 38.7716 117.726 39.1446 117.679 39.6348H120.419C120.412 39.141 120.292 38.768 120.059 38.5157C119.826 38.2598 119.506 38.1318 119.098 38.1318Z" fill="#3EBFF7"/>
<path d="M115.287 41.1108C115.287 41.8137 115.031 42.3652 114.517 42.7653C114.004 43.1654 113.296 43.3654 112.394 43.3654C111.491 43.3654 110.752 43.2266 110.177 42.9491V41.7272C110.541 41.8966 110.927 42.03 111.334 42.1273C111.746 42.2246 112.128 42.2733 112.481 42.2733C112.998 42.2733 113.378 42.1759 113.622 41.9813C113.87 41.7867 113.993 41.5254 113.993 41.1973C113.993 40.9018 113.88 40.6513 113.655 40.4458C113.429 40.2404 112.963 39.9971 112.257 39.7159C111.529 39.424 111.016 39.0906 110.717 38.7157C110.419 38.3409 110.27 37.8903 110.27 37.3641C110.27 36.7045 110.506 36.1854 110.979 35.807C111.453 35.4285 112.088 35.2393 112.885 35.2393C113.649 35.2393 114.41 35.4051 115.167 35.7367L114.752 36.791C114.042 36.4954 113.409 36.3476 112.852 36.3476C112.43 36.3476 112.11 36.4395 111.891 36.6234C111.673 36.8036 111.564 37.0433 111.564 37.3424C111.564 37.5479 111.607 37.7245 111.695 37.8723C111.782 38.0165 111.926 38.1534 112.126 38.2832C112.326 38.4129 112.687 38.5842 113.207 38.7968C113.793 39.0383 114.223 39.2636 114.496 39.4726C114.769 39.6817 114.969 39.9178 115.096 40.1809C115.224 40.444 115.287 40.754 115.287 41.1108Z" fill="#3EBFF7"/>
<defs>
<linearGradient id="paint0_linear_203_5133" x1="32.8107" y1="6.51304" x2="36.0197" y2="28.6353" gradientUnits="userSpaceOnUse">
<stop offset="0.16" stop-color="#2E66A2"/>
<stop offset="0.86" stop-color="#27B1EF"/>
<stop offset="0.985" stop-color="#27B1EF"/>
</linearGradient>
<linearGradient id="paint1_linear_203_5133" x1="9.58731" y1="-4.1767" x2="47.5732" y2="19.153" gradientUnits="userSpaceOnUse">
<stop offset="0.025" stop-color="#1CACEB"/>
<stop offset="0.609233" stop-color="#47C4FB"/>
<stop offset="0.985" stop-color="#BAEAFF"/>
</linearGradient>
<linearGradient id="paint2_linear_203_5133" x1="28.6657" y1="9.75332" x2="28.6657" y2="27.5536" gradientUnits="userSpaceOnUse">
<stop offset="0.11" stop-color="#2AA5E0"/>
<stop offset="0.805" stop-color="#2F5297"/>
</linearGradient>
<linearGradient id="paint3_linear_203_5133" x1="21.9886" y1="23.1978" x2="23.8641" y2="30.9814" gradientUnits="userSpaceOnUse">
<stop offset="0.15" stop-color="#0B487F"/>
<stop offset="0.702136" stop-color="#2FACED" stop-opacity="0"/>
</linearGradient>
<linearGradient id="paint4_linear_203_5133" x1="21.9886" y1="23.1978" x2="23.8641" y2="30.9814" gradientUnits="userSpaceOnUse">
<stop offset="0.15" stop-color="#0B487F"/>
<stop offset="0.702136" stop-color="#2FACED" stop-opacity="0"/>
</linearGradient>
<linearGradient id="paint5_linear_203_5133" x1="32.2615" y1="15.3353" x2="24.4185" y2="17.2624" gradientUnits="userSpaceOnUse">
<stop offset="0.15" stop-color="#0B487F"/>
<stop offset="0.702136" stop-color="#2FACED" stop-opacity="0"/>
</linearGradient>
<linearGradient id="paint6_linear_203_5133" x1="32.2615" y1="15.3353" x2="24.4185" y2="17.2624" gradientUnits="userSpaceOnUse">
<stop offset="0.15" stop-color="#0B487F"/>
<stop offset="0.702136" stop-color="#2FACED" stop-opacity="0"/>
</linearGradient>
<linearGradient id="paint7_linear_203_5133" x1="28.6657" y1="6.97689" x2="28.6657" y2="27.5536" gradientUnits="userSpaceOnUse">
<stop offset="0.15" stop-color="#2D75B6"/>
<stop offset="0.702136" stop-color="#2FACED"/>
</linearGradient>
</defs>
</svg>
