<svg width="1924" height="582" viewBox="0 0 1924 582" fill="none" xmlns="http://www.w3.org/2000/svg">
<g filter="url(#filter0_d_188_46612)">
<path fill-rule="evenodd" clip-rule="evenodd" d="M423.197 65.6435C423.197 65.6435 351.743 -16.8207 200.826 19.2232C49.9077 55.2672 4.00007 152.309 4 217.914C3.99993 283.519 30.19 374.537 148.435 374.537C186.697 374.537 218.036 361.632 249.401 341.352V342.456H318.965V288.797C340.784 271.319 364.544 252.498 391.94 233.683V342.456H461.844V191.174C476.866 183.198 492.853 175.425 509.953 167.972C793.151 44.528 1005.02 154.194 1005.02 154.194C1005.02 154.194 831.725 59.2127 600.97 106.775C540.201 119.3 484.521 137.433 434.382 157.396H391.94V175.234C365.827 186.772 341.477 198.535 318.965 209.87V157.396H249.401V245.931C206.397 268.389 174.133 284.326 153.641 285.156C94.4525 287.555 69.5033 256.442 69.5033 217.914C69.5033 179.386 83.9088 85.3095 207.93 48.0292C331.951 10.7489 423.197 65.6435 423.197 65.6435ZM1541.31 171.955V115.69L1472.43 134.786V171.955H1444.47V219.354H1472.43V287.895C1472.43 301.99 1475.05 313.243 1480.27 321.654C1485.73 330.066 1493.46 336.204 1503.46 340.068C1513.69 343.933 1526.08 345.865 1540.63 345.865C1549.5 345.865 1558.59 344.729 1567.91 342.455C1577.23 340.409 1584.62 337.454 1590.08 333.589L1585.64 293.351C1582.46 295.397 1579.05 296.875 1575.41 297.784C1571.78 298.694 1567.46 299.148 1562.45 299.148C1555.41 299.148 1550.07 297.443 1546.43 294.033C1543.02 290.623 1541.31 284.94 1541.31 276.983V219.354H1587.69V171.955H1541.31ZM1686.7 345.865C1667.15 345.865 1650.21 342.455 1635.89 335.635C1621.8 328.588 1610.89 318.472 1603.16 305.286C1595.65 292.101 1591.9 276.074 1591.9 257.205C1591.9 238.337 1595.77 222.31 1603.5 209.124C1611.23 195.939 1622.03 185.936 1635.89 179.116C1649.76 172.069 1665.79 168.545 1683.97 168.545C1702.61 168.545 1718.41 172.069 1731.37 179.116C1744.56 185.936 1754.56 195.484 1761.38 207.76C1768.43 220.036 1771.95 234.358 1771.95 250.726C1771.95 254.591 1771.72 258.456 1771.27 262.32C1771.04 266.185 1770.7 269.481 1770.25 272.209H1658.22C1658.78 276.394 1659.64 280.031 1660.79 283.121C1663.29 289.032 1666.7 293.124 1671.02 295.397C1675.33 297.671 1680.79 298.807 1687.38 298.807C1694.66 298.807 1700.34 297.33 1704.43 294.374C1708.53 291.419 1711.48 287.327 1713.3 282.098L1768.54 298.466C1765.81 308.924 1760.24 317.676 1751.83 324.723C1743.65 331.771 1733.87 337.113 1722.51 340.75C1711.14 344.16 1699.2 345.865 1686.7 345.865ZM1660.1 232.994C1659.33 235.695 1658.72 238.764 1658.28 242.201H1706.81C1705.98 235.31 1704.39 229.74 1702.05 225.492C1698.64 218.672 1692.61 215.262 1683.97 215.262C1678.06 215.262 1673.06 216.626 1668.97 219.354C1665.1 222.082 1662.15 226.629 1660.1 232.994ZM1786.98 171.955H1848.7L1850.75 211.852C1854.61 198.44 1860.64 187.869 1868.82 180.139C1877.23 172.41 1888.14 168.545 1901.56 168.545C1906.33 168.545 1910.2 169 1913.15 169.909C1916.11 170.591 1918.27 171.501 1919.63 172.637L1913.49 228.561C1911.22 227.652 1908.26 226.856 1904.63 226.174C1900.99 225.492 1896.78 225.151 1892.01 225.151C1885.19 225.151 1879.05 226.402 1873.6 228.902C1868.14 231.403 1863.82 235.154 1860.64 240.155C1857.45 244.929 1855.86 251.067 1855.86 258.569V342.455H1786.98V171.955ZM1255.55 171.955H1317.96L1319.68 206.671C1320.69 204.222 1321.82 201.857 1323.07 199.576C1328.3 190.028 1335.24 182.526 1343.87 177.07C1352.74 171.387 1362.97 168.545 1374.56 168.545C1388.66 168.545 1400.71 172.069 1410.71 179.116C1420.71 185.936 1428.33 195.939 1433.56 209.124C1439.01 222.082 1441.74 237.882 1441.74 256.523C1441.74 275.165 1439.01 291.192 1433.56 304.604C1428.1 318.017 1420.26 328.247 1410.03 335.294C1400.03 342.342 1388.09 345.865 1374.22 345.865C1358.08 345.865 1345.35 340.864 1336.03 330.861C1331.31 325.547 1327.44 319.559 1324.44 312.896V414.065H1255.55V171.955ZM1347.97 296.42C1355.7 296.42 1361.72 293.579 1366.04 287.895C1370.36 281.985 1372.52 271.755 1372.52 257.205C1372.52 242.656 1370.36 232.426 1366.04 226.515C1361.72 220.605 1355.81 217.649 1348.31 217.649C1343.53 217.649 1339.33 219.127 1335.69 222.082C1332.05 225.038 1329.21 229.471 1327.16 235.381C1325.35 241.065 1324.44 248.339 1324.44 257.205C1324.44 265.617 1325.23 272.778 1326.82 278.688C1328.64 284.599 1331.37 289.032 1335.01 291.987C1338.65 294.943 1342.96 296.42 1347.97 296.42ZM1196 179.116C1182.13 172.069 1165.87 168.545 1147.23 168.545C1129.05 168.545 1112.91 172.069 1098.81 179.116C1084.94 185.936 1074.03 195.939 1066.08 209.124C1058.35 222.31 1054.48 238.337 1054.48 257.205C1054.48 275.847 1058.35 291.874 1066.08 305.286C1074.03 318.472 1084.94 328.588 1098.81 335.635C1112.91 342.455 1129.05 345.865 1147.23 345.865C1165.87 345.865 1182.13 342.455 1196 335.635C1209.86 328.588 1220.66 318.472 1228.39 305.286C1236.12 291.874 1239.99 275.847 1239.99 257.205C1239.99 238.337 1236.12 222.31 1228.39 209.124C1220.66 195.939 1209.86 185.936 1196 179.116ZM1134.28 219.695C1137.91 217.195 1142.23 215.944 1147.23 215.944C1152.46 215.944 1156.78 217.195 1160.19 219.695C1163.6 222.196 1166.22 226.515 1168.03 232.653C1169.85 238.791 1170.76 246.975 1170.76 257.205C1170.76 267.435 1169.85 275.619 1168.03 281.757C1166.22 287.668 1163.6 291.987 1160.19 294.715C1156.78 297.216 1152.46 298.466 1147.23 298.466C1142.23 298.466 1137.91 297.216 1134.28 294.715C1130.87 291.987 1128.25 287.668 1126.43 281.757C1124.61 275.619 1123.7 267.435 1123.7 257.205C1123.7 246.975 1124.61 238.791 1126.43 232.653C1128.25 226.515 1130.87 222.196 1134.28 219.695ZM962.979 168.545C982.076 168.545 997.762 171.273 1010.04 176.729C1022.54 181.958 1031.98 188.892 1038.34 197.53C1044.71 205.942 1048.34 214.808 1049.25 224.128L985.486 243.565C984.804 234.245 982.871 227.311 979.689 222.764C976.733 218.218 971.959 215.944 965.367 215.944C959.683 215.944 954.909 217.308 951.044 220.036C947.18 222.764 944.338 227.197 942.52 233.335C940.701 239.473 939.792 247.657 939.792 257.887C939.792 268.345 940.815 276.529 942.861 282.439C945.134 288.35 948.203 292.556 952.068 295.056C956.159 297.33 960.706 298.466 965.708 298.466C970.254 298.466 973.891 297.557 976.62 295.738C979.575 293.692 981.962 290.851 983.781 287.213C985.599 283.349 986.736 278.802 987.19 273.573L1048.91 293.01C1048 302.786 1044.02 311.652 1036.98 319.608C1030.16 327.565 1020.72 333.93 1008.67 338.704C996.625 343.478 982.417 345.865 966.049 345.865C946.498 345.865 929.562 342.455 915.24 335.635C900.917 328.588 889.892 318.472 882.163 305.286C874.433 292.101 870.568 276.074 870.568 257.205C870.568 238.337 874.433 222.31 882.163 209.124C889.892 195.939 900.69 185.936 914.557 179.116C928.425 172.069 944.565 168.545 962.979 168.545ZM790.841 180.79C796.979 185.564 806.868 187.951 820.508 187.951C834.148 187.951 843.923 185.564 849.834 180.79C855.972 176.016 859.041 168.287 859.041 157.602C859.041 146.69 855.972 138.847 849.834 134.073C843.923 129.299 834.148 126.912 820.508 126.912C806.868 126.912 796.979 129.299 790.841 134.073C784.93 138.847 781.975 146.69 781.975 157.602C781.975 168.287 784.93 176.016 790.841 180.79ZM854.949 342.455V194.955C831.076 203.951 812.576 205.451 786.067 194.955V342.455H854.949ZM744.95 132.399V279.029C744.95 286.304 746.086 291.533 748.359 294.715C750.633 297.898 753.133 299.83 758.817 299.83C761.545 299.83 763.932 299.717 765.978 299.489C768.251 299.035 770.638 298.353 773.139 297.443V334.778C769.047 337.733 760.977 341.319 753.474 343.137C746.2 344.956 738.925 345.865 731.651 345.865C711.872 345.865 697.664 341.546 689.026 332.907C680.387 324.041 676.068 309.378 676.068 288.918V141.699C697.076 134.199 719.861 132.399 744.95 132.399ZM525.318 335.635C539.64 342.456 556.577 345.866 576.127 345.866C588.631 345.866 600.566 344.161 611.932 340.751C623.299 337.113 633.074 331.771 641.258 324.724C649.67 317.676 655.239 308.924 657.967 298.466L602.725 282.099C600.907 287.327 597.951 291.419 593.859 294.375C589.767 297.33 584.084 298.807 576.809 298.807C570.217 298.807 564.761 297.671 560.441 295.397C556.122 293.124 552.712 289.032 550.211 283.121C549.067 280.031 548.21 276.394 547.642 272.21H659.672C660.127 269.482 660.468 266.185 660.695 262.32C661.15 258.456 661.377 254.591 661.377 250.727C661.377 234.358 657.854 220.036 650.806 207.76C643.986 195.484 633.984 185.936 620.798 179.116C607.84 172.069 592.041 168.545 573.399 168.545C555.213 168.545 539.186 172.069 525.318 179.116C511.451 185.936 500.653 195.939 492.923 209.124C485.194 222.31 481.329 238.337 481.329 257.206C481.329 276.074 485.08 292.101 492.582 305.286C500.312 318.472 511.224 328.588 525.318 335.635ZM596.238 242.202H547.705C548.15 238.764 548.758 235.695 549.529 232.995C551.575 226.629 554.531 222.082 558.395 219.354C562.487 216.626 567.489 215.262 573.399 215.262C582.038 215.262 588.062 218.672 591.472 225.492C593.816 229.741 595.405 235.31 596.238 242.202Z" fill="url(#paint0_linear_188_46612)"/>
<path fill-rule="evenodd" clip-rule="evenodd" d="M423.317 65.702C423.317 65.702 352.216 -16.9119 201.298 19.132C50.3802 55.176 4.00007 152.309 4 217.914C3.99993 283.519 30.19 374.537 148.435 374.537C186.697 374.537 218.036 361.632 249.401 341.352V342.455H318.965V288.797C340.784 271.319 364.544 252.498 391.94 233.683V342.455H461.844V191.174C476.866 183.198 492.853 175.425 509.953 167.972C793.151 44.528 1004.92 154.146 1004.92 154.146C1004.92 154.146 831.725 59.2127 600.97 106.775C551.082 117.057 504.623 131.12 461.844 146.87V137.395H391.94V175.234C365.827 186.772 341.477 198.535 318.965 209.87V147.395H249.401V245.931C206.397 268.389 174.133 284.326 153.641 285.156C94.4525 287.555 69.5033 256.442 69.5033 217.914C69.5033 179.386 84.3812 85.2183 208.402 47.938C332.423 10.6577 423.317 65.702 423.317 65.702ZM1541.31 171.955V115.69L1472.43 134.786V171.955H1444.47V219.354H1472.43V287.895C1472.43 301.99 1475.05 313.243 1480.27 321.654C1485.73 330.065 1493.46 336.203 1503.46 340.068C1513.69 343.933 1526.08 345.865 1540.63 345.865C1549.5 345.865 1558.59 344.728 1567.91 342.455C1577.23 340.409 1584.62 337.454 1590.08 333.589L1585.64 293.351C1582.46 295.397 1579.05 296.875 1575.41 297.784C1571.78 298.694 1567.46 299.148 1562.45 299.148C1555.41 299.148 1550.07 297.443 1546.43 294.033C1543.02 290.623 1541.31 284.94 1541.31 276.983V219.354H1587.69V171.955H1541.31ZM1686.7 345.865C1667.15 345.865 1650.21 342.455 1635.89 335.635C1621.8 328.588 1610.89 318.471 1603.16 305.286C1595.65 292.101 1591.9 276.074 1591.9 257.205C1591.9 238.336 1595.77 222.309 1603.5 209.124C1611.23 195.939 1622.03 185.936 1635.89 179.116C1649.76 172.069 1665.79 168.545 1683.97 168.545C1702.61 168.545 1718.41 172.069 1731.37 179.116C1744.56 185.936 1754.56 195.484 1761.38 207.76C1768.43 220.036 1771.95 234.358 1771.95 250.726C1771.95 254.591 1771.72 258.455 1771.27 262.32C1771.04 266.185 1770.7 269.481 1770.25 272.209H1658.22C1658.78 276.394 1659.64 280.031 1660.79 283.121C1663.29 289.032 1666.7 293.124 1671.02 295.397C1675.33 297.67 1680.79 298.807 1687.38 298.807C1694.66 298.807 1700.34 297.329 1704.43 294.374C1708.53 291.419 1711.48 287.327 1713.3 282.098L1768.54 298.466C1765.81 308.923 1760.24 317.676 1751.83 324.723C1743.65 331.77 1733.87 337.113 1722.51 340.75C1711.14 344.16 1699.2 345.865 1686.7 345.865ZM1660.1 232.994C1659.33 235.695 1658.72 238.764 1658.28 242.201H1706.81C1705.98 235.31 1704.39 229.74 1702.05 225.492C1698.64 218.672 1692.61 215.262 1683.97 215.262C1678.06 215.262 1673.06 216.626 1668.97 219.354C1665.1 222.082 1662.15 226.629 1660.1 232.994ZM1786.98 171.955H1848.7L1850.75 211.852C1854.61 198.439 1860.64 187.868 1868.82 180.139C1877.23 172.41 1888.14 168.545 1901.56 168.545C1906.33 168.545 1910.2 169 1913.15 169.909C1916.11 170.591 1918.27 171.5 1919.63 172.637L1913.49 228.561C1911.22 227.652 1908.26 226.856 1904.63 226.174C1900.99 225.492 1896.78 225.151 1892.01 225.151C1885.19 225.151 1879.05 226.401 1873.6 228.902C1868.14 231.403 1863.82 235.154 1860.64 240.155C1857.45 244.929 1855.86 251.067 1855.86 258.569V342.455H1786.98V171.955ZM1255.55 171.955H1317.96L1319.68 206.671C1320.69 204.222 1321.82 201.857 1323.07 199.576C1328.3 190.028 1335.24 182.526 1343.87 177.07C1352.74 171.387 1362.97 168.545 1374.56 168.545C1388.66 168.545 1400.71 172.069 1410.71 179.116C1420.71 185.936 1428.33 195.939 1433.56 209.124C1439.01 222.082 1441.74 237.882 1441.74 256.523C1441.74 275.164 1439.01 291.191 1433.56 304.604C1428.1 318.017 1420.26 328.247 1410.03 335.294C1400.03 342.341 1388.09 345.865 1374.22 345.865C1358.08 345.865 1345.35 340.864 1336.03 330.861C1331.31 325.547 1327.44 319.559 1324.44 312.896V414.065H1255.55V171.955ZM1347.97 296.42C1355.7 296.42 1361.72 293.578 1366.04 287.895C1370.36 281.984 1372.52 271.754 1372.52 257.205C1372.52 242.656 1370.36 232.426 1366.04 226.515C1361.72 220.604 1355.81 217.649 1348.31 217.649C1343.53 217.649 1339.33 219.127 1335.69 222.082C1332.05 225.037 1329.21 229.47 1327.16 235.381C1325.35 241.064 1324.44 248.339 1324.44 257.205C1324.44 265.616 1325.23 272.777 1326.82 278.688C1328.64 284.599 1331.37 289.032 1335.01 291.987C1338.65 294.943 1342.96 296.42 1347.97 296.42ZM1196 179.116C1182.13 172.069 1165.87 168.545 1147.23 168.545C1129.05 168.545 1112.91 172.069 1098.81 179.116C1084.94 185.936 1074.03 195.939 1066.08 209.124C1058.35 222.309 1054.48 238.336 1054.48 257.205C1054.48 275.846 1058.35 291.873 1066.08 305.286C1074.03 318.471 1084.94 328.588 1098.81 335.635C1112.91 342.455 1129.05 345.865 1147.23 345.865C1165.87 345.865 1182.13 342.455 1196 335.635C1209.86 328.588 1220.66 318.471 1228.39 305.286C1236.12 291.873 1239.99 275.846 1239.99 257.205C1239.99 238.336 1236.12 222.309 1228.39 209.124C1220.66 195.939 1209.86 185.936 1196 179.116ZM1134.28 219.695C1137.91 217.194 1142.23 215.944 1147.23 215.944C1152.46 215.944 1156.78 217.194 1160.19 219.695C1163.6 222.196 1166.22 226.515 1168.03 232.653C1169.85 238.791 1170.76 246.975 1170.76 257.205C1170.76 267.435 1169.85 275.619 1168.03 281.757C1166.22 287.668 1163.6 291.987 1160.19 294.715C1156.78 297.216 1152.46 298.466 1147.23 298.466C1142.23 298.466 1137.91 297.216 1134.28 294.715C1130.87 291.987 1128.25 287.668 1126.43 281.757C1124.61 275.619 1123.7 267.435 1123.7 257.205C1123.7 246.975 1124.61 238.791 1126.43 232.653C1128.25 226.515 1130.87 222.196 1134.28 219.695ZM962.979 168.545C982.076 168.545 997.762 171.273 1010.04 176.729C1022.54 181.958 1031.98 188.891 1038.34 197.53C1044.71 205.941 1048.34 214.807 1049.25 224.128L985.486 243.565C984.804 234.244 982.871 227.311 979.689 222.764C976.733 218.217 971.959 215.944 965.367 215.944C959.683 215.944 954.909 217.308 951.044 220.036C947.18 222.764 944.338 227.197 942.52 233.335C940.701 239.473 939.792 247.657 939.792 257.887C939.792 268.344 940.815 276.529 942.861 282.439C945.134 288.35 948.203 292.555 952.068 295.056C956.159 297.329 960.706 298.466 965.708 298.466C970.254 298.466 973.891 297.557 976.62 295.738C979.575 293.692 981.962 290.85 983.781 287.213C985.599 283.348 986.736 278.802 987.19 273.573L1048.91 293.01C1048 302.785 1044.02 311.651 1036.98 319.608C1030.16 327.565 1020.72 333.93 1008.67 338.704C996.625 343.478 982.417 345.865 966.049 345.865C946.498 345.865 929.562 342.455 915.24 335.635C900.917 328.588 889.892 318.471 882.163 305.286C874.433 292.101 870.568 276.074 870.568 257.205C870.568 238.336 874.433 222.309 882.163 209.124C889.892 195.939 900.69 185.936 914.557 179.116C928.425 172.069 944.565 168.545 962.979 168.545ZM790.841 180.79C796.979 185.564 806.868 187.951 820.508 187.951C834.148 187.951 843.923 185.564 849.834 180.79C855.972 176.016 859.041 168.287 859.041 157.602C859.041 146.69 855.972 138.847 849.834 134.073C843.923 129.299 834.148 126.912 820.508 126.912C806.868 126.912 796.979 129.299 790.841 134.073C784.93 138.847 781.975 146.69 781.975 157.602C781.975 168.287 784.93 176.016 790.841 180.79ZM854.949 342.455V194.955C831.076 203.95 812.576 205.45 786.067 194.955V342.455H854.949ZM744.95 132.376V279.029C744.95 286.304 746.086 291.533 748.359 294.715C750.633 297.898 753.133 299.83 758.817 299.83C761.545 299.83 763.932 299.717 765.978 299.489C768.251 299.035 770.638 298.353 773.139 297.443V334.778C769.047 337.733 760.977 341.319 753.474 343.137C746.2 344.956 738.925 345.865 731.651 345.865C711.872 345.865 697.664 341.546 689.026 332.907C680.387 324.041 676.068 309.378 676.068 288.918V141.664C697.076 134.164 715.576 132.376 744.95 132.376ZM525.318 335.635C539.64 342.455 556.577 345.865 576.127 345.865C588.631 345.865 600.566 344.16 611.932 340.75C623.299 337.113 633.074 331.771 641.258 324.723C649.67 317.676 655.239 308.924 657.967 298.466L602.725 282.098C600.907 287.327 597.951 291.419 593.859 294.374C589.767 297.33 584.084 298.807 576.809 298.807C570.217 298.807 564.761 297.671 560.441 295.397C556.122 293.124 552.712 289.032 550.211 283.121C549.067 280.031 548.21 276.394 547.642 272.209H659.672C660.127 269.481 660.468 266.185 660.695 262.32C661.15 258.456 661.377 254.591 661.377 250.726C661.377 234.358 657.854 220.036 650.806 207.76C643.986 195.484 633.984 185.936 620.798 179.116C607.84 172.069 592.041 168.545 573.399 168.545C555.213 168.545 539.186 172.069 525.318 179.116C511.451 185.936 500.653 195.939 492.923 209.124C485.194 222.31 481.329 238.337 481.329 257.205C481.329 276.074 485.08 292.101 492.582 305.286C500.312 318.472 511.224 328.588 525.318 335.635ZM596.238 242.201H547.705C548.15 238.764 548.758 235.695 549.529 232.994C551.575 226.629 554.531 222.082 558.395 219.354C562.487 216.626 567.489 215.262 573.399 215.262C582.038 215.262 588.062 218.672 591.472 225.492C593.816 229.741 595.405 235.31 596.238 242.201Z" fill="#1D4C7E"/>
<path d="M201.162 19.2232C352.08 -16.8207 422.987 65.3909 422.987 65.3909C422.987 65.3909 332.288 10.7489 208.267 48.0292C84.2455 85.3095 72.1926 179.386 72.1927 217.914C72.1927 256.442 100.536 287.308 153.641 285.156C206.745 283.004 370.216 154.337 600.97 106.775C831.724 59.2127 1005.25 154.343 1005.25 154.343C1005.25 154.343 793.151 44.5279 509.953 167.971C318.801 251.293 266.68 374.536 148.435 374.537C30.1899 374.537 3.99984 283.519 3.99991 217.914C3.99998 152.309 50.2445 55.2671 201.162 19.2232Z" fill="url(#paint1_linear_188_46612)"/>
<path d="M318.964 77.3308V209.823L249.4 245.952V88.9522C265.226 77.3309 299.262 72.542 318.964 77.3308Z" fill="#1D4C7E"/>
<path d="M318.964 116.327V209.823L249.4 245.952V116.327H318.964Z" fill="url(#paint2_linear_188_46612)"/>
<path d="M318.953 288.562L318.729 342.37L249.479 342.37L249.479 341.286C264.676 329.655 302.793 301.497 318.953 288.562Z" fill="#1D4C7E"/>
<path d="M318.953 288.562L318.729 342.37L249.479 342.37L249.479 341.286C264.676 329.655 302.793 301.497 318.953 288.562Z" fill="url(#paint3_linear_188_46612)"/>
<path opacity="0.5" d="M392.385 233.348L371.148 248.363L349.617 264.207L336.925 200.904L364.606 187.661L391.969 175.089L392.385 233.348Z" fill="url(#paint4_linear_188_46612)"/>
<path d="M461.844 140.205V342.455H391.939V140.205H461.844Z" fill="url(#paint5_linear_188_46612)"/>
<path d="M461.844 120.047V342.455H391.939V85.4867C420.859 89.8931 444.363 101.551 461.844 120.047Z" fill="#1D4C7E"/>
<path d="M1913.7 519.474C1913.7 526.857 1911.01 532.531 1905.63 536.496C1900.25 540.415 1892.55 542.375 1882.53 542.375C1872.45 542.375 1864.36 540.848 1858.26 537.795V523.918C1867.14 528.019 1875.42 530.07 1883.07 530.07C1892.96 530.07 1897.91 527.085 1897.91 521.115C1897.91 519.201 1897.36 517.606 1896.27 516.33C1895.17 515.054 1893.37 513.732 1890.87 512.365C1888.36 510.998 1884.87 509.448 1880.41 507.717C1871.7 504.344 1865.8 500.972 1862.7 497.599C1859.65 494.227 1858.12 489.852 1858.12 484.474C1858.12 478.003 1860.72 472.99 1865.91 469.435C1871.15 465.835 1878.26 464.035 1887.24 464.035C1896.13 464.035 1904.54 465.835 1912.47 469.435L1907.27 481.535C1899.11 478.163 1892.26 476.476 1886.7 476.476C1878.22 476.476 1873.98 478.892 1873.98 483.723C1873.98 486.092 1875.07 488.098 1877.26 489.738C1879.49 491.379 1884.33 493.635 1891.75 496.506C1898 498.921 1902.53 501.131 1905.36 503.137C1908.18 505.142 1910.28 507.466 1911.65 510.109C1913.01 512.707 1913.7 515.829 1913.7 519.474Z" fill="#3EBFF7"/>
<path d="M1815.26 542.375C1803.5 542.375 1794.3 538.957 1787.64 532.121C1781.03 525.239 1777.73 515.783 1777.73 503.752C1777.73 491.402 1780.81 481.695 1786.96 474.631C1793.11 467.567 1801.57 464.035 1812.32 464.035C1822.3 464.035 1830.18 467.066 1835.97 473.127C1841.76 479.188 1844.65 487.528 1844.65 498.146V506.828H1794.27C1794.5 514.165 1796.48 519.816 1800.22 523.781C1803.96 527.7 1809.22 529.66 1816.01 529.66C1820.48 529.66 1824.62 529.25 1828.45 528.43C1832.33 527.564 1836.47 526.151 1840.89 524.191V537.248C1836.98 539.116 1833.01 540.438 1829 541.213C1824.99 541.988 1820.41 542.375 1815.26 542.375ZM1812.32 476.203C1807.22 476.203 1803.11 477.821 1800.02 481.057C1796.96 484.292 1795.14 489.009 1794.55 495.207H1828.86C1828.77 488.963 1827.27 484.247 1824.35 481.057C1821.43 477.821 1817.42 476.203 1812.32 476.203Z" fill="#3EBFF7"/>
<path d="M1743.41 542.375C1731.98 542.375 1723.27 539.048 1717.3 532.394C1711.38 525.695 1708.41 516.102 1708.41 503.615C1708.41 490.9 1711.51 481.125 1717.71 474.289C1723.95 467.453 1732.96 464.035 1744.71 464.035C1752.69 464.035 1759.87 465.516 1766.25 468.478L1761.39 481.398C1754.6 478.755 1749 477.433 1744.58 477.433C1731.5 477.433 1724.96 486.115 1724.96 503.478C1724.96 511.955 1726.57 518.335 1729.81 522.619C1733.09 526.857 1737.88 528.976 1744.17 528.976C1751.32 528.976 1758.09 527.199 1764.47 523.644V537.658C1761.6 539.344 1758.52 540.552 1755.24 541.281C1752 542.01 1748.06 542.375 1743.41 542.375Z" fill="#3EBFF7"/>
<path d="M1689.89 541.008H1673.82V465.402H1689.89V541.008ZM1672.87 445.373C1672.87 442.502 1673.64 440.292 1675.19 438.742C1676.79 437.193 1679.04 436.418 1681.96 436.418C1684.78 436.418 1686.97 437.193 1688.52 438.742C1690.12 440.292 1690.91 442.502 1690.91 445.373C1690.91 448.107 1690.12 450.272 1688.52 451.867C1686.97 453.417 1684.78 454.191 1681.96 454.191C1679.04 454.191 1676.79 453.417 1675.19 451.867C1673.64 450.272 1672.87 448.107 1672.87 445.373Z" fill="#3EBFF7"/>
<path d="M1616.13 541.008L1587.42 465.402H1604.37L1619.75 509.357C1622.4 516.74 1623.99 522.71 1624.54 527.267H1625.08C1625.49 523.986 1627.09 518.016 1629.87 509.357L1645.25 465.402H1662.34L1633.49 541.008H1616.13Z" fill="#3EBFF7"/>
<path d="M1576.82 464.035C1580.06 464.035 1582.72 464.263 1584.82 464.719L1583.25 479.689C1580.97 479.142 1578.6 478.869 1576.14 478.869C1569.71 478.869 1564.49 480.965 1560.48 485.158C1556.52 489.351 1554.54 494.797 1554.54 501.496V541.008H1538.47V465.402H1551.05L1553.17 478.732H1553.99C1556.5 474.221 1559.76 470.643 1563.77 468C1567.82 465.357 1572.17 464.035 1576.82 464.035Z" fill="#3EBFF7"/>
<path d="M1490.83 542.375C1479.07 542.375 1469.86 538.957 1463.21 532.121C1456.6 525.239 1453.3 515.783 1453.3 503.752C1453.3 491.402 1456.37 481.695 1462.53 474.631C1468.68 467.567 1477.13 464.035 1487.89 464.035C1497.87 464.035 1505.75 467.066 1511.54 473.127C1517.33 479.188 1520.22 487.528 1520.22 498.146V506.828H1469.84C1470.07 514.165 1472.05 519.816 1475.79 523.781C1479.52 527.7 1484.79 529.66 1491.58 529.66C1496.04 529.66 1500.19 529.25 1504.02 528.43C1507.89 527.564 1512.04 526.151 1516.46 524.191V537.248C1512.54 539.116 1508.58 540.438 1504.57 541.213C1500.56 541.988 1495.98 542.375 1490.83 542.375ZM1487.89 476.203C1482.78 476.203 1478.68 477.821 1475.58 481.057C1472.53 484.292 1470.71 489.009 1470.11 495.207H1504.43C1504.34 488.963 1502.83 484.247 1499.92 481.057C1497 477.821 1492.99 476.203 1487.89 476.203Z" fill="#3EBFF7"/>
<path d="M1440.17 513.869C1440.17 522.756 1436.96 529.728 1430.53 534.787C1424.11 539.846 1415.24 542.375 1403.94 542.375C1392.64 542.375 1383.39 540.62 1376.19 537.111V521.662C1380.74 523.804 1385.58 525.49 1390.68 526.721C1395.83 527.951 1400.61 528.566 1405.04 528.566C1411.51 528.566 1416.27 527.336 1419.32 524.875C1422.42 522.414 1423.97 519.11 1423.97 514.963C1423.97 511.226 1422.56 508.058 1419.73 505.461C1416.91 502.863 1411.07 499.787 1402.23 496.232C1393.12 492.541 1386.69 488.325 1382.96 483.586C1379.22 478.846 1377.35 473.15 1377.35 466.496C1377.35 458.156 1380.31 451.594 1386.24 446.808C1392.16 442.023 1400.11 439.631 1410.09 439.631C1419.66 439.631 1429.19 441.727 1438.67 445.92L1433.47 459.25C1424.59 455.513 1416.66 453.644 1409.68 453.644C1404.4 453.644 1400.39 454.807 1397.65 457.131C1394.92 459.409 1393.55 462.44 1393.55 466.223C1393.55 468.82 1394.1 471.053 1395.19 472.922C1396.29 474.745 1398.09 476.476 1400.59 478.117C1403.1 479.758 1407.61 481.922 1414.13 484.611C1421.46 487.665 1426.84 490.513 1430.26 493.156C1433.68 495.799 1436.18 498.784 1437.78 502.111C1439.37 505.438 1440.17 509.357 1440.17 513.869Z" fill="#3EBFF7"/>
</g>
<defs>
<filter id="filter0_d_188_46612" x="0" y="0.399658" width="1923.64" height="589.608" filterUnits="userSpaceOnUse" color-interpolation-filters="sRGB">
<feFlood flood-opacity="0" result="BackgroundImageFix"/>
<feColorMatrix in="SourceAlpha" type="matrix" values="0 0 0 0 0 0 0 0 0 0 0 0 0 0 0 0 0 0 127 0" result="hardAlpha"/>
<feOffset dy="4"/>
<feGaussianBlur stdDeviation="2"/>
<feComposite in2="hardAlpha" operator="out"/>
<feColorMatrix type="matrix" values="0 0 0 0 0 0 0 0 0 0 0 0 0 0 0 0 0 0 0.25 0"/>
<feBlend mode="normal" in2="BackgroundImageFix" result="effect1_dropShadow_188_46612"/>
<feBlend mode="normal" in="SourceGraphic" in2="effect1_dropShadow_188_46612" result="shape"/>
</filter>
<linearGradient id="paint0_linear_188_46612" x1="407.521" y1="76.4264" x2="448.476" y2="356.019" gradientUnits="userSpaceOnUse">
<stop offset="0.16" stop-color="#2E66A2"/>
<stop offset="0.86" stop-color="#27B1EF"/>
<stop offset="0.985" stop-color="#27B1EF"/>
</linearGradient>
<linearGradient id="paint1_linear_188_46612" x1="116.751" y1="-58.731" x2="594.892" y2="232.07" gradientUnits="userSpaceOnUse">
<stop offset="0.025" stop-color="#1CACEB"/>
<stop offset="0.609233" stop-color="#47C4FB"/>
<stop offset="0.985" stop-color="#BAEAFF"/>
</linearGradient>
<linearGradient id="paint2_linear_188_46612" x1="341.805" y1="144.686" x2="355.622" y2="245.952" gradientUnits="userSpaceOnUse">
<stop offset="0.11" stop-color="#1D4C7E"/>
<stop offset="0.805" stop-color="#031E3A"/>
</linearGradient>
<linearGradient id="paint3_linear_188_46612" x1="272.022" y1="287.382" x2="295.941" y2="385.69" gradientUnits="userSpaceOnUse">
<stop offset="0.15" stop-color="#0B487F"/>
<stop offset="0.702136" stop-color="#2FACED" stop-opacity="0"/>
</linearGradient>
<linearGradient id="paint4_linear_188_46612" x1="400.645" y1="187.971" x2="302.337" y2="211.891" gradientUnits="userSpaceOnUse">
<stop offset="0.15" stop-color="#0B487F"/>
<stop offset="0.702136" stop-color="#2FACED" stop-opacity="0"/>
</linearGradient>
<linearGradient id="paint5_linear_188_46612" x1="355.623" y1="82.2912" x2="355.623" y2="342.455" gradientUnits="userSpaceOnUse">
<stop offset="0.15" stop-color="#2D75B6"/>
<stop offset="0.702136" stop-color="#2FACED"/>
</linearGradient>
</defs>
</svg>
