<svg width="1916" height="582" viewBox="0 0 1916 582" fill="none" xmlns="http://www.w3.org/2000/svg">
<path fill-rule="evenodd" clip-rule="evenodd" d="M419.197 65.3263C419.197 65.3263 347.743 -17.1379 196.826 18.906C45.9077 54.95 7.03112e-05 151.992 1.3606e-10 217.597C-6.89292e-05 283.202 26.19 374.22 144.435 374.219C182.698 374.219 214.036 361.315 245.402 341.034V342.138H314.966V288.48C336.784 271.001 360.544 252.181 387.94 233.366V342.138H457.845V190.857C472.867 182.881 488.854 175.108 505.953 167.654C789.151 44.2108 1001.02 153.877 1001.02 153.877C1001.02 153.877 827.725 58.8956 596.97 106.458C536.201 118.983 480.521 137.116 430.382 157.078H387.94V174.917C361.828 186.454 337.477 198.217 314.966 209.553V157.078H245.402V245.614C202.397 268.071 170.133 284.008 149.641 284.839C90.4525 287.238 65.5033 256.125 65.5033 217.597C65.5033 179.069 79.9088 84.9924 203.93 47.712C327.951 10.4317 419.197 65.3263 419.197 65.3263ZM1537.31 171.638V115.373L1468.43 134.469V171.638H1440.47V219.037H1468.43V287.578C1468.43 301.673 1471.05 312.926 1476.27 321.337C1481.73 329.748 1489.46 335.886 1499.46 339.751C1509.69 343.616 1522.08 345.548 1536.63 345.548C1545.5 345.548 1554.59 344.411 1563.91 342.138C1573.23 340.092 1580.62 337.137 1586.08 333.272L1581.64 293.034C1578.46 295.08 1575.05 296.558 1571.41 297.467C1567.78 298.376 1563.46 298.831 1558.45 298.831C1551.41 298.831 1546.07 297.126 1542.43 293.716C1539.02 290.306 1537.31 284.623 1537.31 276.666V219.037H1583.69V171.638H1537.31ZM1682.7 345.548C1663.15 345.548 1646.22 342.138 1631.89 335.318C1617.8 328.271 1606.89 318.154 1599.16 304.969C1591.66 291.784 1587.9 275.757 1587.9 256.888C1587.9 238.019 1591.77 221.992 1599.5 208.807C1607.23 195.622 1618.03 185.619 1631.89 178.799C1645.76 171.752 1661.79 168.228 1679.97 168.228C1698.62 168.228 1714.42 171.752 1727.37 178.799C1740.56 185.619 1750.56 195.167 1757.38 207.443C1764.43 219.719 1767.95 234.041 1767.95 250.409C1767.95 254.274 1767.72 258.138 1767.27 262.003C1767.04 265.868 1766.7 269.164 1766.25 271.892H1654.22C1654.79 276.077 1655.64 279.714 1656.79 282.804C1659.29 288.715 1662.7 292.807 1667.02 295.08C1671.34 297.353 1676.79 298.49 1683.38 298.49C1690.66 298.49 1696.34 297.012 1700.43 294.057C1704.53 291.102 1707.48 287.01 1709.3 281.781L1764.54 298.149C1761.81 308.606 1756.24 317.359 1747.83 324.406C1739.65 331.453 1729.87 336.796 1718.51 340.433C1707.14 343.843 1695.21 345.548 1682.7 345.548ZM1656.1 232.677C1655.33 235.378 1654.72 238.447 1654.28 241.884H1702.81C1701.98 234.993 1700.39 229.423 1698.05 225.175C1694.64 218.355 1688.61 214.945 1679.97 214.945C1674.06 214.945 1669.06 216.309 1664.97 219.037C1661.11 221.765 1658.15 226.312 1656.1 232.677ZM1782.98 342.138V171.638H1844.7L1846.75 211.535C1850.61 198.122 1856.64 187.551 1864.82 179.822C1873.23 172.093 1884.15 168.228 1897.56 168.228C1902.33 168.228 1906.2 168.683 1909.15 169.592C1912.11 170.274 1914.27 171.183 1915.63 172.32L1909.49 228.244C1907.22 227.335 1904.26 226.539 1900.63 225.857C1896.99 225.175 1892.78 224.834 1888.01 224.834C1881.19 224.834 1875.05 226.084 1869.6 228.585C1864.14 231.086 1859.82 234.837 1856.64 239.838C1853.46 244.612 1851.86 250.75 1851.86 258.252V342.138H1782.98ZM1251.55 413.748V171.638H1313.96L1315.68 206.354C1316.69 203.904 1317.82 201.54 1319.07 199.259C1324.3 189.711 1331.23 182.209 1339.87 176.753C1348.74 171.07 1358.97 168.228 1370.56 168.228C1384.66 168.228 1396.71 171.752 1406.71 178.799C1416.71 185.619 1424.33 195.622 1429.56 208.807C1435.01 221.765 1437.74 237.565 1437.74 256.206C1437.74 274.847 1435.01 290.874 1429.56 304.287C1424.1 317.7 1416.26 327.93 1406.03 334.977C1396.03 342.024 1384.09 345.548 1370.22 345.548C1354.08 345.548 1341.35 340.547 1332.03 330.544C1327.31 325.23 1323.44 319.242 1320.44 312.579V413.748H1251.55ZM1343.97 296.103C1351.7 296.103 1357.72 293.261 1362.04 287.578C1366.36 281.667 1368.52 271.437 1368.52 256.888C1368.52 242.339 1366.36 232.109 1362.04 226.198C1357.72 220.287 1351.81 217.332 1344.31 217.332C1339.53 217.332 1335.33 218.81 1331.69 221.765C1328.05 224.72 1325.21 229.153 1323.16 235.064C1321.35 240.747 1320.44 248.022 1320.44 256.888C1320.44 265.299 1321.23 272.46 1322.82 278.371C1324.64 284.282 1327.37 288.715 1331.01 291.67C1334.65 294.625 1338.96 296.103 1343.97 296.103ZM1192 178.799C1178.13 171.752 1161.88 168.228 1143.23 168.228C1125.05 168.228 1108.91 171.752 1094.81 178.799C1080.95 185.619 1070.03 195.622 1062.08 208.807C1054.35 221.992 1050.48 238.019 1050.48 256.888C1050.48 275.529 1054.35 291.556 1062.08 304.969C1070.03 318.154 1080.95 328.271 1094.81 335.318C1108.91 342.138 1125.05 345.548 1143.23 345.548C1161.88 345.548 1178.13 342.138 1192 335.318C1205.86 328.271 1216.66 318.154 1224.39 304.969C1232.12 291.556 1235.99 275.529 1235.99 256.888C1235.99 238.019 1232.12 221.992 1224.39 208.807C1216.66 195.622 1205.86 185.619 1192 178.799ZM1130.28 219.378C1133.91 216.877 1138.23 215.627 1143.23 215.627C1148.46 215.627 1152.78 216.877 1156.19 219.378C1159.6 221.879 1162.22 226.198 1164.04 232.336C1165.85 238.474 1166.76 246.658 1166.76 256.888C1166.76 267.118 1165.85 275.302 1164.04 281.44C1162.22 287.351 1159.6 291.67 1156.19 294.398C1152.78 296.899 1148.46 298.149 1143.23 298.149C1138.23 298.149 1133.91 296.899 1130.28 294.398C1126.87 291.67 1124.25 287.351 1122.43 281.44C1120.61 275.302 1119.71 267.118 1119.71 256.888C1119.71 246.658 1120.61 238.474 1122.43 232.336C1124.25 226.198 1126.87 221.879 1130.28 219.378ZM958.981 168.228C978.077 168.228 993.763 170.956 1006.04 176.412C1018.54 181.641 1027.98 188.574 1034.34 197.213C1040.71 205.624 1044.34 214.49 1045.25 223.811L981.487 243.248C980.805 233.927 978.873 226.994 975.69 222.447C972.735 217.9 967.961 215.627 961.368 215.627C955.685 215.627 950.911 216.991 947.046 219.719C943.182 222.447 940.34 226.88 938.521 233.018C936.703 239.156 935.793 247.34 935.793 257.57C935.793 268.027 936.816 276.211 938.862 282.122C941.136 288.033 944.205 292.238 948.069 294.739C952.161 297.012 956.708 298.149 961.709 298.149C966.256 298.149 969.893 297.24 972.621 295.421C975.577 293.375 977.964 290.533 979.782 286.896C981.601 283.031 982.738 278.485 983.192 273.256L1044.91 292.693C1044 302.468 1040.03 311.334 1032.98 319.291C1026.16 327.248 1016.72 333.613 1004.68 338.387C992.627 343.161 978.418 345.548 962.05 345.548C942.5 345.548 925.563 342.138 911.241 335.318C896.919 328.271 885.894 318.154 878.164 304.969C870.435 291.784 866.57 275.757 866.57 256.888C866.57 238.019 870.435 221.992 878.164 208.807C885.894 195.622 896.692 185.619 910.559 178.799C924.427 171.752 940.567 168.228 958.981 168.228ZM786.843 180.473C792.981 185.247 802.87 187.634 816.51 187.634C830.15 187.634 839.925 185.247 845.836 180.473C851.974 175.699 855.043 167.97 855.043 157.285C855.043 146.373 851.974 138.53 845.836 133.756C839.925 128.982 830.15 126.595 816.51 126.595C802.87 126.595 792.981 128.982 786.843 133.756C780.932 138.53 777.977 146.373 777.977 157.285C777.977 167.97 780.932 175.699 786.843 180.473ZM850.951 342.138V194.638C827.078 203.633 808.578 205.133 782.069 194.638V342.138H850.951ZM740.95 132.082V278.712C740.95 285.987 742.087 291.215 744.36 294.398C746.634 297.581 749.134 299.513 754.818 299.513C757.546 299.513 759.933 299.399 761.979 299.172C764.252 298.717 766.639 298.035 769.14 297.126V334.461C765.048 337.416 756.977 341.001 749.475 342.82C742.201 344.639 734.926 345.548 727.651 345.548C707.873 345.548 693.665 341.229 685.026 332.59C676.388 323.724 672.068 309.061 672.068 288.601V141.382C693.077 133.882 715.862 132.082 740.95 132.082ZM521.319 335.318C535.641 342.138 552.577 345.548 572.128 345.548C584.631 345.548 596.566 343.843 607.933 340.433C619.3 336.796 629.075 331.454 637.259 324.406C645.67 317.359 651.24 308.607 653.968 298.149L598.726 281.781C596.907 287.01 593.952 291.102 589.86 294.057C585.768 297.013 580.085 298.49 572.81 298.49C566.217 298.49 560.761 297.354 556.442 295.08C552.123 292.807 548.713 288.715 546.212 282.804C545.068 279.714 544.211 276.077 543.643 271.892H655.673C656.128 269.164 656.469 265.868 656.696 262.003C657.151 258.139 657.378 254.274 657.378 250.409C657.378 234.041 653.854 219.719 646.807 207.443C639.987 195.167 629.984 185.619 616.799 178.799C603.841 171.752 588.041 168.228 569.4 168.228C551.213 168.228 535.186 171.752 521.319 178.799C507.452 185.619 496.653 195.622 488.924 208.807C481.195 221.993 477.33 238.02 477.33 256.888C477.33 275.757 481.081 291.784 488.583 304.969C496.312 318.155 507.224 328.271 521.319 335.318ZM592.239 241.884H543.706C544.151 238.447 544.758 235.378 545.53 232.677C547.576 226.312 550.531 221.765 554.396 219.037C558.488 216.309 563.489 214.945 569.4 214.945C578.039 214.945 584.063 218.355 587.473 225.175C589.817 229.423 591.406 234.993 592.239 241.884Z" fill="url(#paint0_linear_208_5634)"/>
<path fill-rule="evenodd" clip-rule="evenodd" d="M419.317 65.3849C419.317 65.3849 348.216 -17.229 197.298 18.8149C46.3802 54.8588 6.94953e-05 151.992 1.393e-10 217.597C-6.97451e-05 283.202 26.19 374.22 144.435 374.219C182.698 374.219 214.036 361.315 245.402 341.034V342.138H314.966V288.48C336.784 271.001 360.544 252.181 387.94 233.366V342.138H457.845V190.857C472.867 182.881 488.854 175.108 505.953 167.654C789.151 44.2108 1000.92 153.829 1000.92 153.829C1000.92 153.829 827.725 58.8956 596.97 106.458C547.082 116.74 500.624 130.802 457.845 146.553V137.078H387.94V174.917C361.828 186.454 337.477 198.217 314.966 209.553V147.078H245.402V245.614C202.397 268.071 170.133 284.008 149.641 284.839C90.4525 287.238 65.5033 256.125 65.5033 217.597C65.5033 179.069 80.3812 84.9012 204.402 47.6209C328.423 10.3406 419.317 65.3849 419.317 65.3849ZM1537.31 171.638V115.373L1468.43 134.469V171.638H1440.47V219.037H1468.43V287.578C1468.43 301.673 1471.05 312.926 1476.27 321.337C1481.73 329.748 1489.46 335.886 1499.46 339.751C1509.69 343.616 1522.08 345.548 1536.63 345.548C1545.5 345.548 1554.59 344.411 1563.91 342.138C1573.23 340.092 1580.62 337.137 1586.08 333.272L1581.64 293.034C1578.46 295.08 1575.05 296.558 1571.41 297.467C1567.78 298.376 1563.46 298.831 1558.45 298.831C1551.41 298.831 1546.07 297.126 1542.43 293.716C1539.02 290.306 1537.31 284.623 1537.31 276.666V219.037H1583.69V171.638H1537.31ZM1682.7 345.548C1663.15 345.548 1646.22 342.138 1631.89 335.318C1617.8 328.271 1606.89 318.154 1599.16 304.969C1591.66 291.784 1587.9 275.757 1587.9 256.888C1587.9 238.019 1591.77 221.992 1599.5 208.807C1607.23 195.622 1618.03 185.619 1631.89 178.799C1645.76 171.752 1661.79 168.228 1679.97 168.228C1698.62 168.228 1714.42 171.752 1727.37 178.799C1740.56 185.619 1750.56 195.167 1757.38 207.443C1764.43 219.719 1767.95 234.041 1767.95 250.409C1767.95 254.274 1767.72 258.138 1767.27 262.003C1767.04 265.868 1766.7 269.164 1766.25 271.892H1654.22C1654.79 276.077 1655.64 279.714 1656.79 282.804C1659.29 288.715 1662.7 292.807 1667.02 295.08C1671.34 297.353 1676.79 298.49 1683.38 298.49C1690.66 298.49 1696.34 297.012 1700.43 294.057C1704.53 291.102 1707.48 287.01 1709.3 281.781L1764.54 298.149C1761.81 308.606 1756.24 317.359 1747.83 324.406C1739.65 331.453 1729.87 336.796 1718.51 340.433C1707.14 343.843 1695.21 345.548 1682.7 345.548ZM1656.1 232.677C1655.33 235.378 1654.72 238.447 1654.28 241.884H1702.81C1701.98 234.993 1700.39 229.423 1698.05 225.175C1694.64 218.355 1688.61 214.945 1679.97 214.945C1674.06 214.945 1669.06 216.309 1664.97 219.037C1661.11 221.765 1658.15 226.312 1656.1 232.677ZM1782.98 342.138V171.638H1844.7L1846.75 211.535C1850.61 198.122 1856.64 187.551 1864.82 179.822C1873.23 172.093 1884.15 168.228 1897.56 168.228C1902.33 168.228 1906.2 168.683 1909.15 169.592C1912.11 170.274 1914.27 171.183 1915.63 172.32L1909.49 228.244C1907.22 227.335 1904.26 226.539 1900.63 225.857C1896.99 225.175 1892.78 224.834 1888.01 224.834C1881.19 224.834 1875.05 226.084 1869.6 228.585C1864.14 231.086 1859.82 234.837 1856.64 239.838C1853.46 244.612 1851.86 250.75 1851.86 258.252V342.138H1782.98ZM1251.55 413.748V171.638H1313.96L1315.68 206.354C1316.69 203.904 1317.82 201.54 1319.07 199.259C1324.3 189.711 1331.23 182.209 1339.87 176.753C1348.74 171.07 1358.97 168.228 1370.56 168.228C1384.66 168.228 1396.71 171.752 1406.71 178.799C1416.71 185.619 1424.33 195.622 1429.56 208.807C1435.01 221.765 1437.74 237.565 1437.74 256.206C1437.74 274.847 1435.01 290.874 1429.56 304.287C1424.1 317.7 1416.26 327.93 1406.03 334.977C1396.03 342.024 1384.09 345.548 1370.22 345.548C1354.08 345.548 1341.35 340.547 1332.03 330.544C1327.31 325.23 1323.44 319.242 1320.44 312.579V413.748H1251.55ZM1343.97 296.103C1351.7 296.103 1357.72 293.261 1362.04 287.578C1366.36 281.667 1368.52 271.437 1368.52 256.888C1368.52 242.339 1366.36 232.109 1362.04 226.198C1357.72 220.287 1351.81 217.332 1344.31 217.332C1339.53 217.332 1335.33 218.81 1331.69 221.765C1328.05 224.72 1325.21 229.153 1323.16 235.064C1321.35 240.747 1320.44 248.022 1320.44 256.888C1320.44 265.299 1321.23 272.46 1322.82 278.371C1324.64 284.282 1327.37 288.715 1331.01 291.67C1334.65 294.625 1338.96 296.103 1343.97 296.103ZM1192 178.799C1178.13 171.752 1161.88 168.228 1143.23 168.228C1125.05 168.228 1108.91 171.752 1094.81 178.799C1080.95 185.619 1070.03 195.622 1062.08 208.807C1054.35 221.992 1050.48 238.019 1050.48 256.888C1050.48 275.529 1054.35 291.556 1062.08 304.969C1070.03 318.154 1080.95 328.271 1094.81 335.318C1108.91 342.138 1125.05 345.548 1143.23 345.548C1161.88 345.548 1178.13 342.138 1192 335.318C1205.86 328.271 1216.66 318.154 1224.39 304.969C1232.12 291.556 1235.99 275.529 1235.99 256.888C1235.99 238.019 1232.12 221.992 1224.39 208.807C1216.66 195.622 1205.86 185.619 1192 178.799ZM1130.28 219.378C1133.91 216.877 1138.23 215.627 1143.23 215.627C1148.46 215.627 1152.78 216.877 1156.19 219.378C1159.6 221.879 1162.22 226.198 1164.04 232.336C1165.85 238.474 1166.76 246.658 1166.76 256.888C1166.76 267.118 1165.85 275.302 1164.04 281.44C1162.22 287.351 1159.6 291.67 1156.19 294.398C1152.78 296.899 1148.46 298.149 1143.23 298.149C1138.23 298.149 1133.91 296.899 1130.28 294.398C1126.87 291.67 1124.25 287.351 1122.43 281.44C1120.61 275.302 1119.71 267.118 1119.71 256.888C1119.71 246.658 1120.61 238.474 1122.43 232.336C1124.25 226.198 1126.87 221.879 1130.28 219.378ZM958.981 168.228C978.077 168.228 993.763 170.956 1006.04 176.412C1018.54 181.641 1027.98 188.574 1034.34 197.213C1040.71 205.624 1044.34 214.49 1045.25 223.811L981.487 243.248C980.805 233.927 978.873 226.994 975.69 222.447C972.735 217.9 967.961 215.627 961.368 215.627C955.685 215.627 950.911 216.991 947.046 219.719C943.182 222.447 940.34 226.88 938.521 233.018C936.703 239.156 935.793 247.34 935.793 257.57C935.793 268.027 936.816 276.211 938.862 282.122C941.136 288.033 944.205 292.238 948.069 294.739C952.161 297.012 956.708 298.149 961.709 298.149C966.256 298.149 969.893 297.24 972.621 295.421C975.577 293.375 977.964 290.533 979.782 286.896C981.601 283.031 982.738 278.485 983.192 273.256L1044.91 292.693C1044 302.468 1040.03 311.334 1032.98 319.291C1026.16 327.248 1016.72 333.613 1004.68 338.387C992.627 343.161 978.418 345.548 962.05 345.548C942.5 345.548 925.563 342.138 911.241 335.318C896.919 328.271 885.894 318.154 878.164 304.969C870.435 291.784 866.57 275.757 866.57 256.888C866.57 238.019 870.435 221.992 878.164 208.807C885.894 195.622 896.692 185.619 910.559 178.799C924.427 171.752 940.567 168.228 958.981 168.228ZM786.843 180.473C792.981 185.247 802.87 187.634 816.51 187.634C830.15 187.634 839.925 185.247 845.836 180.473C851.974 175.699 855.043 167.97 855.043 157.285C855.043 146.373 851.974 138.53 845.836 133.756C839.925 128.982 830.15 126.595 816.51 126.595C802.87 126.595 792.981 128.982 786.843 133.756C780.932 138.53 777.977 146.373 777.977 157.285C777.977 167.97 780.932 175.699 786.843 180.473ZM850.951 342.138V194.638C827.078 203.633 808.578 205.133 782.069 194.638V342.138H850.951ZM740.95 132.059V278.712C740.95 285.987 742.087 291.215 744.36 294.398C746.634 297.581 749.134 299.513 754.818 299.513C757.546 299.513 759.933 299.399 761.979 299.172C764.252 298.717 766.639 298.035 769.14 297.126V334.461C765.048 337.416 756.977 341.001 749.475 342.82C742.201 344.639 734.926 345.548 727.651 345.548C707.873 345.548 693.665 341.229 685.026 332.59C676.388 323.724 672.068 309.061 672.068 288.601V141.347C693.077 133.847 711.577 132.059 740.95 132.059ZM521.319 335.318C535.641 342.138 552.577 345.548 572.128 345.548C584.631 345.548 596.566 343.843 607.933 340.433C619.3 336.796 629.075 331.454 637.259 324.406C645.67 317.359 651.24 308.607 653.968 298.149L598.726 281.781C596.907 287.01 593.952 291.102 589.86 294.057C585.768 297.013 580.085 298.49 572.81 298.49C566.217 298.49 560.761 297.354 556.442 295.08C552.123 292.807 548.713 288.715 546.212 282.804C545.068 279.714 544.211 276.077 543.643 271.892H655.673C656.128 269.164 656.469 265.868 656.696 262.003C657.151 258.139 657.378 254.274 657.378 250.409C657.378 234.041 653.854 219.719 646.807 207.443C639.987 195.167 629.984 185.619 616.799 178.799C603.841 171.752 588.041 168.228 569.4 168.228C551.213 168.228 535.186 171.752 521.319 178.799C507.452 185.619 496.653 195.622 488.924 208.807C481.195 221.993 477.33 238.02 477.33 256.888C477.33 275.757 481.081 291.784 488.583 304.969C496.312 318.155 507.224 328.271 521.319 335.318ZM592.239 241.884H543.706C544.151 238.447 544.758 235.378 545.53 232.677C547.576 226.312 550.531 221.765 554.396 219.037C558.488 216.309 563.489 214.945 569.4 214.945C578.039 214.945 584.063 218.355 587.473 225.175C589.817 229.423 591.406 234.993 592.239 241.884Z" fill="white"/>
<path d="M197.162 18.9061C348.08 -17.1378 418.987 65.0737 418.987 65.0737C418.987 65.0737 328.288 10.4318 204.267 47.7121C80.2455 84.9924 68.1926 179.069 68.1927 217.597C68.1927 256.125 96.5365 286.991 149.641 284.839C202.745 282.687 366.216 154.02 596.97 106.458C827.724 58.8955 1001.25 154.026 1001.25 154.026C1001.25 154.026 789.151 44.2108 505.953 167.654C314.801 250.976 262.68 374.219 144.435 374.219C26.1899 374.22 -0.000160434 283.202 -9.08135e-05 217.597C-2.11933e-05 151.992 46.2445 54.95 197.162 18.9061Z" fill="url(#paint1_linear_208_5634)"/>
<path d="M314.964 116.009V209.506L245.4 245.635V116.009H314.964Z" fill="url(#paint2_linear_208_5634)"/>
<path d="M314.964 77.0137V209.506L245.4 245.635V88.6351C261.226 77.0137 295.262 72.2249 314.964 77.0137Z" fill="white"/>
<path d="M314.953 288.245L314.729 342.053L245.479 342.053L245.479 340.969C260.676 329.338 298.793 301.179 314.953 288.245Z" fill="url(#paint3_linear_208_5634)"/>
<path d="M314.953 288.245L314.729 342.053L245.479 342.053L245.479 340.969C260.676 329.338 298.793 301.179 314.953 288.245Z" fill="url(#paint4_linear_208_5634)"/>
<path d="M388.385 233.031L367.148 248.046L345.617 263.89L332.925 200.587L360.606 187.344L387.969 174.772L388.385 233.031Z" fill="url(#paint5_linear_208_5634)"/>
<path d="M388.385 233.031L367.148 248.046L345.617 263.89L332.925 200.587L360.606 187.344L387.969 174.772L388.385 233.031Z" fill="url(#paint6_linear_208_5634)"/>
<path d="M457.844 139.888V342.138H387.939V139.888H457.844Z" fill="url(#paint7_linear_208_5634)"/>
<path d="M457.844 119.73V342.138H387.939V85.1696C416.859 89.576 440.363 101.234 457.844 119.73Z" fill="white"/>
<path d="M1909.7 519.157C1909.7 526.54 1907.01 532.214 1901.63 536.179C1896.25 540.098 1888.55 542.058 1878.53 542.058C1868.45 542.058 1860.36 540.531 1854.26 537.478V523.601C1863.14 527.702 1871.42 529.753 1879.07 529.753C1888.96 529.753 1893.91 526.768 1893.91 520.798C1893.91 518.884 1893.36 517.289 1892.27 516.013C1891.17 514.737 1889.37 513.415 1886.87 512.048C1884.36 510.681 1880.87 509.131 1876.41 507.4C1867.7 504.027 1861.8 500.655 1858.7 497.282C1855.65 493.91 1854.12 489.535 1854.12 484.157C1854.12 477.686 1856.72 472.673 1861.91 469.118C1867.15 465.518 1874.26 463.718 1883.24 463.718C1892.13 463.718 1900.54 465.518 1908.47 469.118L1903.27 481.218C1895.11 477.845 1888.26 476.159 1882.7 476.159C1874.22 476.159 1869.98 478.575 1869.98 483.405C1869.98 485.775 1871.07 487.78 1873.26 489.421C1875.49 491.062 1880.33 493.318 1887.75 496.189C1894 498.604 1898.53 500.814 1901.36 502.819C1904.18 504.825 1906.28 507.149 1907.65 509.792C1909.01 512.39 1909.7 515.512 1909.7 519.157Z" fill="#3595CA"/>
<path d="M1811.26 542.058C1799.5 542.058 1790.3 538.64 1783.64 531.804C1777.03 524.922 1773.73 515.466 1773.73 503.435C1773.73 491.084 1776.81 481.377 1782.96 474.314C1789.11 467.25 1797.57 463.718 1808.32 463.718C1818.3 463.718 1826.18 466.748 1831.97 472.81C1837.76 478.871 1840.65 487.211 1840.65 497.829V506.511H1790.27C1790.5 513.848 1792.48 519.499 1796.22 523.464C1799.96 527.383 1805.22 529.343 1812.01 529.343C1816.48 529.343 1820.62 528.933 1824.45 528.112C1828.33 527.247 1832.47 525.834 1836.89 523.874V536.931C1832.98 538.799 1829.01 540.121 1825 540.896C1820.99 541.67 1816.41 542.058 1811.26 542.058ZM1808.32 475.886C1803.22 475.886 1799.11 477.504 1796.02 480.739C1792.96 483.975 1791.14 488.692 1790.55 494.89H1824.86C1824.77 488.646 1823.27 483.929 1820.35 480.739C1817.43 477.504 1813.42 475.886 1808.32 475.886Z" fill="#3595CA"/>
<path d="M1739.41 542.058C1727.98 542.058 1719.27 538.731 1713.3 532.077C1707.38 525.378 1704.41 515.785 1704.41 503.298C1704.41 490.583 1707.51 480.808 1713.71 473.972C1719.95 467.136 1728.96 463.718 1740.71 463.718C1748.69 463.718 1755.87 465.199 1762.25 468.161L1757.39 481.081C1750.6 478.438 1745 477.116 1740.58 477.116C1727.5 477.116 1720.96 485.798 1720.96 503.161C1720.96 511.638 1722.57 518.018 1725.81 522.302C1729.09 526.54 1733.88 528.659 1740.17 528.659C1747.32 528.659 1754.09 526.882 1760.47 523.327V537.341C1757.6 539.027 1754.52 540.235 1751.24 540.964C1748 541.693 1744.06 542.058 1739.41 542.058Z" fill="#3595CA"/>
<path d="M1685.89 540.691H1669.82V465.085H1685.89V540.691ZM1668.87 445.056C1668.87 442.185 1669.64 439.974 1671.19 438.425C1672.79 436.875 1675.04 436.101 1677.96 436.101C1680.78 436.101 1682.97 436.875 1684.52 438.425C1686.12 439.974 1686.91 442.185 1686.91 445.056C1686.91 447.79 1686.12 449.955 1684.52 451.55C1682.97 453.099 1680.78 453.874 1677.96 453.874C1675.04 453.874 1672.79 453.099 1671.19 451.55C1669.64 449.955 1668.87 447.79 1668.87 445.056Z" fill="#3595CA"/>
<path d="M1612.13 540.691L1583.42 465.085H1600.37L1615.75 509.04C1618.4 516.423 1619.99 522.393 1620.54 526.95H1621.08C1621.49 523.669 1623.09 517.699 1625.87 509.04L1641.25 465.085H1658.34L1629.49 540.691H1612.13Z" fill="#3595CA"/>
<path d="M1572.82 463.718C1576.06 463.718 1578.72 463.946 1580.82 464.401L1579.25 479.372C1576.97 478.825 1574.6 478.552 1572.14 478.552C1565.71 478.552 1560.49 480.648 1556.48 484.841C1552.52 489.034 1550.54 494.48 1550.54 501.179V540.691H1534.47V465.085H1547.05L1549.17 478.415H1549.99C1552.5 473.903 1555.76 470.326 1559.77 467.683C1563.82 465.04 1568.17 463.718 1572.82 463.718Z" fill="#3595CA"/>
<path d="M1486.83 542.058C1475.07 542.058 1465.86 538.64 1459.21 531.804C1452.6 524.922 1449.3 515.466 1449.3 503.435C1449.3 491.084 1452.37 481.377 1458.53 474.314C1464.68 467.25 1473.13 463.718 1483.89 463.718C1493.87 463.718 1501.75 466.748 1507.54 472.81C1513.33 478.871 1516.22 487.211 1516.22 497.829V506.511H1465.84C1466.07 513.848 1468.05 519.499 1471.79 523.464C1475.52 527.383 1480.79 529.343 1487.58 529.343C1492.04 529.343 1496.19 528.933 1500.02 528.112C1503.89 527.247 1508.04 525.834 1512.46 523.874V536.931C1508.54 538.799 1504.58 540.121 1500.57 540.896C1496.56 541.67 1491.98 542.058 1486.83 542.058ZM1483.89 475.886C1478.78 475.886 1474.68 477.504 1471.58 480.739C1468.53 483.975 1466.71 488.692 1466.11 494.89H1500.43C1500.34 488.646 1498.83 483.929 1495.92 480.739C1493 477.504 1488.99 475.886 1483.89 475.886Z" fill="#3595CA"/>
<path d="M1436.17 513.552C1436.17 522.439 1432.96 529.411 1426.53 534.47C1420.11 539.528 1411.24 542.058 1399.94 542.058C1388.64 542.058 1379.39 540.303 1372.19 536.794V521.345C1376.74 523.487 1381.58 525.173 1386.68 526.403C1391.83 527.634 1396.61 528.249 1401.04 528.249C1407.51 528.249 1412.27 527.019 1415.32 524.558C1418.42 522.097 1419.97 518.793 1419.97 514.646C1419.97 510.909 1418.56 507.741 1415.73 505.144C1412.91 502.546 1407.07 499.47 1398.23 495.915C1389.12 492.224 1382.69 488.008 1378.96 483.269C1375.22 478.529 1373.35 472.832 1373.35 466.179C1373.35 457.839 1376.31 451.276 1382.24 446.491C1388.16 441.706 1396.11 439.314 1406.09 439.314C1415.66 439.314 1425.19 441.41 1434.67 445.603L1429.47 458.933C1420.59 455.196 1412.66 453.327 1405.68 453.327C1400.4 453.327 1396.39 454.489 1393.65 456.814C1390.92 459.092 1389.55 462.123 1389.55 465.905C1389.55 468.503 1390.1 470.736 1391.19 472.605C1392.29 474.428 1394.09 476.159 1396.59 477.8C1399.1 479.441 1403.61 481.605 1410.13 484.294C1417.46 487.347 1422.84 490.196 1426.26 492.839C1429.68 495.482 1432.18 498.467 1433.78 501.794C1435.37 505.121 1436.17 509.04 1436.17 513.552Z" fill="#3595CA"/>
<defs>
<linearGradient id="paint0_linear_208_5634" x1="403.521" y1="76.1093" x2="444.476" y2="355.702" gradientUnits="userSpaceOnUse">
<stop offset="0.16" stop-color="#2E66A2"/>
<stop offset="0.86" stop-color="#27B1EF"/>
<stop offset="0.985" stop-color="#27B1EF"/>
</linearGradient>
<linearGradient id="paint1_linear_208_5634" x1="112.751" y1="-59.0481" x2="590.892" y2="231.753" gradientUnits="userSpaceOnUse">
<stop offset="0.025" stop-color="#1CACEB"/>
<stop offset="0.609233" stop-color="#47C4FB"/>
<stop offset="0.985" stop-color="#BAEAFF"/>
</linearGradient>
<linearGradient id="paint2_linear_208_5634" x1="351.622" y1="117.078" x2="351.622" y2="342.138" gradientUnits="userSpaceOnUse">
<stop offset="0.11" stop-color="#2AA5E0"/>
<stop offset="0.805" stop-color="#2F5297"/>
</linearGradient>
<linearGradient id="paint3_linear_208_5634" x1="268.022" y1="287.065" x2="291.941" y2="385.372" gradientUnits="userSpaceOnUse">
<stop offset="0.15" stop-color="#0B487F"/>
<stop offset="0.702136" stop-color="#2FACED" stop-opacity="0"/>
</linearGradient>
<linearGradient id="paint4_linear_208_5634" x1="268.022" y1="287.065" x2="291.941" y2="385.372" gradientUnits="userSpaceOnUse">
<stop offset="0.15" stop-color="#0B487F"/>
<stop offset="0.702136" stop-color="#2FACED" stop-opacity="0"/>
</linearGradient>
<linearGradient id="paint5_linear_208_5634" x1="396.645" y1="187.654" x2="298.337" y2="211.574" gradientUnits="userSpaceOnUse">
<stop offset="0.15" stop-color="#0B487F"/>
<stop offset="0.702136" stop-color="#2FACED" stop-opacity="0"/>
</linearGradient>
<linearGradient id="paint6_linear_208_5634" x1="396.645" y1="187.654" x2="298.337" y2="211.574" gradientUnits="userSpaceOnUse">
<stop offset="0.15" stop-color="#0B487F"/>
<stop offset="0.702136" stop-color="#2FACED" stop-opacity="0"/>
</linearGradient>
<linearGradient id="paint7_linear_208_5634" x1="351.623" y1="81.9741" x2="351.623" y2="342.138" gradientUnits="userSpaceOnUse">
<stop offset="0.15" stop-color="#2D75B6"/>
<stop offset="0.702136" stop-color="#2FACED"/>
</linearGradient>
</defs>
</svg>
