<svg width="1916" height="582" viewBox="0 0 1916 582" fill="none" xmlns="http://www.w3.org/2000/svg">
<path fill-rule="evenodd" clip-rule="evenodd" d="M1523.6 116.009V172.274H1569.97V219.673H1523.6V277.302C1523.6 285.259 1525.3 290.942 1528.71 294.352C1532.35 297.762 1537.69 299.467 1544.74 299.467C1549.74 299.467 1554.06 299.013 1557.7 298.103C1561.33 297.194 1564.74 295.716 1567.93 293.67L1572.36 333.908C1566.9 337.773 1559.51 340.728 1550.19 342.774C1540.87 345.048 1531.78 346.184 1522.91 346.184C1508.36 346.184 1495.97 344.252 1485.74 340.387C1475.74 336.523 1468.01 330.385 1462.56 321.973C1457.33 313.562 1454.71 302.309 1454.71 288.214V219.673H1426.75V172.274H1454.71V135.105L1523.6 116.009ZM1618.18 335.954C1632.5 342.774 1649.43 346.184 1668.99 346.184C1681.49 346.184 1693.42 344.479 1704.79 341.069C1716.16 337.432 1725.93 332.09 1734.12 325.042C1742.53 317.995 1748.1 309.243 1750.83 298.785L1695.58 282.417C1693.76 287.646 1690.81 291.738 1686.72 294.693C1682.63 297.649 1676.94 299.126 1669.67 299.126C1663.07 299.126 1657.62 297.99 1653.3 295.716C1648.98 293.443 1645.57 289.351 1643.07 283.44C1641.93 280.35 1641.07 276.713 1640.5 272.528H1752.53C1752.99 269.8 1753.33 266.504 1753.55 262.639C1754.01 258.775 1754.24 254.91 1754.24 251.045C1754.24 234.677 1750.71 220.355 1743.66 208.079C1736.84 195.803 1726.84 186.255 1713.66 179.435C1700.7 172.388 1684.9 168.864 1666.26 168.864C1648.07 168.864 1632.04 172.388 1618.18 179.435C1604.31 186.255 1593.51 196.258 1585.78 209.443C1578.05 222.629 1574.19 238.656 1574.19 257.524C1574.19 276.393 1577.94 292.42 1585.44 305.605C1593.17 318.791 1604.08 328.907 1618.18 335.954ZM1640.56 242.52C1641.01 239.083 1641.62 236.014 1642.39 233.313C1644.43 226.948 1647.39 222.401 1651.25 219.673C1655.35 216.945 1660.35 215.581 1666.26 215.581C1674.9 215.581 1680.92 218.991 1684.33 225.811C1686.67 230.06 1688.26 235.629 1689.1 242.52H1640.56ZM1830.99 172.274H1769.27V342.774H1838.15V258.888C1838.15 251.386 1839.74 245.248 1842.92 240.474C1846.1 235.473 1850.42 231.722 1855.88 229.221C1861.34 226.721 1867.47 225.47 1874.29 225.47C1879.07 225.47 1883.27 225.811 1886.91 226.493C1890.55 227.175 1893.5 227.971 1895.78 228.88L1901.91 172.956C1900.55 171.82 1898.39 170.91 1895.44 170.228C1892.48 169.319 1888.62 168.864 1883.84 168.864C1870.43 168.864 1859.52 172.729 1851.11 180.458C1842.92 188.188 1836.9 198.759 1833.03 212.171L1830.99 172.274ZM1237.84 172.274V414.384H1306.72V313.215C1309.73 319.878 1313.59 325.867 1318.31 331.18C1327.63 341.183 1340.37 346.184 1356.51 346.184C1370.37 346.184 1382.31 342.661 1392.31 335.613C1402.54 328.566 1410.38 318.336 1415.84 304.923C1421.3 291.511 1424.02 275.484 1424.02 256.842C1424.02 238.201 1421.3 222.401 1415.84 209.443C1410.61 196.258 1403 186.255 1392.99 179.435C1382.99 172.388 1370.94 168.864 1356.85 168.864C1345.25 168.864 1335.02 171.706 1326.16 177.389C1317.52 182.845 1310.58 190.347 1305.36 199.895C1304.11 202.176 1302.97 204.541 1301.96 206.99L1300.24 172.274H1237.84ZM1348.32 288.214C1344 293.898 1337.98 296.739 1330.25 296.739C1325.25 296.739 1320.93 295.262 1317.29 292.306C1313.65 289.351 1310.93 284.918 1309.11 279.007C1307.52 273.097 1306.72 265.936 1306.72 257.524C1306.72 248.658 1307.63 241.384 1309.45 235.7C1311.49 229.79 1314.34 225.357 1317.97 222.401C1321.61 219.446 1325.82 217.968 1330.59 217.968C1338.09 217.968 1344 220.924 1348.32 226.834C1352.64 232.745 1354.8 242.975 1354.8 257.524C1354.8 272.074 1352.64 282.304 1348.32 288.214ZM1129.52 168.864C1148.16 168.864 1164.41 172.388 1178.28 179.435C1192.15 186.255 1202.95 196.258 1210.68 209.443C1218.41 222.629 1222.27 238.656 1222.27 257.524C1222.27 276.166 1218.41 292.193 1210.68 305.605C1202.95 318.791 1192.15 328.907 1178.28 335.954C1164.41 342.774 1148.16 346.184 1129.52 346.184C1111.33 346.184 1095.19 342.774 1081.1 335.954C1067.23 328.907 1056.32 318.791 1048.36 305.605C1040.63 292.193 1036.77 276.166 1036.77 257.524C1036.77 238.656 1040.63 222.629 1048.36 209.443C1056.32 196.258 1067.23 186.255 1081.1 179.435C1095.19 172.388 1111.33 168.864 1129.52 168.864ZM1129.52 216.263C1124.52 216.263 1120.2 217.514 1116.56 220.014C1113.15 222.515 1110.54 226.834 1108.72 232.972C1106.9 239.11 1105.99 247.294 1105.99 257.524C1105.99 267.754 1106.9 275.938 1108.72 282.076C1110.54 287.987 1113.15 292.306 1116.56 295.034C1120.2 297.535 1124.52 298.785 1129.52 298.785C1134.75 298.785 1139.07 297.535 1142.48 295.034C1145.89 292.306 1148.5 287.987 1150.32 282.076C1152.14 275.938 1153.05 267.754 1153.05 257.524C1153.05 247.294 1152.14 239.11 1150.32 232.972C1148.5 226.834 1145.89 222.515 1142.48 220.014C1139.07 217.514 1134.75 216.263 1129.52 216.263ZM992.323 177.048C980.047 171.592 964.361 168.864 945.265 168.864C926.851 168.864 910.71 172.388 896.843 179.435C882.975 186.255 872.177 196.258 864.448 209.443C856.718 222.629 852.854 238.656 852.854 257.524C852.854 276.393 856.718 292.42 864.448 305.605C872.177 318.791 883.203 328.907 897.525 335.954C911.847 342.774 928.783 346.184 948.334 346.184C964.702 346.184 978.91 343.797 990.959 339.023C1003.01 334.249 1012.44 327.884 1019.26 319.927C1026.31 311.971 1030.29 303.105 1031.2 293.329L969.476 273.892C969.021 279.121 967.884 283.668 966.066 287.532C964.247 291.17 961.86 294.011 958.905 296.057C956.177 297.876 952.539 298.785 947.993 298.785C942.991 298.785 938.445 297.649 934.353 295.375C930.488 292.875 927.419 288.669 925.146 282.758C923.1 276.848 922.077 268.664 922.077 258.206C922.077 247.976 922.986 239.792 924.805 233.654C926.623 227.516 929.465 223.083 933.33 220.355C937.194 217.627 941.968 216.263 947.652 216.263C954.244 216.263 959.018 218.537 961.974 223.083C965.156 227.63 967.089 234.564 967.771 243.884L1031.54 224.447C1030.63 215.127 1026.99 206.261 1020.63 197.849C1014.26 189.211 1004.83 182.277 992.323 177.048ZM802.793 188.271C789.153 188.271 779.264 185.884 773.126 181.11C767.215 176.336 764.26 168.606 764.26 157.922C764.26 147.01 767.215 139.167 773.126 134.393C779.264 129.619 789.153 127.232 802.793 127.232C816.433 127.232 826.208 129.619 832.119 134.393C838.257 139.167 841.326 147.01 841.326 157.922C841.326 168.606 838.257 176.336 832.119 181.11C826.208 185.884 816.433 188.271 802.793 188.271ZM837.234 195.275V342.775H768.352V195.275C794.861 205.77 813.361 204.27 837.234 195.275ZM727.234 279.348V132.695C697.86 132.695 679.36 134.483 658.352 141.983V289.237C658.352 309.697 662.671 324.36 671.31 333.226C679.948 341.865 694.157 346.184 713.935 346.184C721.209 346.184 728.484 345.275 735.759 343.456C743.261 341.638 751.331 338.052 755.423 335.097V297.762C752.922 298.672 750.535 299.354 748.262 299.808C746.216 300.036 743.829 300.149 741.101 300.149C735.418 300.149 732.917 298.217 730.644 295.034C728.37 291.852 727.234 286.623 727.234 279.348ZM558.411 346.185C538.861 346.185 521.924 342.775 507.602 335.955C493.508 328.907 482.596 318.791 474.866 305.606C467.364 292.42 463.613 276.393 463.613 257.525C463.613 238.656 467.478 222.629 475.207 209.444C482.937 196.258 493.735 186.256 507.602 179.436C521.47 172.388 537.497 168.865 555.683 168.865C574.325 168.865 590.124 172.388 603.082 179.436C616.268 186.256 626.27 195.804 633.09 208.08C640.138 220.356 643.661 234.678 643.661 251.046C643.661 254.91 643.434 258.775 642.979 262.64C642.752 266.504 642.411 269.801 641.956 272.529H529.926C530.494 276.713 531.351 280.351 532.495 283.441C534.996 289.351 538.406 293.443 542.725 295.717C547.045 297.99 552.501 299.127 559.093 299.127C566.368 299.127 572.051 297.649 576.143 294.694C580.235 291.738 583.191 287.646 585.009 282.418L640.251 298.786C637.523 309.243 631.954 317.995 623.542 325.043C615.358 332.09 605.583 337.432 594.216 341.07C582.85 344.48 570.915 346.185 558.411 346.185ZM578.522 242.521H529.989C530.434 239.083 531.042 236.014 531.813 233.314C533.859 226.948 536.815 222.402 540.679 219.674C544.771 216.946 549.773 215.582 555.683 215.582C564.322 215.582 570.346 218.992 573.756 225.812C576.1 230.06 577.689 235.629 578.522 242.521ZM311.25 342.775V238.73L241.686 281.474V342.775H311.25Z" fill="url(#paint0_linear_208_5634)"/>
<path d="M314.964 77.0137V209.506L245.4 245.635V88.6351C261.226 77.0137 295.262 72.2249 314.964 77.0137Z" fill="white"/>
<path d="M197.162 18.9061C348.08 -17.1378 418.987 65.0737 418.987 65.0737C418.987 65.0737 328.288 10.4318 204.267 47.7121C80.2455 84.9924 68.1926 179.069 68.1927 217.597C68.1927 256.125 89.4493 292.198 149.641 284.839C209.832 277.48 366.216 154.02 596.97 106.458C827.724 58.8955 1001.25 154.026 1001.25 154.026C1001.25 154.026 789.151 44.2108 505.953 167.654C314.801 250.976 262.68 374.219 144.435 374.219C26.1899 374.22 -0.000160434 283.202 -9.08135e-05 217.597C-2.11933e-05 151.992 46.2445 54.95 197.162 18.9061Z" fill="url(#paint1_linear_208_5634)"/>
<path d="M388.385 233.031L367.148 248.046L345.758 264.152L332.434 199.399L359.983 186.392L374.119 179.911L387.916 173.882L388.385 233.031Z" fill="url(#paint2_linear_208_5634)"/>
<path d="M457.844 119.73V342.138H387.939V85.1696C416.859 89.576 440.363 101.234 457.844 119.73Z" fill="white"/>
<path d="M1909.7 519.157C1909.7 526.54 1907.01 532.214 1901.63 536.179C1896.25 540.098 1888.55 542.058 1878.53 542.058C1868.45 542.058 1860.36 540.531 1854.26 537.478V523.601C1863.14 527.702 1871.42 529.753 1879.07 529.753C1888.96 529.753 1893.91 526.768 1893.91 520.798C1893.91 518.884 1893.36 517.289 1892.27 516.013C1891.17 514.737 1889.37 513.415 1886.87 512.048C1884.36 510.681 1880.87 509.131 1876.41 507.4C1867.7 504.027 1861.8 500.655 1858.7 497.282C1855.65 493.91 1854.12 489.535 1854.12 484.157C1854.12 477.686 1856.72 472.673 1861.91 469.118C1867.15 465.518 1874.26 463.718 1883.24 463.718C1892.13 463.718 1900.54 465.518 1908.47 469.118L1903.27 481.218C1895.11 477.845 1888.26 476.159 1882.7 476.159C1874.22 476.159 1869.98 478.575 1869.98 483.405C1869.98 485.775 1871.07 487.78 1873.26 489.421C1875.49 491.062 1880.33 493.318 1887.75 496.189C1894 498.604 1898.53 500.814 1901.36 502.819C1904.18 504.825 1906.28 507.149 1907.65 509.792C1909.01 512.39 1909.7 515.512 1909.7 519.157Z" fill="#3595CA"/>
<path d="M1811.26 542.058C1799.5 542.058 1790.3 538.64 1783.64 531.804C1777.03 524.922 1773.73 515.466 1773.73 503.435C1773.73 491.084 1776.81 481.377 1782.96 474.314C1789.11 467.25 1797.57 463.718 1808.32 463.718C1818.3 463.718 1826.18 466.748 1831.97 472.81C1837.76 478.871 1840.65 487.211 1840.65 497.829V506.511H1790.27C1790.5 513.848 1792.48 519.499 1796.22 523.464C1799.96 527.383 1805.22 529.343 1812.01 529.343C1816.48 529.343 1820.62 528.933 1824.45 528.112C1828.33 527.247 1832.47 525.834 1836.89 523.874V536.931C1832.98 538.799 1829.01 540.121 1825 540.896C1820.99 541.67 1816.41 542.058 1811.26 542.058ZM1808.32 475.886C1803.22 475.886 1799.11 477.504 1796.02 480.739C1792.96 483.975 1791.14 488.692 1790.55 494.89H1824.86C1824.77 488.646 1823.27 483.929 1820.35 480.739C1817.43 477.504 1813.42 475.886 1808.32 475.886Z" fill="#3595CA"/>
<path d="M1739.41 542.058C1727.98 542.058 1719.27 538.731 1713.3 532.077C1707.38 525.378 1704.41 515.785 1704.41 503.298C1704.41 490.583 1707.51 480.808 1713.71 473.972C1719.95 467.136 1728.96 463.718 1740.71 463.718C1748.69 463.718 1755.87 465.199 1762.25 468.161L1757.39 481.081C1750.6 478.438 1745 477.116 1740.58 477.116C1727.5 477.116 1720.96 485.798 1720.96 503.161C1720.96 511.638 1722.57 518.018 1725.81 522.302C1729.09 526.54 1733.88 528.659 1740.17 528.659C1747.32 528.659 1754.09 526.882 1760.47 523.327V537.341C1757.6 539.027 1754.52 540.235 1751.24 540.964C1748 541.693 1744.06 542.058 1739.41 542.058Z" fill="#3595CA"/>
<path d="M1685.89 540.691H1669.82V465.085H1685.89V540.691ZM1668.87 445.056C1668.87 442.185 1669.64 439.974 1671.19 438.425C1672.79 436.875 1675.04 436.101 1677.96 436.101C1680.78 436.101 1682.97 436.875 1684.52 438.425C1686.12 439.974 1686.91 442.185 1686.91 445.056C1686.91 447.79 1686.12 449.955 1684.52 451.55C1682.97 453.099 1680.78 453.874 1677.96 453.874C1675.04 453.874 1672.79 453.099 1671.19 451.55C1669.64 449.955 1668.87 447.79 1668.87 445.056Z" fill="#3595CA"/>
<path d="M1612.13 540.691L1583.42 465.085H1600.37L1615.75 509.04C1618.4 516.423 1619.99 522.393 1620.54 526.95H1621.08C1621.49 523.669 1623.09 517.699 1625.87 509.04L1641.25 465.085H1658.34L1629.49 540.691H1612.13Z" fill="#3595CA"/>
<path d="M1572.82 463.718C1576.06 463.718 1578.72 463.946 1580.82 464.401L1579.25 479.372C1576.97 478.825 1574.6 478.552 1572.14 478.552C1565.71 478.552 1560.49 480.648 1556.48 484.841C1552.52 489.034 1550.54 494.48 1550.54 501.179V540.691H1534.47V465.085H1547.05L1549.17 478.415H1549.99C1552.5 473.903 1555.76 470.326 1559.77 467.683C1563.82 465.04 1568.17 463.718 1572.82 463.718Z" fill="#3595CA"/>
<path d="M1486.83 542.058C1475.07 542.058 1465.86 538.64 1459.21 531.804C1452.6 524.922 1449.3 515.466 1449.3 503.435C1449.3 491.084 1452.37 481.377 1458.53 474.314C1464.68 467.25 1473.13 463.718 1483.89 463.718C1493.87 463.718 1501.75 466.748 1507.54 472.81C1513.33 478.871 1516.22 487.211 1516.22 497.829V506.511H1465.84C1466.07 513.848 1468.05 519.499 1471.79 523.464C1475.52 527.383 1480.79 529.343 1487.58 529.343C1492.04 529.343 1496.19 528.933 1500.02 528.112C1503.89 527.247 1508.04 525.834 1512.46 523.874V536.931C1508.54 538.799 1504.58 540.121 1500.57 540.896C1496.56 541.67 1491.98 542.058 1486.83 542.058ZM1483.89 475.886C1478.78 475.886 1474.68 477.504 1471.58 480.739C1468.53 483.975 1466.71 488.692 1466.11 494.89H1500.43C1500.34 488.646 1498.83 483.929 1495.92 480.739C1493 477.504 1488.99 475.886 1483.89 475.886Z" fill="#3595CA"/>
<path d="M1436.17 513.552C1436.17 522.439 1432.96 529.411 1426.53 534.47C1420.11 539.528 1411.24 542.058 1399.94 542.058C1388.64 542.058 1379.39 540.303 1372.19 536.794V521.345C1376.74 523.487 1381.58 525.173 1386.68 526.403C1391.83 527.634 1396.61 528.249 1401.04 528.249C1407.51 528.249 1412.27 527.019 1415.32 524.558C1418.42 522.097 1419.97 518.793 1419.97 514.646C1419.97 510.909 1418.56 507.741 1415.73 505.144C1412.91 502.546 1407.07 499.47 1398.23 495.915C1389.12 492.224 1382.69 488.008 1378.96 483.269C1375.22 478.529 1373.35 472.832 1373.35 466.179C1373.35 457.839 1376.31 451.276 1382.24 446.491C1388.16 441.706 1396.11 439.314 1406.09 439.314C1415.66 439.314 1425.19 441.41 1434.67 445.603L1429.47 458.933C1420.59 455.196 1412.66 453.327 1405.68 453.327C1400.4 453.327 1396.39 454.489 1393.65 456.814C1390.92 459.092 1389.55 462.123 1389.55 465.905C1389.55 468.503 1390.1 470.736 1391.19 472.605C1392.29 474.428 1394.09 476.159 1396.59 477.8C1399.1 479.441 1403.61 481.605 1410.13 484.294C1417.46 487.347 1422.84 490.196 1426.26 492.839C1429.68 495.482 1432.18 498.467 1433.78 501.794C1435.37 505.121 1436.17 509.04 1436.17 513.552Z" fill="#3595CA"/>
<defs>
<linearGradient id="paint0_linear_208_5634" x1="303.507" y1="331.955" x2="264.01" y2="291.789" gradientUnits="userSpaceOnUse">
<stop stop-color="white"/>
<stop offset="1" stop-color="#999999"/>
</linearGradient>
<linearGradient id="paint1_linear_208_5634" x1="112.751" y1="-59.0481" x2="590.892" y2="231.753" gradientUnits="userSpaceOnUse">
<stop offset="0.025" stop-color="#1CACEB"/>
<stop offset="0.609233" stop-color="#47C4FB"/>
<stop offset="0.985" stop-color="#BAEAFF"/>
</linearGradient>
<linearGradient id="paint2_linear_208_5634" x1="396.645" y1="187.654" x2="317.819" y2="216.303" gradientUnits="userSpaceOnUse">
<stop offset="0.15" stop-color="#0B487F"/>
<stop offset="0.702136" stop-color="#2FACED" stop-opacity="0"/>
</linearGradient>
</defs>
</svg>
