<svg width="1916" height="583" viewBox="0 0 1916 583" fill="none" xmlns="http://www.w3.org/2000/svg">
<path fill-rule="evenodd" clip-rule="evenodd" d="M419.197 65.6515C419.197 65.6515 347.743 -16.8127 196.826 19.2312C45.9077 55.2752 7.03112e-05 152.317 1.3606e-10 217.922C-6.89292e-05 283.527 26.19 374.545 144.435 374.545C182.697 374.545 214.036 361.64 245.401 341.36V342.464H314.965V288.805C336.784 271.327 360.544 252.506 387.94 233.691V342.464H457.844V191.182C472.866 183.206 488.853 175.433 505.953 167.98C789.151 44.536 1001.02 154.202 1001.02 154.202C1001.02 154.202 827.725 59.2207 596.97 106.783C536.201 119.308 480.521 137.441 430.382 157.404H387.94V175.242C361.827 186.78 337.477 198.543 314.965 209.878V157.404H245.401V245.939C202.397 268.397 170.133 284.334 149.641 285.164C90.4525 287.563 65.5033 256.45 65.5033 217.922C65.5033 179.394 79.9088 85.3175 203.93 48.0372C327.951 10.7569 419.197 65.6515 419.197 65.6515ZM1537.31 171.963V115.698L1468.43 134.794V171.963H1440.47V219.362H1468.43V287.903C1468.43 301.998 1471.05 313.251 1476.27 321.662C1481.73 330.074 1489.46 336.212 1499.46 340.076C1509.69 343.941 1522.08 345.873 1536.63 345.873C1545.5 345.873 1554.59 344.737 1563.91 342.463C1573.23 340.417 1580.62 337.462 1586.08 333.597L1581.64 293.359C1578.46 295.405 1575.05 296.883 1571.41 297.792C1567.78 298.702 1563.46 299.156 1558.45 299.156C1551.41 299.156 1546.07 297.451 1542.43 294.041C1539.02 290.631 1537.31 284.948 1537.31 276.991V219.362H1583.69V171.963H1537.31ZM1682.7 345.873C1663.15 345.873 1646.21 342.463 1631.89 335.643C1617.8 328.596 1606.89 318.48 1599.16 305.294C1591.65 292.109 1587.9 276.082 1587.9 257.213C1587.9 238.345 1591.77 222.318 1599.5 209.132C1607.23 195.947 1618.03 185.944 1631.89 179.124C1645.76 172.077 1661.79 168.553 1679.97 168.553C1698.61 168.553 1714.41 172.077 1727.37 179.124C1740.56 185.944 1750.56 195.492 1757.38 207.768C1764.43 220.044 1767.95 234.366 1767.95 250.734C1767.95 254.599 1767.72 258.464 1767.27 262.328C1767.04 266.193 1766.7 269.489 1766.25 272.217H1654.22C1654.78 276.402 1655.64 280.039 1656.79 283.129C1659.29 289.04 1662.7 293.132 1667.02 295.405C1671.33 297.679 1676.79 298.815 1683.38 298.815C1690.66 298.815 1696.34 297.338 1700.43 294.382C1704.53 291.427 1707.48 287.335 1709.3 282.106L1764.54 298.474C1761.81 308.932 1756.24 317.684 1747.83 324.731C1739.65 331.779 1729.87 337.121 1718.51 340.758C1707.14 344.168 1695.2 345.873 1682.7 345.873ZM1656.1 233.002C1655.33 235.703 1654.72 238.772 1654.28 242.209H1702.81C1701.98 235.318 1700.39 229.748 1698.05 225.5C1694.64 218.68 1688.61 215.27 1679.97 215.27C1674.06 215.27 1669.06 216.634 1664.97 219.362C1661.1 222.09 1658.15 226.637 1656.1 233.002ZM1782.98 171.963H1844.7L1846.75 211.86C1850.61 198.448 1856.64 187.877 1864.82 180.147C1873.23 172.418 1884.14 168.553 1897.56 168.553C1902.33 168.553 1906.2 169.008 1909.15 169.917C1912.11 170.599 1914.27 171.509 1915.63 172.645L1909.49 228.569C1907.22 227.66 1904.26 226.864 1900.63 226.182C1896.99 225.5 1892.78 225.159 1888.01 225.159C1881.19 225.159 1875.05 226.41 1869.6 228.91C1864.14 231.411 1859.82 235.162 1856.64 240.163C1853.45 244.937 1851.86 251.075 1851.86 258.577V342.463H1782.98V171.963ZM1251.55 171.963H1313.96L1315.68 206.679C1316.69 204.23 1317.82 201.865 1319.07 199.584C1324.3 190.036 1331.24 182.534 1339.87 177.078C1348.74 171.395 1358.97 168.553 1370.56 168.553C1384.66 168.553 1396.71 172.077 1406.71 179.124C1416.71 185.944 1424.33 195.947 1429.56 209.132C1435.01 222.09 1437.74 237.89 1437.74 256.531C1437.74 275.173 1435.01 291.2 1429.56 304.612C1424.1 318.025 1416.26 328.255 1406.03 335.302C1396.03 342.35 1384.09 345.873 1370.22 345.873C1354.08 345.873 1341.35 340.872 1332.03 330.869C1327.31 325.555 1323.44 319.567 1320.44 312.904V414.073H1251.55V171.963ZM1343.97 296.428C1351.7 296.428 1357.72 293.587 1362.04 287.903C1366.36 281.993 1368.52 271.763 1368.52 257.213C1368.52 242.664 1366.36 232.434 1362.04 226.523C1357.72 220.613 1351.81 217.657 1344.31 217.657C1339.53 217.657 1335.33 219.135 1331.69 222.09C1328.05 225.046 1325.21 229.479 1323.16 235.389C1321.35 241.073 1320.44 248.347 1320.44 257.213C1320.44 265.625 1321.23 272.786 1322.82 278.696C1324.64 284.607 1327.37 289.04 1331.01 291.995C1334.65 294.951 1338.96 296.428 1343.97 296.428ZM1192 179.124C1178.13 172.077 1161.87 168.553 1143.23 168.553C1125.05 168.553 1108.91 172.077 1094.81 179.124C1080.94 185.944 1070.03 195.947 1062.08 209.132C1054.35 222.318 1050.48 238.345 1050.48 257.213C1050.48 275.855 1054.35 291.882 1062.08 305.294C1070.03 318.48 1080.94 328.596 1094.81 335.643C1108.91 342.463 1125.05 345.873 1143.23 345.873C1161.87 345.873 1178.13 342.463 1192 335.643C1205.86 328.596 1216.66 318.48 1224.39 305.294C1232.12 291.882 1235.99 275.855 1235.99 257.213C1235.99 238.345 1232.12 222.318 1224.39 209.132C1216.66 195.947 1205.86 185.944 1192 179.124ZM1130.28 219.703C1133.91 217.203 1138.23 215.952 1143.23 215.952C1148.46 215.952 1152.78 217.203 1156.19 219.703C1159.6 222.204 1162.22 226.523 1164.03 232.661C1165.85 238.799 1166.76 246.983 1166.76 257.213C1166.76 267.443 1165.85 275.627 1164.03 281.765C1162.22 287.676 1159.6 291.995 1156.19 294.723C1152.78 297.224 1148.46 298.474 1143.23 298.474C1138.23 298.474 1133.91 297.224 1130.28 294.723C1126.87 291.995 1124.25 287.676 1122.43 281.765C1120.61 275.627 1119.7 267.443 1119.7 257.213C1119.7 246.983 1120.61 238.799 1122.43 232.661C1124.25 226.523 1126.87 222.204 1130.28 219.703ZM958.979 168.553C978.076 168.553 993.762 171.281 1006.04 176.737C1018.54 181.966 1027.98 188.9 1034.34 197.538C1040.71 205.95 1044.34 214.816 1045.25 224.136L981.486 243.573C980.804 234.253 978.871 227.319 975.689 222.772C972.733 218.226 967.959 215.952 961.367 215.952C955.683 215.952 950.909 217.316 947.044 220.044C943.18 222.772 940.338 227.205 938.52 233.343C936.701 239.481 935.792 247.665 935.792 257.895C935.792 268.353 936.815 276.537 938.861 282.447C941.134 288.358 944.203 292.564 948.068 295.064C952.159 297.338 956.706 298.474 961.708 298.474C966.254 298.474 969.891 297.565 972.62 295.746C975.575 293.7 977.962 290.859 979.781 287.221C981.599 283.357 982.736 278.81 983.19 273.581L1044.91 293.018C1044 302.794 1040.02 311.66 1032.98 319.616C1026.16 327.573 1016.72 333.938 1004.67 338.712C992.625 343.486 978.417 345.873 962.049 345.873C942.498 345.873 925.562 342.463 911.24 335.643C896.917 328.596 885.892 318.48 878.163 305.294C870.433 292.109 866.568 276.082 866.568 257.213C866.568 238.345 870.433 222.318 878.163 209.132C885.892 195.947 896.69 185.944 910.557 179.124C924.425 172.077 940.565 168.553 958.979 168.553ZM786.841 180.798C792.979 185.572 802.868 187.959 816.508 187.959C830.148 187.959 839.923 185.572 845.834 180.798C851.972 176.024 855.041 168.295 855.041 157.61C855.041 146.698 851.972 138.855 845.834 134.081C839.923 129.307 830.148 126.92 816.508 126.92C802.868 126.92 792.979 129.307 786.841 134.081C780.93 138.855 777.975 146.698 777.975 157.61C777.975 168.295 780.93 176.024 786.841 180.798ZM850.949 342.463V194.963C827.076 203.958 808.576 205.458 782.067 194.963V342.463H850.949ZM740.95 132.407V279.037C740.95 286.312 742.086 291.541 744.359 294.723C746.633 297.906 749.133 299.838 754.817 299.838C757.545 299.838 759.932 299.725 761.978 299.497C764.251 299.043 766.638 298.361 769.139 297.451V334.786C765.047 337.741 756.977 341.327 749.474 343.145C742.2 344.964 734.925 345.873 727.651 345.873C707.872 345.873 693.664 341.554 685.026 332.915C676.387 324.049 672.068 309.386 672.068 288.926V141.707C693.076 134.207 715.861 132.407 740.95 132.407ZM521.318 335.643C535.64 342.464 552.577 345.874 572.127 345.874C584.631 345.874 596.566 344.169 607.932 340.759C619.299 337.121 629.074 331.779 637.258 324.732C645.67 317.684 651.239 308.932 653.967 298.474L598.725 282.107C596.907 287.335 593.951 291.427 589.859 294.383C585.767 297.338 580.084 298.815 572.809 298.815C566.217 298.815 560.761 297.679 556.441 295.405C552.122 293.132 548.712 289.04 546.211 283.129C545.067 280.039 544.21 276.402 543.642 272.217H655.672C656.127 269.49 656.468 266.193 656.695 262.328C657.15 258.464 657.377 254.599 657.377 250.734C657.377 234.366 653.854 220.044 646.806 207.768C639.986 195.492 629.984 185.944 616.798 179.124C603.84 172.077 588.041 168.553 569.399 168.553C551.213 168.553 535.186 172.077 521.318 179.124C507.451 185.944 496.653 195.947 488.923 209.132C481.194 222.318 477.329 238.345 477.329 257.214C477.329 276.082 481.08 292.109 488.582 305.294C496.312 318.48 507.224 328.596 521.318 335.643ZM592.238 242.21H543.705C544.15 238.772 544.758 235.703 545.529 233.003C547.575 226.637 550.531 222.09 554.395 219.362C558.487 216.634 563.489 215.27 569.399 215.27C578.038 215.27 584.062 218.68 587.472 225.5C589.816 229.749 591.405 235.318 592.238 242.21Z" fill="url(#paint0_linear_188_46658)"/>
<path fill-rule="evenodd" clip-rule="evenodd" d="M419.317 65.7101C419.317 65.7101 348.216 -16.9038 197.298 19.1401C46.3802 55.184 6.94953e-05 152.317 1.393e-10 217.922C-6.97451e-05 283.527 26.19 374.545 144.435 374.545C182.697 374.545 214.036 361.64 245.401 341.36V342.464H314.965V288.805C336.784 271.327 360.544 252.506 387.94 233.691V342.464H457.844V191.182C472.866 183.206 488.853 175.433 505.953 167.98C789.151 44.536 1000.92 154.154 1000.92 154.154C1000.92 154.154 827.725 59.2208 596.97 106.783C547.082 117.066 500.623 131.128 457.844 146.879V137.404H387.94V175.242C361.827 186.78 337.477 198.543 314.965 209.878V147.404H245.401V245.939C202.397 268.397 170.133 284.334 149.641 285.164C90.4525 287.563 65.5033 256.45 65.5033 217.922C65.5033 179.394 80.3812 85.2264 204.402 47.9461C328.423 10.6658 419.317 65.7101 419.317 65.7101ZM1537.31 171.963V115.698L1468.43 134.794V171.963H1440.47V219.362H1468.43V287.903C1468.43 301.998 1471.05 313.251 1476.27 321.662C1481.73 330.074 1489.46 336.212 1499.46 340.076C1509.69 343.941 1522.08 345.873 1536.63 345.873C1545.5 345.873 1554.59 344.737 1563.91 342.463C1573.23 340.417 1580.62 337.462 1586.08 333.597L1581.64 293.359C1578.46 295.405 1575.05 296.883 1571.41 297.792C1567.78 298.702 1563.46 299.156 1558.45 299.156C1551.41 299.156 1546.07 297.451 1542.43 294.041C1539.02 290.631 1537.31 284.948 1537.31 276.991V219.362H1583.69V171.963H1537.31ZM1682.7 345.873C1663.15 345.873 1646.21 342.463 1631.89 335.643C1617.8 328.596 1606.89 318.48 1599.16 305.294C1591.65 292.109 1587.9 276.082 1587.9 257.213C1587.9 238.345 1591.77 222.318 1599.5 209.132C1607.23 195.947 1618.03 185.944 1631.89 179.124C1645.76 172.077 1661.79 168.553 1679.97 168.553C1698.61 168.553 1714.41 172.077 1727.37 179.124C1740.56 185.944 1750.56 195.492 1757.38 207.768C1764.43 220.044 1767.95 234.366 1767.95 250.734C1767.95 254.599 1767.72 258.464 1767.27 262.328C1767.04 266.193 1766.7 269.489 1766.25 272.217H1654.22C1654.78 276.402 1655.64 280.039 1656.79 283.129C1659.29 289.04 1662.7 293.132 1667.02 295.405C1671.33 297.679 1676.79 298.815 1683.38 298.815C1690.66 298.815 1696.34 297.338 1700.43 294.382C1704.53 291.427 1707.48 287.335 1709.3 282.106L1764.54 298.474C1761.81 308.932 1756.24 317.684 1747.83 324.731C1739.65 331.779 1729.87 337.121 1718.51 340.758C1707.14 344.168 1695.2 345.873 1682.7 345.873ZM1656.1 233.002C1655.33 235.703 1654.72 238.772 1654.28 242.209H1702.81C1701.98 235.318 1700.39 229.748 1698.05 225.5C1694.64 218.68 1688.61 215.27 1679.97 215.27C1674.06 215.27 1669.06 216.634 1664.97 219.362C1661.1 222.09 1658.15 226.637 1656.1 233.002ZM1782.98 171.963H1844.7L1846.75 211.86C1850.61 198.448 1856.64 187.877 1864.82 180.147C1873.23 172.418 1884.14 168.553 1897.56 168.553C1902.33 168.553 1906.2 169.008 1909.15 169.917C1912.11 170.599 1914.27 171.509 1915.63 172.645L1909.49 228.569C1907.22 227.66 1904.26 226.864 1900.63 226.182C1896.99 225.5 1892.78 225.159 1888.01 225.159C1881.19 225.159 1875.05 226.41 1869.6 228.91C1864.14 231.411 1859.82 235.162 1856.64 240.163C1853.45 244.937 1851.86 251.075 1851.86 258.577V342.463H1782.98V171.963ZM1251.55 171.963H1313.96L1315.68 206.679C1316.69 204.23 1317.82 201.865 1319.07 199.584C1324.3 190.036 1331.24 182.534 1339.87 177.078C1348.74 171.395 1358.97 168.553 1370.56 168.553C1384.66 168.553 1396.71 172.077 1406.71 179.124C1416.71 185.944 1424.33 195.947 1429.56 209.132C1435.01 222.09 1437.74 237.89 1437.74 256.531C1437.74 275.173 1435.01 291.2 1429.56 304.612C1424.1 318.025 1416.26 328.255 1406.03 335.302C1396.03 342.35 1384.09 345.873 1370.22 345.873C1354.08 345.873 1341.35 340.872 1332.03 330.869C1327.31 325.555 1323.44 319.567 1320.44 312.904V414.073H1251.55V171.963ZM1343.97 296.428C1351.7 296.428 1357.72 293.587 1362.04 287.903C1366.36 281.993 1368.52 271.763 1368.52 257.213C1368.52 242.664 1366.36 232.434 1362.04 226.523C1357.72 220.613 1351.81 217.657 1344.31 217.657C1339.53 217.657 1335.33 219.135 1331.69 222.09C1328.05 225.046 1325.21 229.479 1323.16 235.389C1321.35 241.073 1320.44 248.347 1320.44 257.213C1320.44 265.625 1321.23 272.786 1322.82 278.696C1324.64 284.607 1327.37 289.04 1331.01 291.995C1334.65 294.951 1338.96 296.428 1343.97 296.428ZM1192 179.124C1178.13 172.077 1161.87 168.553 1143.23 168.553C1125.05 168.553 1108.91 172.077 1094.81 179.124C1080.94 185.944 1070.03 195.947 1062.08 209.132C1054.35 222.318 1050.48 238.345 1050.48 257.213C1050.48 275.855 1054.35 291.882 1062.08 305.294C1070.03 318.48 1080.94 328.596 1094.81 335.643C1108.91 342.463 1125.05 345.873 1143.23 345.873C1161.87 345.873 1178.13 342.463 1192 335.643C1205.86 328.596 1216.66 318.48 1224.39 305.294C1232.12 291.882 1235.99 275.855 1235.99 257.213C1235.99 238.345 1232.12 222.318 1224.39 209.132C1216.66 195.947 1205.86 185.944 1192 179.124ZM1130.28 219.703C1133.91 217.203 1138.23 215.952 1143.23 215.952C1148.46 215.952 1152.78 217.203 1156.19 219.703C1159.6 222.204 1162.22 226.523 1164.03 232.661C1165.85 238.799 1166.76 246.983 1166.76 257.213C1166.76 267.443 1165.85 275.627 1164.03 281.765C1162.22 287.676 1159.6 291.995 1156.19 294.723C1152.78 297.224 1148.46 298.474 1143.23 298.474C1138.23 298.474 1133.91 297.224 1130.28 294.723C1126.87 291.995 1124.25 287.676 1122.43 281.765C1120.61 275.627 1119.7 267.443 1119.7 257.213C1119.7 246.983 1120.61 238.799 1122.43 232.661C1124.25 226.523 1126.87 222.204 1130.28 219.703ZM958.979 168.553C978.076 168.553 993.762 171.281 1006.04 176.737C1018.54 181.966 1027.98 188.9 1034.34 197.538C1040.71 205.95 1044.34 214.816 1045.25 224.136L981.486 243.573C980.804 234.253 978.871 227.319 975.689 222.772C972.733 218.226 967.959 215.952 961.367 215.952C955.683 215.952 950.909 217.316 947.044 220.044C943.18 222.772 940.338 227.205 938.52 233.343C936.701 239.481 935.792 247.665 935.792 257.895C935.792 268.353 936.815 276.537 938.861 282.447C941.134 288.358 944.203 292.564 948.068 295.064C952.159 297.338 956.706 298.474 961.708 298.474C966.254 298.474 969.891 297.565 972.62 295.746C975.575 293.7 977.962 290.859 979.781 287.221C981.599 283.357 982.736 278.81 983.19 273.581L1044.91 293.018C1044 302.794 1040.02 311.66 1032.98 319.616C1026.16 327.573 1016.72 333.938 1004.67 338.712C992.625 343.486 978.417 345.873 962.049 345.873C942.498 345.873 925.562 342.463 911.24 335.643C896.917 328.596 885.892 318.48 878.163 305.294C870.433 292.109 866.568 276.082 866.568 257.213C866.568 238.345 870.433 222.318 878.163 209.132C885.892 195.947 896.69 185.944 910.557 179.124C924.425 172.077 940.565 168.553 958.979 168.553ZM786.841 180.798C792.979 185.572 802.868 187.959 816.508 187.959C830.148 187.959 839.923 185.572 845.834 180.798C851.972 176.024 855.041 168.295 855.041 157.61C855.041 146.698 851.972 138.855 845.834 134.081C839.923 129.307 830.148 126.92 816.508 126.92C802.868 126.92 792.979 129.307 786.841 134.081C780.93 138.855 777.975 146.698 777.975 157.61C777.975 168.295 780.93 176.024 786.841 180.798ZM850.949 342.463V194.963C827.076 203.958 808.576 205.458 782.067 194.963V342.463H850.949ZM740.95 132.384V279.037C740.95 286.312 742.086 291.541 744.359 294.723C746.633 297.906 749.133 299.838 754.817 299.838C757.545 299.838 759.932 299.725 761.978 299.497C764.251 299.043 766.638 298.361 769.139 297.451V334.786C765.047 337.741 756.977 341.327 749.474 343.145C742.2 344.964 734.925 345.873 727.651 345.873C707.872 345.873 693.664 341.554 685.026 332.915C676.387 324.049 672.068 309.386 672.068 288.926V141.672C693.076 134.172 711.576 132.384 740.95 132.384ZM521.318 335.643C535.64 342.463 552.577 345.873 572.127 345.873C584.631 345.873 596.566 344.168 607.932 340.758C619.299 337.121 629.074 331.779 637.258 324.731C645.67 317.684 651.239 308.932 653.967 298.474L598.725 282.106C596.907 287.335 593.951 291.427 589.859 294.382C585.767 297.338 580.084 298.815 572.809 298.815C566.217 298.815 560.761 297.679 556.441 295.405C552.122 293.132 548.712 289.04 546.211 283.129C545.067 280.039 544.21 276.402 543.642 272.217H655.672C656.127 269.489 656.468 266.193 656.695 262.328C657.15 258.464 657.377 254.599 657.377 250.734C657.377 234.366 653.854 220.044 646.806 207.768C639.986 195.492 629.984 185.944 616.798 179.124C603.84 172.077 588.041 168.553 569.399 168.553C551.213 168.553 535.186 172.077 521.318 179.124C507.451 185.944 496.653 195.947 488.923 209.132C481.194 222.318 477.329 238.345 477.329 257.213C477.329 276.082 481.08 292.109 488.582 305.294C496.312 318.48 507.224 328.596 521.318 335.643ZM592.238 242.209H543.705C544.15 238.772 544.758 235.703 545.529 233.002C547.575 226.637 550.531 222.09 554.395 219.362C558.487 216.634 563.489 215.27 569.399 215.27C578.038 215.27 584.062 218.68 587.472 225.5C589.816 229.749 591.405 235.318 592.238 242.209Z" fill="white"/>
<path d="M197.162 19.2313C348.08 -16.8126 418.987 65.399 418.987 65.399C418.987 65.399 328.288 10.757 204.267 48.0373C80.2455 85.3176 68.1926 179.394 68.1927 217.922C68.1927 256.45 96.5365 287.316 149.641 285.164C202.745 283.012 366.216 154.345 596.97 106.783C827.724 59.2208 1001.25 154.352 1001.25 154.352C1001.25 154.352 789.151 44.536 505.953 167.98C314.801 251.301 262.68 374.545 144.435 374.545C26.1899 374.545 -0.000160434 283.527 -9.08135e-05 217.922C-2.11933e-05 152.317 46.2445 55.2752 197.162 19.2313Z" fill="url(#paint1_linear_188_46658)"/>
<path d="M314.964 116.335V209.831L245.4 245.96V116.335H314.964Z" fill="url(#paint2_linear_188_46658)"/>
<path d="M314.964 77.3389V209.831L245.4 245.96V88.9603C261.226 77.3389 295.262 72.55 314.964 77.3389Z" fill="white"/>
<path d="M314.953 288.57L314.729 342.378L245.479 342.378L245.479 341.294C260.676 329.663 298.793 301.505 314.953 288.57Z" fill="url(#paint3_linear_188_46658)"/>
<path d="M314.953 288.57L314.729 342.378L245.479 342.378L245.479 341.294C260.676 329.663 298.793 301.505 314.953 288.57Z" fill="url(#paint4_linear_188_46658)"/>
<path d="M388.385 233.356L367.148 248.371L345.617 264.215L332.925 200.912L360.606 187.669L387.969 175.097L388.385 233.356Z" fill="url(#paint5_linear_188_46658)"/>
<path d="M388.385 233.356L367.148 248.371L345.617 264.215L332.925 200.912L360.606 187.669L387.969 175.097L388.385 233.356Z" fill="url(#paint6_linear_188_46658)"/>
<path d="M457.844 140.213V342.463H387.939V140.213H457.844Z" fill="url(#paint7_linear_188_46658)"/>
<path d="M457.844 120.055V342.463H387.939V85.4948C416.859 89.9012 440.363 101.559 457.844 120.055Z" fill="white"/>
<path d="M1909.7 519.483C1909.7 526.865 1907.01 532.539 1901.63 536.504C1896.25 540.423 1888.55 542.383 1878.53 542.383C1868.45 542.383 1860.36 540.856 1854.26 537.803V523.926C1863.14 528.027 1871.42 530.078 1879.07 530.078C1888.96 530.078 1893.91 527.093 1893.91 521.123C1893.91 519.209 1893.36 517.614 1892.27 516.338C1891.17 515.062 1889.37 513.74 1886.87 512.373C1884.36 511.006 1880.87 509.457 1876.41 507.725C1867.7 504.352 1861.8 500.98 1858.7 497.608C1855.65 494.235 1854.12 489.86 1854.12 484.483C1854.12 478.011 1856.72 472.998 1861.91 469.443C1867.15 465.843 1874.26 464.043 1883.24 464.043C1892.13 464.043 1900.54 465.843 1908.47 469.443L1903.27 481.543C1895.11 478.171 1888.26 476.484 1882.7 476.484C1874.22 476.484 1869.98 478.9 1869.98 483.731C1869.98 486.1 1871.07 488.106 1873.26 489.746C1875.49 491.387 1880.33 493.643 1887.75 496.514C1894 498.929 1898.53 501.139 1901.36 503.145C1904.18 505.15 1906.28 507.474 1907.65 510.117C1909.01 512.715 1909.7 515.837 1909.7 519.483Z" fill="#3EBFF7"/>
<path d="M1811.26 542.383C1799.5 542.383 1790.3 538.965 1783.64 532.129C1777.03 525.248 1773.73 515.791 1773.73 503.76C1773.73 491.41 1776.81 481.703 1782.96 474.639C1789.11 467.575 1797.57 464.043 1808.32 464.043C1818.3 464.043 1826.18 467.074 1831.97 473.135C1837.76 479.196 1840.65 487.536 1840.65 498.154V506.836H1790.27C1790.5 514.173 1792.48 519.824 1796.22 523.789C1799.96 527.708 1805.22 529.668 1812.01 529.668C1816.48 529.668 1820.62 529.258 1824.45 528.438C1828.33 527.572 1832.47 526.159 1836.89 524.199V537.256C1832.98 539.124 1829.01 540.446 1825 541.221C1820.99 541.996 1816.41 542.383 1811.26 542.383ZM1808.32 476.211C1803.22 476.211 1799.11 477.829 1796.02 481.065C1792.96 484.3 1791.14 489.017 1790.55 495.215H1824.86C1824.77 488.971 1823.27 484.255 1820.35 481.065C1817.43 477.829 1813.42 476.211 1808.32 476.211Z" fill="#3EBFF7"/>
<path d="M1739.41 542.383C1727.98 542.383 1719.27 539.056 1713.3 532.402C1707.38 525.703 1704.41 516.11 1704.41 503.623C1704.41 490.908 1707.51 481.133 1713.71 474.297C1719.95 467.461 1728.96 464.043 1740.71 464.043C1748.69 464.043 1755.87 465.524 1762.25 468.486L1757.39 481.406C1750.6 478.763 1745 477.442 1740.58 477.442C1727.5 477.442 1720.96 486.123 1720.96 503.486C1720.96 511.963 1722.57 518.343 1725.81 522.627C1729.09 526.865 1733.88 528.984 1740.17 528.984C1747.32 528.984 1754.09 527.207 1760.47 523.652V537.666C1757.6 539.352 1754.52 540.56 1751.24 541.289C1748 542.018 1744.06 542.383 1739.41 542.383Z" fill="#3EBFF7"/>
<path d="M1685.89 541.016H1669.82V465.41H1685.89V541.016ZM1668.87 445.381C1668.87 442.51 1669.64 440.3 1671.19 438.75C1672.79 437.201 1675.04 436.426 1677.96 436.426C1680.78 436.426 1682.97 437.201 1684.52 438.75C1686.12 440.3 1686.91 442.51 1686.91 445.381C1686.91 448.115 1686.12 450.28 1684.52 451.875C1682.97 453.425 1680.78 454.199 1677.96 454.199C1675.04 454.199 1672.79 453.425 1671.19 451.875C1669.64 450.28 1668.87 448.115 1668.87 445.381Z" fill="#3EBFF7"/>
<path d="M1612.13 541.016L1583.42 465.41H1600.37L1615.75 509.365C1618.4 516.748 1619.99 522.718 1620.54 527.276H1621.08C1621.49 523.994 1623.09 518.024 1625.87 509.365L1641.25 465.41H1658.34L1629.49 541.016H1612.13Z" fill="#3EBFF7"/>
<path d="M1572.82 464.043C1576.06 464.043 1578.72 464.271 1580.82 464.727L1579.25 479.697C1576.97 479.151 1574.6 478.877 1572.14 478.877C1565.71 478.877 1560.49 480.973 1556.48 485.166C1552.52 489.359 1550.54 494.805 1550.54 501.504V541.016H1534.47V465.41H1547.05L1549.17 478.74H1549.99C1552.5 474.229 1555.76 470.651 1559.77 468.008C1563.82 465.365 1568.17 464.043 1572.82 464.043Z" fill="#3EBFF7"/>
<path d="M1486.83 542.383C1475.07 542.383 1465.86 538.965 1459.21 532.129C1452.6 525.248 1449.3 515.791 1449.3 503.76C1449.3 491.41 1452.37 481.703 1458.53 474.639C1464.68 467.575 1473.13 464.043 1483.89 464.043C1493.87 464.043 1501.75 467.074 1507.54 473.135C1513.33 479.196 1516.22 487.536 1516.22 498.154V506.836H1465.84C1466.07 514.173 1468.05 519.824 1471.79 523.789C1475.52 527.708 1480.79 529.668 1487.58 529.668C1492.04 529.668 1496.19 529.258 1500.02 528.438C1503.89 527.572 1508.04 526.159 1512.46 524.199V537.256C1508.54 539.124 1504.58 540.446 1500.57 541.221C1496.56 541.996 1491.98 542.383 1486.83 542.383ZM1483.89 476.211C1478.78 476.211 1474.68 477.829 1471.58 481.065C1468.53 484.3 1466.71 489.017 1466.11 495.215H1500.43C1500.34 488.971 1498.83 484.255 1495.92 481.065C1493 477.829 1488.99 476.211 1483.89 476.211Z" fill="#3EBFF7"/>
<path d="M1436.17 513.877C1436.17 522.764 1432.96 529.736 1426.53 534.795C1420.11 539.854 1411.24 542.383 1399.94 542.383C1388.64 542.383 1379.39 540.628 1372.19 537.119V521.67C1376.74 523.812 1381.58 525.498 1386.68 526.729C1391.83 527.959 1396.61 528.574 1401.04 528.574C1407.51 528.574 1412.27 527.344 1415.32 524.883C1418.42 522.422 1419.97 519.118 1419.97 514.971C1419.97 511.234 1418.56 508.067 1415.73 505.469C1412.91 502.871 1407.07 499.795 1398.23 496.24C1389.12 492.549 1382.69 488.333 1378.96 483.594C1375.22 478.854 1373.35 473.158 1373.35 466.504C1373.35 458.164 1376.31 451.602 1382.24 446.817C1388.16 442.031 1396.11 439.639 1406.09 439.639C1415.66 439.639 1425.19 441.735 1434.67 445.928L1429.47 459.258C1420.59 455.521 1412.66 453.652 1405.68 453.652C1400.4 453.652 1396.39 454.815 1393.65 457.139C1390.92 459.417 1389.55 462.448 1389.55 466.231C1389.55 468.828 1390.1 471.061 1391.19 472.93C1392.29 474.753 1394.09 476.484 1396.59 478.125C1399.1 479.766 1403.61 481.93 1410.13 484.619C1417.46 487.673 1422.84 490.521 1426.26 493.164C1429.68 495.807 1432.18 498.792 1433.78 502.119C1435.37 505.446 1436.17 509.365 1436.17 513.877Z" fill="#3EBFF7"/>
<defs>
<linearGradient id="paint0_linear_188_46658" x1="403.521" y1="76.4344" x2="444.476" y2="356.027" gradientUnits="userSpaceOnUse">
<stop offset="0.16" stop-color="#2E66A2"/>
<stop offset="0.86" stop-color="#27B1EF"/>
<stop offset="0.985" stop-color="#27B1EF"/>
</linearGradient>
<linearGradient id="paint1_linear_188_46658" x1="112.751" y1="-58.7229" x2="590.892" y2="232.078" gradientUnits="userSpaceOnUse">
<stop offset="0.025" stop-color="#1CACEB"/>
<stop offset="0.609233" stop-color="#47C4FB"/>
<stop offset="0.985" stop-color="#BAEAFF"/>
</linearGradient>
<linearGradient id="paint2_linear_188_46658" x1="351.622" y1="117.403" x2="351.622" y2="342.464" gradientUnits="userSpaceOnUse">
<stop offset="0.11" stop-color="#2AA5E0"/>
<stop offset="0.805" stop-color="#2F5297"/>
</linearGradient>
<linearGradient id="paint3_linear_188_46658" x1="268.022" y1="287.39" x2="291.941" y2="385.698" gradientUnits="userSpaceOnUse">
<stop offset="0.15" stop-color="#0B487F"/>
<stop offset="0.702136" stop-color="#2FACED" stop-opacity="0"/>
</linearGradient>
<linearGradient id="paint4_linear_188_46658" x1="268.022" y1="287.39" x2="291.941" y2="385.698" gradientUnits="userSpaceOnUse">
<stop offset="0.15" stop-color="#0B487F"/>
<stop offset="0.702136" stop-color="#2FACED" stop-opacity="0"/>
</linearGradient>
<linearGradient id="paint5_linear_188_46658" x1="396.645" y1="187.98" x2="298.337" y2="211.899" gradientUnits="userSpaceOnUse">
<stop offset="0.15" stop-color="#0B487F"/>
<stop offset="0.702136" stop-color="#2FACED" stop-opacity="0"/>
</linearGradient>
<linearGradient id="paint6_linear_188_46658" x1="396.645" y1="187.98" x2="298.337" y2="211.899" gradientUnits="userSpaceOnUse">
<stop offset="0.15" stop-color="#0B487F"/>
<stop offset="0.702136" stop-color="#2FACED" stop-opacity="0"/>
</linearGradient>
<linearGradient id="paint7_linear_188_46658" x1="351.623" y1="82.2993" x2="351.623" y2="342.463" gradientUnits="userSpaceOnUse">
<stop offset="0.15" stop-color="#2D75B6"/>
<stop offset="0.702136" stop-color="#2FACED"/>
</linearGradient>
</defs>
</svg>
