<svg width="1922" height="583" viewBox="0 0 1922 583" fill="none" xmlns="http://www.w3.org/2000/svg">
<path fill-rule="evenodd" clip-rule="evenodd" d="M1543.31 116.163V172.428H1589.69V219.827H1543.31V277.456C1543.31 285.413 1545.02 291.096 1548.43 294.506C1552.07 297.916 1557.41 299.621 1564.45 299.621C1569.46 299.621 1573.78 299.166 1577.41 298.257C1581.05 297.348 1584.46 295.87 1587.64 293.824L1592.08 334.062C1586.62 337.927 1579.23 340.882 1569.91 342.928C1560.59 345.201 1551.5 346.338 1542.63 346.338C1528.08 346.338 1515.69 344.406 1505.46 340.541C1495.46 336.676 1487.73 330.538 1482.27 322.127C1477.05 313.716 1474.43 302.463 1474.43 288.368V219.827H1446.47V172.428H1474.43V135.259L1543.31 116.163ZM1637.89 336.108C1652.22 342.928 1669.15 346.338 1688.7 346.338C1701.21 346.338 1713.14 344.633 1724.51 341.223C1735.87 337.586 1745.65 332.243 1753.83 325.196C1762.24 318.149 1767.81 309.396 1770.54 298.939L1715.3 282.571C1713.48 287.8 1710.53 291.892 1706.43 294.847C1702.34 297.802 1696.66 299.28 1689.38 299.28C1682.79 299.28 1677.34 298.143 1673.02 295.87C1668.7 293.596 1665.29 289.505 1662.79 283.594C1661.64 280.504 1660.79 276.867 1660.22 272.682H1772.25C1772.7 269.954 1773.04 266.658 1773.27 262.793C1773.72 258.928 1773.95 255.064 1773.95 251.199C1773.95 234.831 1770.43 220.509 1763.38 208.233C1756.56 195.957 1746.56 186.409 1733.37 179.589C1720.42 172.542 1704.62 169.018 1685.97 169.018C1667.79 169.018 1651.76 172.542 1637.89 179.589C1624.03 186.409 1613.23 196.411 1605.5 209.597C1597.77 222.782 1593.9 238.809 1593.9 257.678C1593.9 276.547 1597.66 292.574 1605.16 305.759C1612.89 318.944 1623.8 329.061 1637.89 336.108ZM1660.28 242.674C1660.72 239.237 1661.33 236.168 1662.1 233.467C1664.15 227.102 1667.11 222.555 1670.97 219.827C1675.06 217.099 1680.06 215.735 1685.97 215.735C1694.61 215.735 1700.64 219.145 1704.05 225.965C1706.39 230.213 1707.98 235.783 1708.81 242.674H1660.28ZM1850.7 172.428H1788.98V342.928H1857.86V259.042C1857.86 251.54 1859.46 245.402 1862.64 240.628C1865.82 235.627 1870.14 231.875 1875.6 229.375C1881.05 226.874 1887.19 225.624 1894.01 225.624C1898.78 225.624 1902.99 225.965 1906.63 226.647C1910.26 227.329 1913.22 228.124 1915.49 229.034L1921.63 173.11C1920.27 171.973 1918.11 171.064 1915.15 170.382C1912.2 169.472 1908.33 169.018 1903.56 169.018C1890.15 169.018 1879.23 172.882 1870.82 180.612C1862.64 188.341 1856.61 198.912 1852.75 212.325L1850.7 172.428ZM1257.55 172.428V414.538H1326.44V313.368C1329.44 320.032 1333.31 326.02 1338.03 331.334C1347.35 341.337 1360.08 346.338 1376.22 346.338C1390.09 346.338 1402.03 342.814 1412.03 335.767C1422.26 328.719 1430.1 318.49 1435.56 305.077C1441.01 291.664 1443.74 275.637 1443.74 256.996C1443.74 238.354 1441.01 222.555 1435.56 209.597C1430.33 196.411 1422.71 186.409 1412.71 179.589C1402.71 172.542 1390.66 169.018 1376.56 169.018C1364.97 169.018 1354.74 171.859 1345.87 177.543C1337.23 182.999 1330.3 190.501 1325.07 200.049C1323.82 202.329 1322.69 204.694 1321.68 207.143L1319.96 172.428H1257.55ZM1368.04 288.368C1363.72 294.051 1357.7 296.893 1349.97 296.893C1344.96 296.893 1340.65 295.415 1337.01 292.46C1333.37 289.505 1330.64 285.072 1328.82 279.161C1327.23 273.25 1326.44 266.089 1326.44 257.678C1326.44 248.812 1327.35 241.537 1329.16 235.854C1331.21 229.943 1334.05 225.51 1337.69 222.555C1341.33 219.6 1345.53 218.122 1350.31 218.122C1357.81 218.122 1363.72 221.077 1368.04 226.988C1372.36 232.899 1374.52 243.129 1374.52 257.678C1374.52 272.227 1372.36 282.457 1368.04 288.368ZM1149.23 169.018C1167.88 169.018 1184.13 172.542 1198 179.589C1211.86 186.409 1222.66 196.411 1230.39 209.597C1238.12 222.782 1241.99 238.809 1241.99 257.678C1241.99 276.319 1238.12 292.346 1230.39 305.759C1222.66 318.944 1211.86 329.061 1198 336.108C1184.13 342.928 1167.88 346.338 1149.23 346.338C1131.05 346.338 1114.91 342.928 1100.81 336.108C1086.95 329.061 1076.03 318.944 1068.08 305.759C1060.35 292.346 1056.48 276.319 1056.48 257.678C1056.48 238.809 1060.35 222.782 1068.08 209.597C1076.03 196.411 1086.95 186.409 1100.81 179.589C1114.91 172.542 1131.05 169.018 1149.23 169.018ZM1149.23 216.417C1144.23 216.417 1139.91 217.667 1136.28 220.168C1132.87 222.669 1130.25 226.988 1128.43 233.126C1126.61 239.264 1125.71 247.448 1125.71 257.678C1125.71 267.908 1126.61 276.092 1128.43 282.23C1130.25 288.141 1132.87 292.46 1136.28 295.188C1139.91 297.689 1144.23 298.939 1149.23 298.939C1154.46 298.939 1158.78 297.689 1162.19 295.188C1165.6 292.46 1168.22 288.141 1170.04 282.23C1171.85 276.092 1172.76 267.908 1172.76 257.678C1172.76 247.448 1171.85 239.264 1170.04 233.126C1168.22 226.988 1165.6 222.669 1162.19 220.168C1158.78 217.667 1154.46 216.417 1149.23 216.417ZM1012.04 177.202C999.763 171.746 984.077 169.018 964.981 169.018C946.567 169.018 930.427 172.542 916.559 179.589C902.692 186.409 891.894 196.411 884.164 209.597C876.435 222.782 872.57 238.809 872.57 257.678C872.57 276.547 876.435 292.574 884.164 305.759C891.894 318.944 902.919 329.061 917.241 336.108C931.563 342.928 948.5 346.338 968.05 346.338C984.418 346.338 998.627 343.951 1010.68 339.177C1022.72 334.403 1032.16 328.037 1038.98 320.081C1046.03 312.124 1050 303.258 1050.91 293.483L989.192 274.046C988.738 279.275 987.601 283.821 985.782 287.686C983.964 291.323 981.577 294.165 978.621 296.211C975.893 298.029 972.256 298.939 967.709 298.939C962.708 298.939 958.161 297.802 954.069 295.529C950.205 293.028 947.136 288.823 944.862 282.912C942.816 277.001 941.793 268.817 941.793 258.36C941.793 248.13 942.703 239.946 944.521 233.808C946.34 227.67 949.182 223.237 953.046 220.509C956.911 217.781 961.685 216.417 967.368 216.417C973.961 216.417 978.735 218.69 981.69 223.237C984.873 227.783 986.805 234.717 987.487 244.038L1051.25 224.601C1050.35 215.28 1046.71 206.414 1040.34 198.003C1033.98 189.364 1024.54 182.43 1012.04 177.202ZM822.521 188.369C808.881 188.369 798.992 185.982 792.854 181.208C786.944 176.434 783.988 168.705 783.988 158.02C783.988 147.108 786.944 139.265 792.854 134.491C798.992 129.717 808.881 127.33 822.521 127.33C836.161 127.33 845.937 129.717 851.847 134.491C857.985 139.265 861.054 147.108 861.054 158.02C861.054 168.705 857.985 176.434 851.847 181.208C845.937 185.982 836.161 188.369 822.521 188.369ZM856.962 195.373V342.873H788.08V195.373C814.59 205.869 833.09 204.369 856.962 195.373ZM746.95 279.502V132.849C717.577 132.849 699.077 134.637 678.068 142.137V289.391C678.068 309.851 682.388 324.514 691.026 333.38C699.665 342.019 713.873 346.338 733.651 346.338C740.926 346.338 748.201 345.429 755.475 343.61C762.977 341.791 771.048 338.206 775.14 335.25V297.916C772.639 298.825 770.252 299.507 767.979 299.962C765.933 300.189 763.546 300.303 760.818 300.303C755.134 300.303 752.634 298.371 750.36 295.188C748.087 292.005 746.95 286.777 746.95 279.502ZM578.128 346.338C558.577 346.338 541.641 342.928 527.319 336.108C513.224 329.061 502.312 318.944 494.583 305.759C487.081 292.574 483.33 276.547 483.33 257.678C483.33 238.809 487.195 222.782 494.924 209.597C502.653 196.412 513.452 186.409 527.319 179.589C541.186 172.542 557.213 169.018 575.4 169.018C594.041 169.018 609.841 172.542 622.799 179.589C635.984 186.409 645.987 195.957 652.807 208.233C659.854 220.509 663.378 234.831 663.378 251.199C663.378 255.064 663.151 258.928 662.696 262.793C662.469 266.658 662.128 269.954 661.673 272.682H549.643C550.211 276.867 551.068 280.504 552.212 283.594C554.713 289.505 558.123 293.597 562.442 295.87C566.761 298.143 572.217 299.28 578.81 299.28C586.085 299.28 591.768 297.802 595.86 294.847C599.952 291.892 602.907 287.8 604.726 282.571L659.968 298.939C657.24 309.396 651.67 318.149 643.259 325.196C635.075 332.243 625.3 337.586 613.933 341.223C602.566 344.633 590.631 346.338 578.128 346.338ZM598.239 242.674H549.706C550.151 239.237 550.758 236.168 551.53 233.467C553.576 227.102 556.531 222.555 560.396 219.827C564.488 217.099 569.489 215.735 575.4 215.735C584.039 215.735 590.063 219.145 593.473 225.965C595.817 230.213 597.406 235.783 598.239 242.674ZM463.845 342.928V137.868H393.94V342.928H463.845ZM320.966 342.928V147.868H251.402V342.928H320.966Z" fill="#102039"/>
<path d="M320.964 77.8035V210.295L251.4 246.425V89.4249C267.226 77.8035 301.262 73.0146 320.964 77.8035Z" fill="#102039"/>
<path d="M320.964 116.799V210.295L251.4 246.425V116.799H320.964Z" fill="url(#paint0_linear_208_5635)"/>
<path d="M207.281 23.2755C358.199 -12.7684 432.741 66.5352 432.741 66.5352C432.741 66.5352 336.637 12.0797 212.616 49.3601C88.5944 86.6404 71.6219 172.654 71.6219 218.387C71.6219 264.12 106.147 299.193 160.428 289.725C214.708 280.258 372.216 154.81 602.971 107.247C833.725 59.6854 1007.25 154.816 1007.25 154.816C1007.25 154.816 795.151 45.0007 511.954 168.444C320.802 251.766 279.719 369.884 150.436 375.009C21.1535 380.134 -4.26278 289.915 1.30299 218.387C6.86875 146.858 56.3633 59.3194 207.281 23.2755Z" fill="url(#paint1_linear_208_5635)"/>
<path opacity="0.5" d="M394.385 233.82L373.148 248.835L351.642 264.923L338.047 199.476L365.34 186.739L379.663 180.313L386.941 177.091L393.969 174.086L394.385 233.82Z" fill="url(#paint2_linear_208_5635)"/>
<path d="M463.844 140.677V342.928H393.939V140.677H463.844Z" fill="url(#paint3_linear_208_5635)"/>
<path d="M463.844 120.519V342.928H393.939V85.9594C422.859 90.3657 446.363 102.024 463.844 120.519Z" fill="#102039"/>
<path d="M1915.7 519.947C1915.7 527.33 1913.01 533.004 1907.63 536.969C1902.25 540.888 1894.55 542.848 1884.53 542.848C1874.45 542.848 1866.36 541.321 1860.26 538.267V524.391C1869.14 528.492 1877.42 530.543 1885.07 530.543C1894.96 530.543 1899.91 527.558 1899.91 521.588C1899.91 519.674 1899.36 518.079 1898.27 516.803C1897.17 515.527 1895.37 514.205 1892.87 512.838C1890.36 511.471 1886.87 509.921 1882.41 508.189C1873.7 504.817 1867.8 501.445 1864.7 498.072C1861.65 494.7 1860.12 490.325 1860.12 484.947C1860.12 478.476 1862.72 473.463 1867.91 469.908C1873.15 466.308 1880.26 464.508 1889.24 464.508C1898.13 464.508 1906.54 466.308 1914.47 469.908L1909.27 482.008C1901.11 478.635 1894.26 476.949 1888.7 476.949C1880.22 476.949 1875.98 479.364 1875.98 484.195C1875.98 486.565 1877.07 488.57 1879.26 490.211C1881.49 491.851 1886.33 494.107 1893.75 496.978C1900 499.394 1904.53 501.604 1907.36 503.609C1910.18 505.614 1912.28 507.939 1913.65 510.582C1915.01 513.18 1915.7 516.301 1915.7 519.947Z" fill="#3595CA"/>
<path d="M1817.26 542.848C1805.5 542.848 1796.3 539.43 1789.64 532.594C1783.03 525.712 1779.73 516.256 1779.73 504.224C1779.73 491.874 1782.81 482.167 1788.96 475.103C1795.11 468.04 1803.57 464.508 1814.32 464.508C1824.3 464.508 1832.18 467.538 1837.97 473.599C1843.76 479.661 1846.65 488.001 1846.65 498.619V507.301H1796.27C1796.5 514.638 1798.48 520.289 1802.22 524.254C1805.96 528.173 1811.22 530.133 1818.01 530.133C1822.48 530.133 1826.62 529.723 1830.45 528.902C1834.33 528.036 1838.47 526.624 1842.89 524.664V537.721C1838.98 539.589 1835.01 540.911 1831 541.685C1826.99 542.46 1822.41 542.848 1817.26 542.848ZM1814.32 476.676C1809.22 476.676 1805.11 478.293 1802.02 481.529C1798.96 484.765 1797.14 489.482 1796.55 495.68H1830.86C1830.77 489.436 1829.27 484.719 1826.35 481.529C1823.43 478.293 1819.42 476.676 1814.32 476.676Z" fill="#3595CA"/>
<path d="M1745.41 542.848C1733.98 542.848 1725.27 539.521 1719.3 532.867C1713.38 526.168 1710.41 516.575 1710.41 504.088C1710.41 491.373 1713.51 481.598 1719.71 474.762C1725.95 467.926 1734.96 464.508 1746.71 464.508C1754.69 464.508 1761.87 465.989 1768.25 468.951L1763.39 481.871C1756.6 479.228 1751 477.906 1746.58 477.906C1733.5 477.906 1726.96 486.588 1726.96 503.951C1726.96 512.428 1728.57 518.808 1731.81 523.092C1735.09 527.33 1739.88 529.449 1746.17 529.449C1753.32 529.449 1760.09 527.672 1766.47 524.117V538.131C1763.6 539.817 1760.52 541.025 1757.24 541.754C1754 542.483 1750.06 542.848 1745.41 542.848Z" fill="#3595CA"/>
<path d="M1691.89 541.48H1675.82V465.875H1691.89V541.48ZM1674.87 445.846C1674.87 442.974 1675.64 440.764 1677.19 439.215C1678.79 437.665 1681.04 436.891 1683.96 436.891C1686.78 436.891 1688.97 437.665 1690.52 439.215C1692.12 440.764 1692.91 442.974 1692.91 445.846C1692.91 448.58 1692.12 450.745 1690.52 452.34C1688.97 453.889 1686.78 454.664 1683.96 454.664C1681.04 454.664 1678.79 453.889 1677.19 452.34C1675.64 450.745 1674.87 448.58 1674.87 445.846Z" fill="#3595CA"/>
<path d="M1618.13 541.48L1589.42 465.875H1606.37L1621.75 509.83C1624.4 517.213 1625.99 523.183 1626.54 527.74H1627.08C1627.49 524.459 1629.09 518.489 1631.87 509.83L1647.25 465.875H1664.34L1635.49 541.48H1618.13Z" fill="#3595CA"/>
<path d="M1578.82 464.508C1582.06 464.508 1584.72 464.736 1586.82 465.191L1585.25 480.162C1582.97 479.615 1580.6 479.342 1578.14 479.342C1571.71 479.342 1566.49 481.438 1562.48 485.631C1558.52 489.823 1556.54 495.269 1556.54 501.969V541.48H1540.47V465.875H1553.05L1555.17 479.205H1555.99C1558.5 474.693 1561.76 471.116 1565.77 468.473C1569.82 465.829 1574.17 464.508 1578.82 464.508Z" fill="#3595CA"/>
<path d="M1492.83 542.848C1481.07 542.848 1471.86 539.43 1465.21 532.594C1458.6 525.712 1455.3 516.256 1455.3 504.224C1455.3 491.874 1458.37 482.167 1464.53 475.103C1470.68 468.04 1479.13 464.508 1489.89 464.508C1499.87 464.508 1507.75 467.538 1513.54 473.599C1519.33 479.661 1522.22 488.001 1522.22 498.619V507.301H1471.84C1472.07 514.638 1474.05 520.289 1477.79 524.254C1481.52 528.173 1486.79 530.133 1493.58 530.133C1498.04 530.133 1502.19 529.723 1506.02 528.902C1509.89 528.036 1514.04 526.624 1518.46 524.664V537.721C1514.54 539.589 1510.58 540.911 1506.57 541.685C1502.56 542.46 1497.98 542.848 1492.83 542.848ZM1489.89 476.676C1484.78 476.676 1480.68 478.293 1477.58 481.529C1474.53 484.765 1472.71 489.482 1472.11 495.68H1506.43C1506.34 489.436 1504.83 484.719 1501.92 481.529C1499 478.293 1494.99 476.676 1489.89 476.676Z" fill="#3595CA"/>
<path d="M1442.17 514.342C1442.17 523.228 1438.96 530.201 1432.53 535.26C1426.11 540.318 1417.24 542.848 1405.94 542.848C1394.64 542.848 1385.39 541.093 1378.19 537.584V522.135C1382.74 524.277 1387.58 525.963 1392.68 527.193C1397.83 528.424 1402.61 529.039 1407.04 529.039C1413.51 529.039 1418.27 527.808 1421.32 525.348C1424.42 522.887 1425.97 519.583 1425.97 515.435C1425.97 511.698 1424.56 508.531 1421.73 505.933C1418.91 503.336 1413.07 500.26 1404.23 496.705C1395.12 493.014 1388.69 488.798 1384.96 484.058C1381.22 479.319 1379.35 473.622 1379.35 466.969C1379.35 458.629 1382.31 452.066 1388.24 447.281C1394.16 442.496 1402.11 440.103 1412.09 440.103C1421.66 440.103 1431.19 442.2 1440.67 446.392L1435.47 459.723C1426.59 455.986 1418.66 454.117 1411.68 454.117C1406.4 454.117 1402.39 455.279 1399.65 457.603C1396.92 459.882 1395.55 462.913 1395.55 466.695C1395.55 469.293 1396.1 471.526 1397.19 473.394C1398.29 475.217 1400.09 476.949 1402.59 478.59C1405.1 480.23 1409.61 482.395 1416.13 485.084C1423.46 488.137 1428.84 490.986 1432.26 493.629C1435.68 496.272 1438.18 499.257 1439.78 502.584C1441.37 505.911 1442.17 509.83 1442.17 514.342Z" fill="#3595CA"/>
<defs>
<linearGradient id="paint0_linear_208_5635" x1="312.004" y1="172.631" x2="328.868" y2="214.227" gradientUnits="userSpaceOnUse">
<stop stop-color="#102039"/>
<stop offset="1" stop-color="#030F23"/>
</linearGradient>
<linearGradient id="paint1_linear_208_5635" x1="118.751" y1="-58.2582" x2="596.892" y2="232.543" gradientUnits="userSpaceOnUse">
<stop offset="0.025" stop-color="#1CACEB"/>
<stop offset="0.609233" stop-color="#47C4FB"/>
<stop offset="0.985" stop-color="#BAEAFF"/>
</linearGradient>
<linearGradient id="paint2_linear_208_5635" x1="402.645" y1="188.444" x2="330.204" y2="226.844" gradientUnits="userSpaceOnUse">
<stop offset="0.15" stop-color="#0B487F"/>
<stop offset="0.702136" stop-color="#2FACED" stop-opacity="0"/>
</linearGradient>
<linearGradient id="paint3_linear_208_5635" x1="357.623" y1="82.7639" x2="357.623" y2="342.928" gradientUnits="userSpaceOnUse">
<stop offset="0.15" stop-color="#2D75B6"/>
<stop offset="0.702136" stop-color="#2FACED"/>
</linearGradient>
</defs>
</svg>
