<svg width="191" height="59" viewBox="0 0 191 59" fill="none" xmlns="http://www.w3.org/2000/svg">
<path fill-rule="evenodd" clip-rule="evenodd" d="M41.7962 7.00613C41.7962 7.00613 34.6719 -1.21748 19.6246 2.37694C4.57725 5.97137 7.01577e-06 15.6487 0 22.1911C-6.84864e-06 28.7335 2.61129 37.8101 14.401 37.8101C18.2159 37.8101 21.3405 36.5232 24.4678 34.5008V34.6108H31.4037V29.2598C33.5791 27.5168 35.9481 25.64 38.6796 23.7637V34.6108H45.6495V19.5245C47.1473 18.7291 48.7413 17.954 50.4462 17.2107C78.6825 4.90042 99.8066 15.8367 99.8066 15.8367C99.8066 15.8367 82.5286 6.36484 59.5211 11.1079C53.4622 12.357 47.9105 14.1653 42.9114 16.156H38.6796V17.9349C36.0761 19.0855 33.6482 20.2585 31.4037 21.3889V16.156H24.4678V24.9851C20.1801 27.2246 16.9632 28.8139 14.92 28.8967C9.0186 29.1359 6.53103 26.0333 6.53103 22.1911C6.53103 18.3489 7.96733 8.9673 20.3329 5.24958C32.6985 1.53185 41.7962 7.00613 41.7962 7.00613ZM153.278 17.6079V11.997L146.41 13.9013V17.6079H143.622V22.3347H146.41V29.1699C146.41 30.5754 146.671 31.6976 147.192 32.5364C147.736 33.3752 148.507 33.9873 149.504 34.3727C150.524 34.7581 151.76 34.9508 153.21 34.9508C154.094 34.9508 155.001 34.8375 155.93 34.6108C156.86 34.4067 157.596 34.112 158.14 33.7266L157.698 29.714C157.381 29.918 157.041 30.0653 156.678 30.156C156.316 30.2467 155.885 30.2921 155.386 30.2921C154.684 30.2921 154.151 30.122 153.788 29.782C153.448 29.4419 153.278 28.8751 153.278 28.0817V22.3347H157.902V17.6079H153.278ZM167.774 34.9508C165.825 34.9508 164.136 34.6108 162.708 33.9307C161.303 33.2279 160.215 32.219 159.444 30.9042C158.696 29.5893 158.322 27.991 158.322 26.1094C158.322 24.2277 158.708 22.6294 159.478 21.3145C160.249 19.9997 161.326 19.0022 162.708 18.322C164.091 17.6193 165.689 17.2679 167.502 17.2679C169.361 17.2679 170.936 17.6193 172.228 18.322C173.543 19.0022 174.54 19.9543 175.22 21.1785C175.923 22.4027 176.274 23.831 176.274 25.4632C176.274 25.8486 176.252 26.234 176.206 26.6194C176.184 27.0048 176.15 27.3336 176.104 27.6056H164.934C164.991 28.0229 165.076 28.3856 165.19 28.6938C165.44 29.2832 165.78 29.6913 166.21 29.918C166.641 30.1447 167.185 30.258 167.842 30.258C168.568 30.258 169.134 30.1107 169.542 29.816C169.95 29.5213 170.245 29.1132 170.426 28.5918L175.934 30.224C175.662 31.2669 175.107 32.1397 174.268 32.8425C173.452 33.5453 172.478 34.078 171.344 34.4408C170.211 34.7808 169.021 34.9508 167.774 34.9508ZM165.122 23.6949C165.045 23.9643 164.985 24.2703 164.941 24.6131H169.779C169.696 23.9259 169.538 23.3705 169.304 22.9468C168.964 22.2667 168.364 21.9266 167.502 21.9266C166.913 21.9266 166.414 22.0627 166.006 22.3347C165.621 22.6068 165.326 23.0602 165.122 23.6949ZM177.773 17.6079H183.927L184.131 21.5866C184.516 20.249 185.117 19.1949 185.933 18.4241C186.771 17.6533 187.859 17.2679 189.197 17.2679C189.673 17.2679 190.058 17.3132 190.353 17.4039C190.647 17.4719 190.863 17.5626 190.999 17.6759L190.387 23.2529C190.16 23.1622 189.865 23.0828 189.503 23.0148C189.14 22.9468 188.721 22.9128 188.245 22.9128C187.565 22.9128 186.953 23.0375 186.409 23.2869C185.865 23.5362 185.434 23.9103 185.117 24.4091C184.799 24.8851 184.641 25.4972 184.641 26.2454V34.6108H177.773V17.6079ZM124.787 41.752V17.6079H131.009L131.18 21.0699C131.281 20.8256 131.394 20.5898 131.519 20.3624C132.04 19.4102 132.731 18.6621 133.593 18.118C134.477 17.5512 135.497 17.2679 136.653 17.2679C138.058 17.2679 139.259 17.6193 140.256 18.322C141.254 19.0022 142.013 19.9997 142.534 21.3145C143.078 22.6068 143.35 24.1824 143.35 26.0413C143.35 27.9003 143.078 29.4986 142.534 30.8361C141.99 32.1737 141.208 33.1939 140.188 33.8967C139.191 34.5994 138.001 34.9508 136.619 34.9508C135.009 34.9508 133.74 34.4521 132.811 33.4546C132.34 32.9247 131.954 32.3275 131.655 31.663V41.752H124.787ZM134.001 30.02C134.771 30.02 135.372 29.7366 135.803 29.1699C136.233 28.5804 136.449 27.5603 136.449 26.1093C136.449 24.6584 136.233 23.6383 135.803 23.0488C135.372 22.4594 134.783 22.1647 134.035 22.1647C133.559 22.1647 133.139 22.312 132.777 22.6068C132.414 22.9015 132.131 23.3435 131.927 23.933C131.745 24.4997 131.655 25.2252 131.655 26.1093C131.655 26.9482 131.734 27.6623 131.893 28.2517C132.074 28.8411 132.346 29.2832 132.709 29.5779C133.071 29.8727 133.502 30.02 134.001 30.02ZM118.848 18.322C117.466 17.6193 115.845 17.2679 113.987 17.2679C112.173 17.2679 110.564 17.6193 109.159 18.322C107.776 19.0022 106.688 19.9997 105.895 21.3145C105.124 22.6294 104.739 24.2277 104.739 26.1094C104.739 27.9683 105.124 29.5666 105.895 30.9042C106.688 32.219 107.776 33.2279 109.159 33.9307C110.564 34.6108 112.173 34.9508 113.987 34.9508C115.845 34.9508 117.466 34.6108 118.848 33.9307C120.231 33.2279 121.308 32.219 122.078 30.9042C122.849 29.5666 123.234 27.9683 123.234 26.1094C123.234 24.2277 122.849 22.6294 122.078 21.3145C121.308 19.9997 120.231 19.0022 118.848 18.322ZM112.695 22.3687C113.057 22.1193 113.488 21.9947 113.987 21.9947C114.508 21.9947 114.938 22.1193 115.278 22.3687C115.618 22.6181 115.879 23.0488 116.06 23.6609C116.242 24.273 116.332 25.0892 116.332 26.1094C116.332 27.1295 116.242 27.9457 116.06 28.5578C115.879 29.1472 115.618 29.5779 115.278 29.85C114.938 30.0994 114.508 30.224 113.987 30.224C113.488 30.224 113.057 30.0994 112.695 29.85C112.355 29.5779 112.094 29.1472 111.913 28.5578C111.731 27.9457 111.641 27.1295 111.641 26.1094C111.641 25.0892 111.731 24.273 111.913 23.6609C112.094 23.0488 112.355 22.6181 112.695 22.3687ZM95.6154 17.2679C97.5194 17.2679 99.0833 17.5399 100.307 18.084C101.554 18.6054 102.495 19.2969 103.129 20.1583C103.764 20.9972 104.127 21.8813 104.217 22.8108L97.8594 24.7491C97.7914 23.8196 97.5987 23.1282 97.2814 22.6748C96.9867 22.2214 96.5107 21.9947 95.8534 21.9947C95.2867 21.9947 94.8107 22.1307 94.4254 22.4027C94.0401 22.6748 93.7567 23.1168 93.5754 23.7289C93.3941 24.3411 93.3034 25.1572 93.3034 26.1774C93.3034 27.2202 93.4054 28.0363 93.6094 28.6258C93.8361 29.2152 94.1421 29.6346 94.5274 29.884C94.9354 30.1107 95.3887 30.224 95.8874 30.224C96.3407 30.224 96.7034 30.1334 96.9754 29.952C97.27 29.748 97.508 29.4646 97.6894 29.1019C97.8707 28.7165 97.984 28.263 98.0293 27.7416L104.183 29.6799C104.093 30.6548 103.696 31.5389 102.993 32.3324C102.313 33.1259 101.373 33.7606 100.171 34.2367C98.97 34.7128 97.5534 34.9508 95.9214 34.9508C93.9721 34.9508 92.2834 34.6108 90.8554 33.9307C89.4275 33.2279 88.3282 32.219 87.5575 30.9042C86.7868 29.5893 86.4015 27.991 86.4015 26.1094C86.4015 24.2277 86.7868 22.6294 87.5575 21.3145C88.3282 19.9997 89.4048 19.0022 90.7875 18.322C92.1701 17.6193 93.7794 17.2679 95.6154 17.2679ZM78.4522 18.489C79.0642 18.9651 80.0502 19.2031 81.4102 19.2031C82.7702 19.2031 83.7448 18.9651 84.3342 18.489C84.9461 18.0129 85.2521 17.2421 85.2521 16.1766C85.2521 15.0884 84.9461 14.3063 84.3342 13.8302C83.7448 13.3541 82.7702 13.1161 81.4102 13.1161C80.0502 13.1161 79.0642 13.3541 78.4522 13.8302C77.8629 14.3063 77.5682 15.0884 77.5682 16.1766C77.5682 17.2421 77.8629 18.0129 78.4522 18.489ZM84.8441 34.6108V19.9016C82.4639 20.7986 80.6194 20.9482 77.9762 19.9016V34.6108H84.8441ZM73.8766 13.6633V28.2857C73.8766 29.0112 73.99 29.5326 74.2166 29.85C74.4433 30.1674 74.6926 30.3601 75.2593 30.3601C75.5313 30.3601 75.7693 30.3487 75.9733 30.3261C76.1999 30.2807 76.4379 30.2127 76.6873 30.122V33.8452C76.2793 34.1399 75.4746 34.4974 74.7266 34.6788C74.0013 34.8602 73.276 34.9508 72.5506 34.9508C70.5787 34.9508 69.162 34.5201 68.3007 33.6586C67.4394 32.7745 67.0087 31.3122 67.0087 29.2719V14.5907C69.1034 13.8428 71.3751 13.6633 73.8766 13.6633ZM51.9782 33.9307C53.4062 34.6108 55.0948 34.9509 57.0441 34.9509C58.2908 34.9509 59.4808 34.7808 60.6141 34.4408C61.7474 34.078 62.7221 33.5453 63.538 32.8425C64.3767 32.1397 64.932 31.2669 65.204 30.2241L59.6961 28.5918C59.5148 29.1132 59.2201 29.5213 58.8121 29.816C58.4041 30.1107 57.8375 30.2581 57.1121 30.2581C56.4548 30.2581 55.9108 30.1447 55.4802 29.918C55.0495 29.6913 54.7095 29.2832 54.4602 28.6938C54.3461 28.3857 54.2607 28.0229 54.204 27.6056H65.374C65.4194 27.3336 65.4534 27.0049 65.476 26.6195C65.5214 26.2341 65.544 25.8487 65.544 25.4633C65.544 23.831 65.1927 22.4027 64.49 21.1785C63.81 19.9543 62.8127 19.0022 61.4981 18.3221C60.2061 17.6193 58.6308 17.2679 56.7721 17.2679C54.9588 17.2679 53.3609 17.6193 51.9782 18.3221C50.5956 19.0022 49.5189 19.9997 48.7483 21.3146C47.9776 22.6295 47.5923 24.2277 47.5923 26.1094C47.5923 27.991 47.9663 29.5893 48.7143 30.9042C49.4849 32.2191 50.5729 33.2279 51.9782 33.9307ZM54.2103 24.6131H59.0493C58.9662 23.9259 58.8078 23.3705 58.5741 22.9468C58.2341 22.2667 57.6335 21.9267 56.7721 21.9267C56.1828 21.9267 55.6842 22.0627 55.2762 22.3347C54.8908 22.6068 54.5962 23.0602 54.3922 23.695C54.3152 23.9643 54.2546 24.2703 54.2103 24.6131Z" fill="url(#paint0_linear_203_5383)"/>
<path fill-rule="evenodd" clip-rule="evenodd" d="M41.8082 7.01199C41.8082 7.01199 34.719 -1.22656 19.6717 2.36786C4.62435 5.96229 6.92552e-06 15.6487 0 22.1911C-6.94566e-06 28.7335 2.61129 37.8101 14.401 37.8101C18.2159 37.8101 21.3405 36.5232 24.4678 34.5008V34.6108H31.4037V29.2598C33.5791 27.5168 35.9481 25.64 38.6796 23.7637V34.6108H45.6495V19.5245C47.1473 18.7291 48.7413 17.954 50.4462 17.2107C78.6825 4.90044 99.797 15.832 99.797 15.832C99.797 15.832 82.5286 6.36485 59.5211 11.1079C54.547 12.1333 49.9148 13.5357 45.6495 15.1064V14.1615H38.6796V17.9349C36.0761 19.0855 33.6482 20.2585 31.4037 21.3889V15.1587H24.4678V24.9851C20.1801 27.2246 16.9632 28.8139 14.92 28.8967C9.0186 29.1359 6.53103 26.0333 6.53103 22.1911C6.53103 18.3489 8.01444 8.95822 20.38 5.2405C32.7456 1.52277 41.8082 7.01199 41.8082 7.01199ZM153.278 17.6079V11.997L146.41 13.9013V17.6079H143.622V22.3347H146.41V29.1699C146.41 30.5754 146.671 31.6976 147.192 32.5364C147.736 33.3752 148.507 33.9873 149.504 34.3727C150.524 34.7581 151.76 34.9508 153.21 34.9508C154.094 34.9508 155.001 34.8375 155.93 34.6108C156.86 34.4067 157.596 34.112 158.14 33.7266L157.698 29.714C157.381 29.918 157.041 30.0654 156.678 30.156C156.316 30.2467 155.885 30.2921 155.386 30.2921C154.684 30.2921 154.151 30.122 153.788 29.782C153.448 29.4419 153.278 28.8752 153.278 28.0817V22.3347H157.902V17.6079H153.278ZM167.774 34.9508C165.825 34.9508 164.136 34.6108 162.708 33.9307C161.303 33.2279 160.215 32.219 159.444 30.9042C158.696 29.5893 158.322 27.991 158.322 26.1094C158.322 24.2277 158.708 22.6294 159.478 21.3145C160.249 19.9997 161.326 19.0022 162.708 18.322C164.091 17.6193 165.689 17.2679 167.502 17.2679C169.361 17.2679 170.936 17.6193 172.228 18.322C173.543 19.0022 174.54 19.9543 175.22 21.1785C175.923 22.4027 176.274 23.831 176.274 25.4632C176.274 25.8486 176.252 26.234 176.206 26.6194C176.184 27.0048 176.15 27.3336 176.104 27.6056H164.934C164.991 28.0229 165.076 28.3856 165.19 28.6938C165.44 29.2832 165.78 29.6913 166.21 29.918C166.641 30.1447 167.185 30.2581 167.842 30.2581C168.568 30.2581 169.134 30.1107 169.542 29.816C169.95 29.5213 170.245 29.1132 170.426 28.5918L175.934 30.224C175.662 31.2669 175.107 32.1397 174.268 32.8425C173.452 33.5453 172.478 34.078 171.344 34.4408C170.211 34.7808 169.021 34.9508 167.774 34.9508ZM165.122 23.6949C165.045 23.9643 164.985 24.2703 164.941 24.6131H169.779C169.696 23.9259 169.538 23.3705 169.304 22.9468C168.964 22.2667 168.364 21.9266 167.502 21.9266C166.913 21.9266 166.414 22.0627 166.006 22.3347C165.621 22.6068 165.326 23.0602 165.122 23.6949ZM177.773 34.6108V17.6079H183.927L184.131 21.5866C184.516 20.249 185.117 19.1949 185.933 18.4241C186.771 17.6533 187.859 17.2679 189.197 17.2679C189.673 17.2679 190.058 17.3132 190.353 17.4039C190.647 17.4719 190.863 17.5626 190.999 17.6759L190.387 23.2529C190.16 23.1622 189.865 23.0828 189.503 23.0148C189.14 22.9468 188.721 22.9128 188.245 22.9128C187.565 22.9128 186.953 23.0375 186.409 23.2869C185.865 23.5363 185.434 23.9103 185.117 24.4091C184.799 24.8851 184.641 25.4972 184.641 26.2454V34.6108H177.773ZM124.787 41.752V17.6079H131.009L131.18 21.0699C131.281 20.8256 131.394 20.5898 131.519 20.3624C132.04 19.4102 132.731 18.6621 133.593 18.118C134.477 17.5512 135.497 17.2679 136.653 17.2679C138.058 17.2679 139.259 17.6193 140.256 18.322C141.254 19.0022 142.013 19.9997 142.534 21.3145C143.078 22.6068 143.35 24.1824 143.35 26.0413C143.35 27.9003 143.078 29.4986 142.534 30.8361C141.99 32.1737 141.208 33.1939 140.188 33.8967C139.191 34.5994 138.001 34.9508 136.619 34.9508C135.009 34.9508 133.74 34.4521 132.811 33.4546C132.34 32.9247 131.954 32.3275 131.655 31.663V41.752H124.787ZM134.001 30.02C134.771 30.02 135.372 29.7366 135.803 29.1699C136.233 28.5804 136.449 27.5603 136.449 26.1094C136.449 24.6584 136.233 23.6383 135.803 23.0488C135.372 22.4594 134.783 22.1647 134.035 22.1647C133.559 22.1647 133.139 22.312 132.777 22.6068C132.414 22.9015 132.131 23.3436 131.927 23.933C131.745 24.4997 131.655 25.2252 131.655 26.1094C131.655 26.9482 131.734 27.6623 131.893 28.2517C132.074 28.8411 132.346 29.2832 132.709 29.5779C133.071 29.8727 133.502 30.02 134.001 30.02ZM118.848 18.322C117.466 17.6193 115.845 17.2679 113.987 17.2679C112.173 17.2679 110.564 17.6193 109.159 18.322C107.776 19.0022 106.688 19.9997 105.895 21.3145C105.124 22.6294 104.739 24.2277 104.739 26.1094C104.739 27.9683 105.124 29.5666 105.895 30.9042C106.688 32.219 107.776 33.2279 109.159 33.9307C110.564 34.6108 112.173 34.9508 113.987 34.9508C115.845 34.9508 117.466 34.6108 118.848 33.9307C120.231 33.2279 121.308 32.219 122.078 30.9042C122.849 29.5666 123.234 27.9683 123.234 26.1094C123.234 24.2277 122.849 22.6294 122.078 21.3145C121.308 19.9997 120.231 19.0022 118.848 18.322ZM112.695 22.3687C113.057 22.1193 113.488 21.9947 113.987 21.9947C114.508 21.9947 114.938 22.1193 115.278 22.3687C115.618 22.6181 115.879 23.0488 116.06 23.6609C116.242 24.273 116.332 25.0892 116.332 26.1094C116.332 27.1295 116.242 27.9457 116.06 28.5578C115.879 29.1472 115.618 29.5779 115.278 29.85C114.938 30.0994 114.508 30.224 113.987 30.224C113.488 30.224 113.057 30.0994 112.695 29.85C112.355 29.5779 112.094 29.1472 111.913 28.5578C111.731 27.9457 111.641 27.1295 111.641 26.1094C111.641 25.0892 111.731 24.273 111.913 23.6609C112.094 23.0488 112.355 22.6181 112.695 22.3687ZM95.6154 17.2679C97.5194 17.2679 99.0833 17.5399 100.307 18.084C101.554 18.6054 102.495 19.2969 103.129 20.1584C103.764 20.9972 104.127 21.8813 104.217 22.8108L97.8594 24.7491C97.7914 23.8196 97.5987 23.1282 97.2814 22.6748C96.9867 22.2214 96.5107 21.9947 95.8534 21.9947C95.2867 21.9947 94.8107 22.1307 94.4254 22.4027C94.0401 22.6748 93.7567 23.1168 93.5754 23.729C93.3941 24.3411 93.3034 25.1572 93.3034 26.1774C93.3034 27.2202 93.4054 28.0363 93.6094 28.6258C93.8361 29.2152 94.1421 29.6346 94.5274 29.884C94.9354 30.1107 95.3887 30.224 95.8874 30.224C96.3407 30.224 96.7034 30.1334 96.9754 29.952C97.27 29.748 97.508 29.4646 97.6894 29.1019C97.8707 28.7165 97.984 28.2631 98.0293 27.7416L104.183 29.68C104.093 30.6548 103.696 31.5389 102.993 32.3324C102.313 33.1259 101.373 33.7606 100.171 34.2367C98.97 34.7128 97.5534 34.9508 95.9214 34.9508C93.9721 34.9508 92.2834 34.6108 90.8554 33.9307C89.4275 33.2279 88.3282 32.219 87.5575 30.9042C86.7868 29.5893 86.4015 27.991 86.4015 26.1094C86.4015 24.2277 86.7868 22.6294 87.5575 21.3145C88.3282 19.9997 89.4048 19.0022 90.7875 18.322C92.1701 17.6193 93.7794 17.2679 95.6154 17.2679ZM78.4522 18.489C79.0642 18.9651 80.0502 19.2031 81.4102 19.2031C82.7702 19.2031 83.7448 18.9651 84.3342 18.489C84.9461 18.0129 85.2521 17.2421 85.2521 16.1766C85.2521 15.0884 84.9461 14.3063 84.3342 13.8302C83.7448 13.3541 82.7702 13.1161 81.4102 13.1161C80.0502 13.1161 79.0642 13.3541 78.4522 13.8302C77.8629 14.3063 77.5682 15.0884 77.5682 16.1766C77.5682 17.2421 77.8629 18.0129 78.4522 18.489ZM84.8441 34.6108V19.9016C82.4639 20.7986 80.6194 20.9482 77.9762 19.9016V34.6108H84.8441ZM73.8766 13.661V28.2857C73.8766 29.0112 73.99 29.5326 74.2166 29.85C74.4433 30.1674 74.6926 30.3601 75.2593 30.3601C75.5313 30.3601 75.7693 30.3487 75.9733 30.3261C76.1999 30.2807 76.4379 30.2127 76.6873 30.122V33.8452C76.2793 34.1399 75.4746 34.4974 74.7266 34.6788C74.0013 34.8602 73.276 34.9508 72.5506 34.9508C70.5787 34.9508 69.162 34.5201 68.3007 33.6586C67.4394 32.7745 67.0087 31.3122 67.0087 29.2719V14.5872C69.1034 13.8393 70.948 13.661 73.8766 13.661ZM51.9782 33.9307C53.4062 34.6108 55.0948 34.9509 57.0441 34.9509C58.2908 34.9509 59.4808 34.7808 60.6141 34.4408C61.7474 34.0781 62.7221 33.5453 63.538 32.8425C64.3767 32.1397 64.932 31.2669 65.204 30.2241L59.6961 28.5918C59.5148 29.1132 59.2201 29.5213 58.8121 29.816C58.4041 30.1107 57.8375 30.2581 57.1121 30.2581C56.4548 30.2581 55.9108 30.1447 55.4802 29.918C55.0495 29.6913 54.7095 29.2832 54.4602 28.6938C54.3461 28.3857 54.2607 28.0229 54.204 27.6056H65.374C65.4194 27.3336 65.4534 27.0049 65.476 26.6195C65.5214 26.2341 65.544 25.8487 65.544 25.4633C65.544 23.831 65.1927 22.4028 64.49 21.1785C63.81 19.9543 62.8127 19.0022 61.4981 18.3221C60.2061 17.6193 58.6308 17.2679 56.7721 17.2679C54.9588 17.2679 53.3609 17.6193 51.9782 18.3221C50.5956 19.0022 49.5189 19.9997 48.7483 21.3146C47.9776 22.6295 47.5923 24.2277 47.5923 26.1094C47.5923 27.991 47.9663 29.5893 48.7143 30.9042C49.4849 32.2191 50.5729 33.2279 51.9782 33.9307ZM59.0493 24.6131H54.2103C54.2546 24.2703 54.3152 23.9643 54.3922 23.695C54.5962 23.0602 54.8908 22.6068 55.2762 22.3347C55.6842 22.0627 56.1828 21.9267 56.7721 21.9267C57.6335 21.9267 58.2341 22.2667 58.5741 22.9468C58.8078 23.3705 58.9662 23.9259 59.0493 24.6131Z" fill="#1D4C7E"/>
<path d="M19.6572 2.37723C34.7045 -1.2172 41.7743 6.98123 41.7743 6.98123C41.7743 6.98123 32.7311 1.53214 20.3656 5.24986C7.99999 8.96759 6.79825 18.3492 6.79825 22.1914C6.79825 26.0336 9.62428 29.1116 14.9191 28.897C20.2138 28.6824 36.5127 15.8512 59.5202 11.1082C82.5276 6.36512 99.8292 15.8519 99.8292 15.8519C99.8292 15.8519 78.6816 4.9007 50.4453 17.2109C31.3864 25.5201 26.1897 37.8103 14.4 37.8103C2.61036 37.8103 -0.000935114 28.7337 -0.000928182 22.1914C-0.000921355 15.649 4.6099 5.97166 19.6572 2.37723Z" fill="url(#paint1_linear_203_5383)"/>
<path d="M31.4027 8.17189V21.3844L24.4668 24.9874V9.33082C26.0447 8.1719 29.4382 7.69433 31.4027 8.17189Z" fill="#1D4C7E"/>
<path d="M31.4027 12.0605V21.3843L24.4668 24.9873V12.0605H31.4027Z" fill="url(#paint2_linear_203_5383)"/>
<path d="M31.4016 29.2368L31.3793 34.6027L24.4746 34.6027L24.4746 34.4946C25.9899 33.3347 29.7903 30.5267 31.4016 29.2368Z" fill="#1D4C7E"/>
<path d="M31.4016 29.2368L31.3793 34.6027L24.4746 34.6027L24.4746 34.4946C25.9899 33.3347 29.7903 30.5267 31.4016 29.2368Z" fill="url(#paint3_linear_203_5383)"/>
<path opacity="0.5" d="M38.7246 23.7302L36.6072 25.2275L34.4604 26.8076L33.1949 20.4948L35.9549 19.1742L38.6831 17.9204L38.7246 23.7302Z" fill="url(#paint4_linear_203_5383)"/>
<path d="M45.6496 14.4419V34.611H38.6797V14.4419H45.6496Z" fill="url(#paint5_linear_203_5383)"/>
<path d="M45.6496 12.4318V34.6112H38.6797V8.98535C41.5631 9.42477 43.9066 10.5873 45.6496 12.4318Z" fill="#1D4C7E"/>
<path d="M190.406 52.264C190.406 53.0002 190.138 53.566 189.602 53.9614C189.066 54.3523 188.298 54.5477 187.298 54.5477C186.294 54.5477 185.488 54.3954 184.879 54.0909V52.7071C185.765 53.1161 186.59 53.3206 187.353 53.3206C188.339 53.3206 188.832 53.0229 188.832 52.4276C188.832 52.2367 188.778 52.0776 188.668 51.9504C188.559 51.8231 188.38 51.6913 188.13 51.555C187.88 51.4187 187.532 51.2641 187.087 51.0914C186.219 50.7551 185.631 50.4188 185.322 50.0825C185.017 49.7462 184.865 49.3099 184.865 48.7736C184.865 48.1283 185.124 47.6284 185.642 47.2739C186.165 46.9149 186.874 46.7354 187.769 46.7354C188.655 46.7354 189.493 46.9149 190.284 47.2739L189.766 48.4805C188.952 48.1442 188.269 47.9761 187.714 47.9761C186.869 47.9761 186.446 48.2169 186.446 48.6987C186.446 48.935 186.556 49.1349 186.774 49.2986C186.996 49.4622 187.478 49.6871 188.219 49.9734C188.841 50.2143 189.293 50.4347 189.575 50.6347C189.857 50.8347 190.066 51.0664 190.202 51.33C190.338 51.5891 190.406 51.9004 190.406 52.264Z" fill="#3EBFF7"/>
<path d="M180.591 54.5477C179.419 54.5477 178.501 54.2068 177.838 53.5251C177.179 52.8389 176.85 51.8958 176.85 50.6961C176.85 49.4644 177.156 48.4964 177.77 47.792C178.383 47.0876 179.226 46.7354 180.298 46.7354C181.294 46.7354 182.08 47.0376 182.657 47.642C183.234 48.2465 183.522 49.0781 183.522 50.1371V51.0028H178.499C178.522 51.7345 178.719 52.2981 179.092 52.6934C179.465 53.0843 179.989 53.2797 180.666 53.2797C181.112 53.2797 181.525 53.2388 181.907 53.157C182.293 53.0707 182.707 52.9298 183.147 52.7343V54.0364C182.757 54.2227 182.361 54.3545 181.961 54.4318C181.562 54.509 181.105 54.5477 180.591 54.5477ZM180.298 47.9488C179.789 47.9488 179.381 48.1101 179.072 48.4328C178.767 48.7555 178.585 49.2258 178.526 49.8439H181.948C181.939 49.2213 181.789 48.7509 181.498 48.4328C181.207 48.1101 180.807 47.9488 180.298 47.9488Z" fill="#3EBFF7"/>
<path d="M173.429 54.5477C172.289 54.5477 171.421 54.2159 170.826 53.5524C170.235 52.8843 169.939 51.9277 169.939 50.6824C169.939 49.4144 170.248 48.4396 170.866 47.7579C171.489 47.0762 172.386 46.7354 173.559 46.7354C174.354 46.7354 175.069 46.8831 175.706 47.1785L175.222 48.4669C174.545 48.2033 173.986 48.0715 173.545 48.0715C172.241 48.0715 171.589 48.9373 171.589 50.6688C171.589 51.5141 171.75 52.1504 172.073 52.5776C172.4 53.0002 172.877 53.2115 173.504 53.2115C174.217 53.2115 174.892 53.0343 175.528 52.6798V54.0773C175.242 54.2455 174.935 54.3659 174.608 54.4386C174.286 54.5113 173.893 54.5477 173.429 54.5477Z" fill="#3EBFF7"/>
<path d="M168.092 54.4115H166.49V46.8719H168.092V54.4115ZM166.395 44.8745C166.395 44.5882 166.472 44.3677 166.626 44.2132C166.785 44.0587 167.01 43.9814 167.301 43.9814C167.583 43.9814 167.801 44.0587 167.955 44.2132C168.114 44.3677 168.194 44.5882 168.194 44.8745C168.194 45.1472 168.114 45.363 167.955 45.5221C167.801 45.6766 167.583 45.7539 167.301 45.7539C167.01 45.7539 166.785 45.6766 166.626 45.5221C166.472 45.363 166.395 45.1472 166.395 44.8745Z" fill="#3EBFF7"/>
<path d="M160.738 54.4117L157.875 46.8721H159.565L161.099 51.2554C161.362 51.9917 161.521 52.587 161.576 53.0415H161.631C161.671 52.7143 161.83 52.1189 162.108 51.2554L163.641 46.8721H165.345L162.469 54.4117H160.738Z" fill="#3EBFF7"/>
<path d="M156.82 46.7354C157.142 46.7354 157.408 46.7581 157.617 46.8035L157.46 48.2965C157.233 48.2419 156.997 48.2146 156.752 48.2146C156.111 48.2146 155.591 48.4237 155.191 48.8418C154.795 49.2599 154.598 49.803 154.598 50.4711V54.4113H152.996V46.8717H154.25L154.461 48.201H154.543C154.793 47.7511 155.118 47.3943 155.518 47.1307C155.922 46.8671 156.356 46.7354 156.82 46.7354Z" fill="#3EBFF7"/>
<path d="M148.244 54.5477C147.072 54.5477 146.154 54.2068 145.49 53.5251C144.831 52.8389 144.502 51.8958 144.502 50.6961C144.502 49.4644 144.809 48.4964 145.422 47.792C146.036 47.0876 146.878 46.7354 147.951 46.7354C148.946 46.7354 149.732 47.0376 150.309 47.642C150.886 48.2465 151.175 49.0781 151.175 50.1371V51.0028H146.151C146.174 51.7345 146.372 52.2981 146.744 52.6934C147.117 53.0843 147.642 53.2797 148.319 53.2797C148.764 53.2797 149.178 53.2388 149.559 53.157C149.946 53.0707 150.359 52.9298 150.8 52.7343V54.0364C150.409 54.2227 150.014 54.3545 149.614 54.4318C149.214 54.509 148.757 54.5477 148.244 54.5477ZM147.951 47.9488C147.442 47.9488 147.033 48.1101 146.724 48.4328C146.419 48.7555 146.238 49.2258 146.179 49.8439H149.6C149.591 49.2213 149.441 48.7509 149.15 48.4328C148.86 48.1101 148.46 47.9488 147.951 47.9488Z" fill="#3EBFF7"/>
<path d="M143.194 51.7051C143.194 52.5913 142.874 53.2866 142.233 53.7911C141.592 54.2955 140.709 54.5478 139.582 54.5478C138.455 54.5478 137.532 54.3728 136.814 54.0229V52.4822C137.269 52.6958 137.75 52.864 138.259 52.9867C138.773 53.1094 139.25 53.1707 139.691 53.1707C140.336 53.1707 140.811 53.048 141.115 52.8026C141.424 52.5572 141.579 52.2277 141.579 51.8141C141.579 51.4415 141.438 51.1256 141.156 50.8666C140.874 50.6075 140.293 50.3008 139.411 49.9463C138.503 49.5781 137.862 49.1578 137.489 48.6851C137.117 48.2125 136.93 47.6444 136.93 46.9809C136.93 46.1492 137.226 45.4947 137.816 45.0175C138.407 44.5404 139.2 44.3018 140.195 44.3018C141.149 44.3018 142.099 44.5108 143.044 44.9289L142.526 46.2582C141.64 45.8856 140.849 45.6993 140.154 45.6993C139.627 45.6993 139.227 45.8151 138.955 46.0469C138.682 46.2742 138.546 46.5764 138.546 46.9536C138.546 47.2126 138.6 47.4353 138.709 47.6217C138.818 47.8034 138.998 47.9761 139.248 48.1397C139.498 48.3034 139.947 48.5192 140.597 48.7874C141.329 49.0919 141.865 49.3759 142.206 49.6395C142.547 49.9031 142.796 50.2008 142.955 50.5325C143.115 50.8643 143.194 51.2551 143.194 51.7051Z" fill="#3EBFF7"/>
<defs>
<linearGradient id="paint0_linear_203_5383" x1="40.2332" y1="8.08145" x2="44.3181" y2="35.9632" gradientUnits="userSpaceOnUse">
<stop offset="0.16" stop-color="#2E66A2"/>
<stop offset="0.86" stop-color="#27B1EF"/>
<stop offset="0.985" stop-color="#27B1EF"/>
</linearGradient>
<linearGradient id="paint1_linear_203_5383" x1="11.241" y1="-5.39664" x2="58.9189" y2="23.5953" gradientUnits="userSpaceOnUse">
<stop offset="0.025" stop-color="#1CACEB"/>
<stop offset="0.609233" stop-color="#47C4FB"/>
<stop offset="0.985" stop-color="#BAEAFF"/>
</linearGradient>
<linearGradient id="paint2_linear_203_5383" x1="33.6801" y1="14.8887" x2="35.0581" y2="24.9872" gradientUnits="userSpaceOnUse">
<stop offset="0.11" stop-color="#1D4C7E"/>
<stop offset="0.805" stop-color="#031E3A"/>
</linearGradient>
<linearGradient id="paint3_linear_203_5383" x1="26.7223" y1="29.1191" x2="29.108" y2="38.9225" gradientUnits="userSpaceOnUse">
<stop offset="0.15" stop-color="#0B487F"/>
<stop offset="0.702136" stop-color="#2FACED" stop-opacity="0"/>
</linearGradient>
<linearGradient id="paint4_linear_203_5383" x1="39.5482" y1="19.2051" x2="29.7462" y2="21.5896" gradientUnits="userSpaceOnUse">
<stop offset="0.15" stop-color="#0B487F"/>
<stop offset="0.702136" stop-color="#2FACED" stop-opacity="0"/>
</linearGradient>
<linearGradient id="paint5_linear_203_5383" x1="35.0587" y1="8.66656" x2="35.0587" y2="34.611" gradientUnits="userSpaceOnUse">
<stop offset="0.15" stop-color="#2D75B6"/>
<stop offset="0.702136" stop-color="#2FACED"/>
</linearGradient>
</defs>
</svg>
