<svg width="1916" height="583" viewBox="0 0 1916 583" fill="none" xmlns="http://www.w3.org/2000/svg">
<path fill-rule="evenodd" clip-rule="evenodd" d="M419.197 66.1161C419.197 66.1161 347.743 -16.348 196.826 19.6959C45.9077 55.7398 7.03112e-05 152.782 1.3606e-10 218.387C-6.89292e-05 283.992 26.19 375.009 144.435 375.009C182.698 375.009 214.036 362.105 245.402 341.824V342.928H314.966V289.269C336.784 271.791 360.544 252.97 387.94 234.155V342.928H457.845V191.646C472.867 183.671 488.854 175.898 505.953 168.444C789.151 45.0007 1001.02 154.667 1001.02 154.667C1001.02 154.667 827.725 59.6854 596.97 107.247C536.201 119.773 480.521 137.906 430.382 157.868H387.94V175.707C361.828 187.244 337.477 199.007 314.966 210.342V157.868H245.402V246.403C202.397 268.861 170.133 284.798 149.641 285.629C90.4525 288.027 65.5033 256.915 65.5033 218.387C65.5033 179.858 79.9088 85.7822 203.93 48.5019C327.951 11.2216 419.197 66.1161 419.197 66.1161ZM1537.31 172.428V116.163L1468.43 135.259V172.428H1440.47V219.827H1468.43V288.368C1468.43 302.463 1471.05 313.716 1476.27 322.127C1481.73 330.538 1489.46 336.676 1499.46 340.541C1509.69 344.406 1522.08 346.338 1536.63 346.338C1545.5 346.338 1554.59 345.201 1563.91 342.928C1573.23 340.882 1580.62 337.927 1586.08 334.062L1581.64 293.824C1578.46 295.87 1575.05 297.348 1571.41 298.257C1567.78 299.166 1563.46 299.621 1558.45 299.621C1551.41 299.621 1546.07 297.916 1542.43 294.506C1539.02 291.096 1537.31 285.413 1537.31 277.456V219.827H1583.69V172.428H1537.31ZM1682.7 346.338C1663.15 346.338 1646.22 342.928 1631.89 336.108C1617.8 329.061 1606.89 318.944 1599.16 305.759C1591.66 292.574 1587.9 276.547 1587.9 257.678C1587.9 238.809 1591.77 222.782 1599.5 209.597C1607.23 196.412 1618.03 186.409 1631.89 179.589C1645.76 172.542 1661.79 169.018 1679.97 169.018C1698.62 169.018 1714.42 172.542 1727.37 179.589C1740.56 186.409 1750.56 195.957 1757.38 208.233C1764.43 220.509 1767.95 234.831 1767.95 251.199C1767.95 255.064 1767.72 258.928 1767.27 262.793C1767.04 266.658 1766.7 269.954 1766.25 272.682H1654.22C1654.79 276.867 1655.64 280.504 1656.79 283.594C1659.29 289.505 1662.7 293.597 1667.02 295.87C1671.34 298.143 1676.79 299.28 1683.38 299.28C1690.66 299.28 1696.34 297.802 1700.43 294.847C1704.53 291.892 1707.48 287.8 1709.3 282.571L1764.54 298.939C1761.81 309.396 1756.24 318.149 1747.83 325.196C1739.65 332.243 1729.87 337.586 1718.51 341.223C1707.14 344.633 1695.21 346.338 1682.7 346.338ZM1656.1 233.467C1655.33 236.168 1654.72 239.237 1654.28 242.674H1702.81C1701.98 235.783 1700.39 230.213 1698.05 225.965C1694.64 219.145 1688.61 215.735 1679.97 215.735C1674.06 215.735 1669.06 217.099 1664.97 219.827C1661.11 222.555 1658.15 227.102 1656.1 233.467ZM1782.98 342.928V172.428H1844.7L1846.75 212.325C1850.61 198.912 1856.64 188.341 1864.82 180.612C1873.23 172.883 1884.15 169.018 1897.56 169.018C1902.33 169.018 1906.2 169.473 1909.15 170.382C1912.11 171.064 1914.27 171.973 1915.63 173.11L1909.49 229.034C1907.22 228.125 1904.26 227.329 1900.63 226.647C1896.99 225.965 1892.78 225.624 1888.01 225.624C1881.19 225.624 1875.05 226.874 1869.6 229.375C1864.14 231.876 1859.82 235.627 1856.64 240.628C1853.46 245.402 1851.86 251.54 1851.86 259.042V342.928H1782.98ZM1251.55 414.538V172.428H1313.96L1315.68 207.144C1316.69 204.694 1317.82 202.329 1319.07 200.049C1324.3 190.501 1331.23 182.999 1339.87 177.543C1348.74 171.86 1358.97 169.018 1370.56 169.018C1384.66 169.018 1396.71 172.542 1406.71 179.589C1416.71 186.409 1424.33 196.412 1429.56 209.597C1435.01 222.555 1437.74 238.355 1437.74 256.996C1437.74 275.637 1435.01 291.664 1429.56 305.077C1424.1 318.49 1416.26 328.72 1406.03 335.767C1396.03 342.814 1384.09 346.338 1370.22 346.338C1354.08 346.338 1341.35 341.337 1332.03 331.334C1327.31 326.02 1323.44 320.032 1320.44 313.368V414.538H1251.55ZM1343.97 296.893C1351.7 296.893 1357.72 294.051 1362.04 288.368C1366.36 282.457 1368.52 272.227 1368.52 257.678C1368.52 243.129 1366.36 232.899 1362.04 226.988C1357.72 221.077 1351.81 218.122 1344.31 218.122C1339.53 218.122 1335.33 219.6 1331.69 222.555C1328.05 225.51 1325.21 229.943 1323.16 235.854C1321.35 241.537 1320.44 248.812 1320.44 257.678C1320.44 266.089 1321.23 273.25 1322.82 279.161C1324.64 285.072 1327.37 289.505 1331.01 292.46C1334.65 295.415 1338.96 296.893 1343.97 296.893ZM1192 179.589C1178.13 172.542 1161.88 169.018 1143.23 169.018C1125.05 169.018 1108.91 172.542 1094.81 179.589C1080.95 186.409 1070.03 196.412 1062.08 209.597C1054.35 222.782 1050.48 238.809 1050.48 257.678C1050.48 276.319 1054.35 292.346 1062.08 305.759C1070.03 318.944 1080.95 329.061 1094.81 336.108C1108.91 342.928 1125.05 346.338 1143.23 346.338C1161.88 346.338 1178.13 342.928 1192 336.108C1205.86 329.061 1216.66 318.944 1224.39 305.759C1232.12 292.346 1235.99 276.319 1235.99 257.678C1235.99 238.809 1232.12 222.782 1224.39 209.597C1216.66 196.412 1205.86 186.409 1192 179.589ZM1130.28 220.168C1133.91 217.667 1138.23 216.417 1143.23 216.417C1148.46 216.417 1152.78 217.667 1156.19 220.168C1159.6 222.669 1162.22 226.988 1164.04 233.126C1165.85 239.264 1166.76 247.448 1166.76 257.678C1166.76 267.908 1165.85 276.092 1164.04 282.23C1162.22 288.141 1159.6 292.46 1156.19 295.188C1152.78 297.689 1148.46 298.939 1143.23 298.939C1138.23 298.939 1133.91 297.689 1130.28 295.188C1126.87 292.46 1124.25 288.141 1122.43 282.23C1120.61 276.092 1119.71 267.908 1119.71 257.678C1119.71 247.448 1120.61 239.264 1122.43 233.126C1124.25 226.988 1126.87 222.669 1130.28 220.168ZM958.981 169.018C978.077 169.018 993.763 171.746 1006.04 177.202C1018.54 182.431 1027.98 189.364 1034.34 198.003C1040.71 206.414 1044.34 215.28 1045.25 224.601L981.487 244.038C980.805 234.717 978.873 227.784 975.69 223.237C972.735 218.69 967.961 216.417 961.368 216.417C955.685 216.417 950.911 217.781 947.046 220.509C943.182 223.237 940.34 227.67 938.521 233.808C936.703 239.946 935.793 248.13 935.793 258.36C935.793 268.817 936.816 277.001 938.862 282.912C941.136 288.823 944.205 293.028 948.069 295.529C952.161 297.802 956.708 298.939 961.709 298.939C966.256 298.939 969.893 298.03 972.621 296.211C975.577 294.165 977.964 291.323 979.782 287.686C981.601 283.821 982.738 279.275 983.192 274.046L1044.91 293.483C1044 303.258 1040.03 312.124 1032.98 320.081C1026.16 328.038 1016.72 334.403 1004.68 339.177C992.627 343.951 978.418 346.338 962.05 346.338C942.5 346.338 925.563 342.928 911.241 336.108C896.919 329.061 885.894 318.944 878.164 305.759C870.435 292.574 866.57 276.547 866.57 257.678C866.57 238.809 870.435 222.782 878.164 209.597C885.894 196.412 896.692 186.409 910.559 179.589C924.427 172.542 940.567 169.018 958.981 169.018ZM786.843 181.263C792.981 186.037 802.87 188.424 816.51 188.424C830.15 188.424 839.925 186.037 845.836 181.263C851.974 176.489 855.043 168.76 855.043 158.075C855.043 147.163 851.974 139.32 845.836 134.546C839.925 129.772 830.15 127.385 816.51 127.385C802.87 127.385 792.981 129.772 786.843 134.546C780.932 139.32 777.977 147.163 777.977 158.075C777.977 168.76 780.932 176.489 786.843 181.263ZM850.951 342.928V195.428C827.078 204.423 808.578 205.923 782.069 195.428V342.928H850.951ZM740.95 132.872V279.502C740.95 286.777 742.087 292.005 744.36 295.188C746.634 298.371 749.134 300.303 754.818 300.303C757.546 300.303 759.933 300.189 761.979 299.962C764.252 299.507 766.639 298.825 769.14 297.916V335.251C765.048 338.206 756.977 341.791 749.475 343.61C742.201 345.429 734.926 346.338 727.651 346.338C707.873 346.338 693.665 342.019 685.026 333.38C676.388 324.514 672.068 309.851 672.068 289.391V142.172C693.077 134.672 715.862 132.872 740.95 132.872ZM521.319 336.108C535.641 342.928 552.577 346.338 572.128 346.338C584.631 346.338 596.566 344.633 607.933 341.223C619.3 337.586 629.075 332.244 637.259 325.196C645.67 318.149 651.24 309.397 653.968 298.939L598.726 282.571C596.907 287.8 593.952 291.892 589.86 294.847C585.768 297.803 580.085 299.28 572.81 299.28C566.217 299.28 560.761 298.144 556.442 295.87C552.123 293.597 548.713 289.505 546.212 283.594C545.068 280.504 544.211 276.867 543.643 272.682H655.673C656.128 269.954 656.469 266.658 656.696 262.793C657.151 258.929 657.378 255.064 657.378 251.199C657.378 234.831 653.854 220.509 646.807 208.233C639.987 195.957 629.984 186.409 616.799 179.589C603.841 172.542 588.041 169.018 569.4 169.018C551.213 169.018 535.186 172.542 521.319 179.589C507.452 186.409 496.653 196.412 488.924 209.597C481.195 222.783 477.33 238.81 477.33 257.678C477.33 276.547 481.081 292.574 488.583 305.759C496.312 318.945 507.224 329.061 521.319 336.108ZM592.239 242.674H543.706C544.151 239.237 544.758 236.168 545.53 233.467C547.576 227.102 550.531 222.555 554.396 219.827C558.488 217.099 563.489 215.735 569.4 215.735C578.039 215.735 584.063 219.145 587.473 225.965C589.817 230.213 591.406 235.783 592.239 242.674Z" fill="url(#paint0_linear_208_5635)"/>
<path fill-rule="evenodd" clip-rule="evenodd" d="M419.317 66.1747C419.317 66.1747 348.216 -16.4392 197.298 19.6047C46.3802 55.6486 6.94953e-05 152.782 1.393e-10 218.387C-6.97451e-05 283.992 26.19 375.009 144.435 375.009C182.698 375.009 214.036 362.105 245.402 341.824V342.928H314.966V289.269C336.784 271.791 360.544 252.97 387.94 234.155V342.928H457.845V191.646C472.867 183.671 488.854 175.898 505.953 168.444C789.151 45.0006 1000.92 154.619 1000.92 154.619C1000.92 154.619 827.725 59.6854 596.97 107.247C547.082 117.53 500.624 131.592 457.845 147.343V137.868H387.94V175.707C361.828 187.244 337.477 199.007 314.966 210.342V147.868H245.402V246.403C202.397 268.861 170.133 284.798 149.641 285.629C90.4525 288.027 65.5033 256.915 65.5033 218.387C65.5033 179.858 80.3812 85.691 204.402 48.4107C328.423 11.1304 419.317 66.1747 419.317 66.1747ZM1537.31 172.428V116.163L1468.43 135.259V172.428H1440.47V219.827H1468.43V288.368C1468.43 302.463 1471.05 313.716 1476.27 322.127C1481.73 330.538 1489.46 336.676 1499.46 340.541C1509.69 344.406 1522.08 346.338 1536.63 346.338C1545.5 346.338 1554.59 345.201 1563.91 342.928C1573.23 340.882 1580.62 337.927 1586.08 334.062L1581.64 293.824C1578.46 295.87 1575.05 297.348 1571.41 298.257C1567.78 299.166 1563.46 299.621 1558.45 299.621C1551.41 299.621 1546.07 297.916 1542.43 294.506C1539.02 291.096 1537.31 285.413 1537.31 277.456V219.827H1583.69V172.428H1537.31ZM1682.7 346.338C1663.15 346.338 1646.22 342.928 1631.89 336.108C1617.8 329.06 1606.89 318.944 1599.16 305.759C1591.66 292.573 1587.9 276.547 1587.9 257.678C1587.9 238.809 1591.77 222.782 1599.5 209.597C1607.23 196.411 1618.03 186.409 1631.89 179.589C1645.76 172.542 1661.79 169.018 1679.97 169.018C1698.62 169.018 1714.42 172.542 1727.37 179.589C1740.56 186.409 1750.56 195.957 1757.38 208.233C1764.43 220.509 1767.95 234.831 1767.95 251.199C1767.95 255.064 1767.72 258.928 1767.27 262.793C1767.04 266.658 1766.7 269.954 1766.25 272.682H1654.22C1654.79 276.866 1655.64 280.504 1656.79 283.594C1659.29 289.504 1662.7 293.596 1667.02 295.87C1671.34 298.143 1676.79 299.28 1683.38 299.28C1690.66 299.28 1696.34 297.802 1700.43 294.847C1704.53 291.892 1707.48 287.799 1709.3 282.571L1764.54 298.939C1761.81 309.396 1756.24 318.148 1747.83 325.196C1739.65 332.243 1729.87 337.586 1718.51 341.223C1707.14 344.633 1695.21 346.338 1682.7 346.338ZM1656.1 233.467C1655.33 236.168 1654.72 239.237 1654.28 242.674H1702.81C1701.98 235.783 1700.39 230.213 1698.05 225.965C1694.64 219.145 1688.61 215.735 1679.97 215.735C1674.06 215.735 1669.06 217.099 1664.97 219.827C1661.11 222.555 1658.15 227.102 1656.1 233.467ZM1782.98 342.928V172.428H1844.7L1846.75 212.325C1850.61 198.912 1856.64 188.341 1864.82 180.612C1873.23 172.882 1884.15 169.018 1897.56 169.018C1902.33 169.018 1906.2 169.472 1909.15 170.382C1912.11 171.064 1914.27 171.973 1915.63 173.11L1909.49 229.034C1907.22 228.124 1904.26 227.329 1900.63 226.647C1896.99 225.965 1892.78 225.624 1888.01 225.624C1881.19 225.624 1875.05 226.874 1869.6 229.375C1864.14 231.875 1859.82 235.626 1856.64 240.628C1853.46 245.402 1851.86 251.54 1851.86 259.042V342.928H1782.98ZM1251.55 414.538V172.428H1313.96L1315.68 207.143C1316.69 204.694 1317.82 202.329 1319.07 200.049C1324.3 190.501 1331.23 182.999 1339.87 177.543C1348.74 171.859 1358.97 169.018 1370.56 169.018C1384.66 169.018 1396.71 172.542 1406.71 179.589C1416.71 186.409 1424.33 196.411 1429.56 209.597C1435.01 222.555 1437.74 238.354 1437.74 256.996C1437.74 275.637 1435.01 291.664 1429.56 305.077C1424.1 318.49 1416.26 328.719 1406.03 335.767C1396.03 342.814 1384.09 346.338 1370.22 346.338C1354.08 346.338 1341.35 341.337 1332.03 331.334C1327.31 326.02 1323.44 320.032 1320.44 313.368V414.538H1251.55ZM1343.97 296.893C1351.7 296.893 1357.72 294.051 1362.04 288.368C1366.36 282.457 1368.52 272.227 1368.52 257.678C1368.52 243.129 1366.36 232.898 1362.04 226.988C1357.72 221.077 1351.81 218.122 1344.31 218.122C1339.53 218.122 1335.33 219.6 1331.69 222.555C1328.05 225.51 1325.21 229.943 1323.16 235.854C1321.35 241.537 1320.44 248.812 1320.44 257.678C1320.44 266.089 1321.23 273.25 1322.82 279.161C1324.64 285.072 1327.37 289.505 1331.01 292.46C1334.65 295.415 1338.96 296.893 1343.97 296.893ZM1192 179.589C1178.13 172.542 1161.88 169.018 1143.23 169.018C1125.05 169.018 1108.91 172.542 1094.81 179.589C1080.95 186.409 1070.03 196.411 1062.08 209.597C1054.35 222.782 1050.48 238.809 1050.48 257.678C1050.48 276.319 1054.35 292.346 1062.08 305.759C1070.03 318.944 1080.95 329.06 1094.81 336.108C1108.91 342.928 1125.05 346.338 1143.23 346.338C1161.88 346.338 1178.13 342.928 1192 336.108C1205.86 329.06 1216.66 318.944 1224.39 305.759C1232.12 292.346 1235.99 276.319 1235.99 257.678C1235.99 238.809 1232.12 222.782 1224.39 209.597C1216.66 196.411 1205.86 186.409 1192 179.589ZM1130.28 220.168C1133.91 217.667 1138.23 216.417 1143.23 216.417C1148.46 216.417 1152.78 217.667 1156.19 220.168C1159.6 222.669 1162.22 226.988 1164.04 233.126C1165.85 239.264 1166.76 247.448 1166.76 257.678C1166.76 267.908 1165.85 276.092 1164.04 282.23C1162.22 288.141 1159.6 292.46 1156.19 295.188C1152.78 297.689 1148.46 298.939 1143.23 298.939C1138.23 298.939 1133.91 297.689 1130.28 295.188C1126.87 292.46 1124.25 288.141 1122.43 282.23C1120.61 276.092 1119.71 267.908 1119.71 257.678C1119.71 247.448 1120.61 239.264 1122.43 233.126C1124.25 226.988 1126.87 222.669 1130.28 220.168ZM958.981 169.018C978.077 169.018 993.763 171.746 1006.04 177.202C1018.54 182.43 1027.98 189.364 1034.34 198.003C1040.71 206.414 1044.34 215.28 1045.25 224.601L981.487 244.038C980.805 234.717 978.873 227.783 975.69 223.237C972.735 218.69 967.961 216.417 961.368 216.417C955.685 216.417 950.911 217.781 947.046 220.509C943.182 223.237 940.34 227.67 938.521 233.808C936.703 239.946 935.793 248.13 935.793 258.36C935.793 268.817 936.816 277.001 938.862 282.912C941.136 288.823 944.205 293.028 948.069 295.529C952.161 297.802 956.708 298.939 961.709 298.939C966.256 298.939 969.893 298.03 972.621 296.211C975.577 294.165 977.964 291.323 979.782 287.686C981.601 283.821 982.738 279.275 983.192 274.046L1044.91 293.483C1044 303.258 1040.03 312.124 1032.98 320.081C1026.16 328.038 1016.72 334.403 1004.68 339.177C992.627 343.951 978.418 346.338 962.05 346.338C942.5 346.338 925.563 342.928 911.241 336.108C896.919 329.06 885.894 318.944 878.164 305.759C870.435 292.573 866.57 276.547 866.57 257.678C866.57 238.809 870.435 222.782 878.164 209.597C885.894 196.411 896.692 186.409 910.559 179.589C924.427 172.542 940.567 169.018 958.981 169.018ZM786.843 181.263C792.981 186.037 802.87 188.424 816.51 188.424C830.15 188.424 839.925 186.037 845.836 181.263C851.974 176.489 855.043 168.76 855.043 158.075C855.043 147.163 851.974 139.32 845.836 134.546C839.925 129.772 830.15 127.385 816.51 127.385C802.87 127.385 792.981 129.772 786.843 134.546C780.932 139.32 777.977 147.163 777.977 158.075C777.977 168.76 780.932 176.489 786.843 181.263ZM850.951 342.928V195.428C827.078 204.423 808.578 205.923 782.069 195.428V342.928H850.951ZM740.95 132.849V279.502C740.95 286.777 742.087 292.005 744.36 295.188C746.634 298.371 749.134 300.303 754.818 300.303C757.546 300.303 759.933 300.189 761.979 299.962C764.252 299.507 766.639 298.825 769.14 297.916V335.25C765.048 338.206 756.977 341.791 749.475 343.61C742.201 345.429 734.926 346.338 727.651 346.338C707.873 346.338 693.665 342.019 685.026 333.38C676.388 324.514 672.068 309.851 672.068 289.391V142.137C693.077 134.637 711.577 132.849 740.95 132.849ZM521.319 336.108C535.641 342.928 552.577 346.338 572.128 346.338C584.631 346.338 596.566 344.633 607.933 341.223C619.3 337.586 629.075 332.243 637.259 325.196C645.67 318.149 651.24 309.396 653.968 298.939L598.726 282.571C596.907 287.8 593.952 291.892 589.86 294.847C585.768 297.802 580.085 299.28 572.81 299.28C566.217 299.28 560.761 298.143 556.442 295.87C552.123 293.597 548.713 289.505 546.212 283.594C545.068 280.504 544.211 276.867 543.643 272.682H655.673C656.128 269.954 656.469 266.658 656.696 262.793C657.151 258.928 657.378 255.064 657.378 251.199C657.378 234.831 653.854 220.509 646.807 208.233C639.987 195.957 629.984 186.409 616.799 179.589C603.841 172.542 588.041 169.018 569.4 169.018C551.213 169.018 535.186 172.542 521.319 179.589C507.452 186.409 496.653 196.412 488.924 209.597C481.195 222.782 477.33 238.809 477.33 257.678C477.33 276.547 481.081 292.574 488.583 305.759C496.312 318.944 507.224 329.061 521.319 336.108ZM592.239 242.674H543.706C544.151 239.237 544.758 236.168 545.53 233.467C547.576 227.102 550.531 222.555 554.396 219.827C558.488 217.099 563.489 215.735 569.4 215.735C578.039 215.735 584.063 219.145 587.473 225.965C589.817 230.213 591.406 235.783 592.239 242.674Z" fill="#102039"/>
<path d="M197.162 19.6959C348.08 -16.3481 418.987 65.8635 418.987 65.8635C418.987 65.8635 328.288 11.2215 204.267 48.5018C80.2455 85.7822 68.1926 179.858 68.1927 218.387C68.1927 256.915 96.5365 287.781 149.641 285.629C202.745 283.477 366.216 154.809 596.97 107.247C827.724 59.6853 1001.25 154.816 1001.25 154.816C1001.25 154.816 789.151 45.0006 505.953 168.444C314.801 251.766 262.68 375.009 144.435 375.009C26.1899 375.009 -0.000160434 283.992 -9.08135e-05 218.387C-2.11933e-05 152.782 46.2445 55.7398 197.162 19.6959Z" fill="url(#paint1_linear_208_5635)"/>
<path d="M314.964 77.8035V210.295L245.4 246.425V89.4249C261.226 77.8035 295.262 73.0146 314.964 77.8035Z" fill="#102039"/>
<path d="M314.964 116.799V210.295L245.4 246.425V116.799H314.964Z" fill="url(#paint2_linear_208_5635)"/>
<path d="M314.953 289.035L314.729 342.843L245.479 342.842L245.479 341.759C260.676 330.128 298.793 301.969 314.953 289.035Z" fill="#1D4C7E"/>
<path d="M314.953 289.035L314.729 342.843L245.479 342.842L245.479 341.759C260.676 330.128 298.793 301.969 314.953 289.035Z" fill="url(#paint3_linear_208_5635)"/>
<path opacity="0.5" d="M388.385 233.821L367.148 248.836L345.617 264.68L332.925 201.377L360.606 188.134L387.969 175.562L388.385 233.821Z" fill="url(#paint4_linear_208_5635)"/>
<path d="M457.844 140.677V342.928H387.939V140.677H457.844Z" fill="url(#paint5_linear_208_5635)"/>
<path d="M457.844 120.519V342.928H387.939V85.9594C416.859 90.3657 440.363 102.024 457.844 120.519Z" fill="#102039"/>
<path d="M1909.7 519.947C1909.7 527.33 1907.01 533.004 1901.63 536.969C1896.25 540.888 1888.55 542.848 1878.53 542.848C1868.45 542.848 1860.36 541.321 1854.26 538.267V524.391C1863.14 528.492 1871.42 530.543 1879.07 530.543C1888.96 530.543 1893.91 527.558 1893.91 521.588C1893.91 519.674 1893.36 518.079 1892.27 516.803C1891.17 515.527 1889.37 514.205 1886.87 512.838C1884.36 511.471 1880.87 509.921 1876.41 508.189C1867.7 504.817 1861.8 501.445 1858.7 498.072C1855.65 494.7 1854.12 490.325 1854.12 484.947C1854.12 478.476 1856.72 473.463 1861.91 469.908C1867.15 466.308 1874.26 464.508 1883.24 464.508C1892.13 464.508 1900.54 466.308 1908.47 469.908L1903.27 482.008C1895.11 478.635 1888.26 476.949 1882.7 476.949C1874.22 476.949 1869.98 479.364 1869.98 484.195C1869.98 486.565 1871.07 488.57 1873.26 490.211C1875.49 491.851 1880.33 494.107 1887.75 496.978C1894 499.394 1898.53 501.604 1901.36 503.609C1904.18 505.614 1906.28 507.939 1907.65 510.582C1909.01 513.18 1909.7 516.301 1909.7 519.947Z" fill="#3595CA"/>
<path d="M1811.26 542.848C1799.5 542.848 1790.3 539.43 1783.64 532.594C1777.03 525.712 1773.73 516.256 1773.73 504.224C1773.73 491.874 1776.81 482.167 1782.96 475.103C1789.11 468.04 1797.57 464.508 1808.32 464.508C1818.3 464.508 1826.18 467.538 1831.97 473.599C1837.76 479.661 1840.65 488.001 1840.65 498.619V507.301H1790.27C1790.5 514.638 1792.48 520.289 1796.22 524.254C1799.96 528.173 1805.22 530.133 1812.01 530.133C1816.48 530.133 1820.62 529.723 1824.45 528.902C1828.33 528.036 1832.47 526.624 1836.89 524.664V537.721C1832.98 539.589 1829.01 540.911 1825 541.685C1820.99 542.46 1816.41 542.848 1811.26 542.848ZM1808.32 476.676C1803.22 476.676 1799.11 478.293 1796.02 481.529C1792.96 484.765 1791.14 489.482 1790.55 495.68H1824.86C1824.77 489.436 1823.27 484.719 1820.35 481.529C1817.43 478.293 1813.42 476.676 1808.32 476.676Z" fill="#3595CA"/>
<path d="M1739.41 542.848C1727.98 542.848 1719.27 539.521 1713.3 532.867C1707.38 526.168 1704.41 516.575 1704.41 504.088C1704.41 491.373 1707.51 481.598 1713.71 474.762C1719.95 467.926 1728.96 464.508 1740.71 464.508C1748.69 464.508 1755.87 465.989 1762.25 468.951L1757.39 481.871C1750.6 479.228 1745 477.906 1740.58 477.906C1727.5 477.906 1720.96 486.588 1720.96 503.951C1720.96 512.428 1722.57 518.808 1725.81 523.092C1729.09 527.33 1733.88 529.449 1740.17 529.449C1747.32 529.449 1754.09 527.672 1760.47 524.117V538.131C1757.6 539.817 1754.52 541.025 1751.24 541.754C1748 542.483 1744.06 542.848 1739.41 542.848Z" fill="#3595CA"/>
<path d="M1685.89 541.48H1669.82V465.875H1685.89V541.48ZM1668.87 445.846C1668.87 442.974 1669.64 440.764 1671.19 439.215C1672.79 437.665 1675.04 436.891 1677.96 436.891C1680.78 436.891 1682.97 437.665 1684.52 439.215C1686.12 440.764 1686.91 442.974 1686.91 445.846C1686.91 448.58 1686.12 450.745 1684.52 452.34C1682.97 453.889 1680.78 454.664 1677.96 454.664C1675.04 454.664 1672.79 453.889 1671.19 452.34C1669.64 450.745 1668.87 448.58 1668.87 445.846Z" fill="#3595CA"/>
<path d="M1612.13 541.48L1583.42 465.875H1600.37L1615.75 509.83C1618.4 517.213 1619.99 523.183 1620.54 527.74H1621.08C1621.49 524.459 1623.09 518.489 1625.87 509.83L1641.25 465.875H1658.34L1629.49 541.48H1612.13Z" fill="#3595CA"/>
<path d="M1572.82 464.508C1576.06 464.508 1578.72 464.736 1580.82 465.191L1579.25 480.162C1576.97 479.615 1574.6 479.342 1572.14 479.342C1565.71 479.342 1560.49 481.438 1556.48 485.631C1552.52 489.823 1550.54 495.269 1550.54 501.969V541.48H1534.47V465.875H1547.05L1549.17 479.205H1549.99C1552.5 474.693 1555.76 471.116 1559.77 468.473C1563.82 465.829 1568.17 464.508 1572.82 464.508Z" fill="#3595CA"/>
<path d="M1486.83 542.848C1475.07 542.848 1465.86 539.43 1459.21 532.594C1452.6 525.712 1449.3 516.256 1449.3 504.224C1449.3 491.874 1452.37 482.167 1458.53 475.103C1464.68 468.04 1473.13 464.508 1483.89 464.508C1493.87 464.508 1501.75 467.538 1507.54 473.599C1513.33 479.661 1516.22 488.001 1516.22 498.619V507.301H1465.84C1466.07 514.638 1468.05 520.289 1471.79 524.254C1475.52 528.173 1480.79 530.133 1487.58 530.133C1492.04 530.133 1496.19 529.723 1500.02 528.902C1503.89 528.036 1508.04 526.624 1512.46 524.664V537.721C1508.54 539.589 1504.58 540.911 1500.57 541.685C1496.56 542.46 1491.98 542.848 1486.83 542.848ZM1483.89 476.676C1478.78 476.676 1474.68 478.293 1471.58 481.529C1468.53 484.765 1466.71 489.482 1466.11 495.68H1500.43C1500.34 489.436 1498.83 484.719 1495.92 481.529C1493 478.293 1488.99 476.676 1483.89 476.676Z" fill="#3595CA"/>
<path d="M1436.17 514.342C1436.17 523.228 1432.96 530.201 1426.53 535.26C1420.11 540.318 1411.24 542.848 1399.94 542.848C1388.64 542.848 1379.39 541.093 1372.19 537.584V522.135C1376.74 524.277 1381.58 525.963 1386.68 527.193C1391.83 528.424 1396.61 529.039 1401.04 529.039C1407.51 529.039 1412.27 527.808 1415.32 525.348C1418.42 522.887 1419.97 519.583 1419.97 515.435C1419.97 511.698 1418.56 508.531 1415.73 505.933C1412.91 503.336 1407.07 500.26 1398.23 496.705C1389.12 493.014 1382.69 488.798 1378.96 484.058C1375.22 479.319 1373.35 473.622 1373.35 466.969C1373.35 458.629 1376.31 452.066 1382.24 447.281C1388.16 442.496 1396.11 440.103 1406.09 440.103C1415.66 440.103 1425.19 442.2 1434.67 446.392L1429.47 459.723C1420.59 455.986 1412.66 454.117 1405.68 454.117C1400.4 454.117 1396.39 455.279 1393.65 457.603C1390.92 459.882 1389.55 462.913 1389.55 466.695C1389.55 469.293 1390.1 471.526 1391.19 473.394C1392.29 475.217 1394.09 476.949 1396.59 478.59C1399.1 480.23 1403.61 482.395 1410.13 485.084C1417.46 488.137 1422.84 490.986 1426.26 493.629C1429.68 496.272 1432.18 499.257 1433.78 502.584C1435.37 505.911 1436.17 509.83 1436.17 514.342Z" fill="#3595CA"/>
<defs>
<linearGradient id="paint0_linear_208_5635" x1="403.521" y1="76.8991" x2="444.476" y2="356.492" gradientUnits="userSpaceOnUse">
<stop offset="0.16" stop-color="#2E66A2"/>
<stop offset="0.86" stop-color="#27B1EF"/>
<stop offset="0.985" stop-color="#27B1EF"/>
</linearGradient>
<linearGradient id="paint1_linear_208_5635" x1="112.751" y1="-58.2583" x2="590.892" y2="232.542" gradientUnits="userSpaceOnUse">
<stop offset="0.025" stop-color="#1CACEB"/>
<stop offset="0.609233" stop-color="#47C4FB"/>
<stop offset="0.985" stop-color="#BAEAFF"/>
</linearGradient>
<linearGradient id="paint2_linear_208_5635" x1="306.004" y1="172.631" x2="322.868" y2="214.227" gradientUnits="userSpaceOnUse">
<stop stop-color="#102039"/>
<stop offset="1" stop-color="#030F23"/>
</linearGradient>
<linearGradient id="paint3_linear_208_5635" x1="290.265" y1="306.413" x2="306.034" y2="341.828" gradientUnits="userSpaceOnUse">
<stop offset="0.15" stop-color="#030E1F"/>
<stop offset="0.702136" stop-color="#102039"/>
</linearGradient>
<linearGradient id="paint4_linear_208_5635" x1="396.645" y1="188.444" x2="298.337" y2="212.364" gradientUnits="userSpaceOnUse">
<stop offset="0.15" stop-color="#0B487F"/>
<stop offset="0.702136" stop-color="#2FACED" stop-opacity="0"/>
</linearGradient>
<linearGradient id="paint5_linear_208_5635" x1="351.623" y1="82.7639" x2="351.623" y2="342.928" gradientUnits="userSpaceOnUse">
<stop offset="0.15" stop-color="#2D75B6"/>
<stop offset="0.702136" stop-color="#2FACED"/>
</linearGradient>
</defs>
</svg>
