<svg width="11" height="11" viewBox="0 0 11 11" fill="none" xmlns="http://www.w3.org/2000/svg">
<path d="M10.9131 8.13068L10.4443 10.1033C10.3857 10.3963 10.1514 10.5916 9.8584 10.5916C4.93652 10.5721 0.932617 6.56818 0.932617 1.6463C0.932617 1.35333 1.1084 1.11896 1.40137 1.06036L3.37402 0.591614C3.64746 0.53302 3.94043 0.68927 4.05762 0.943176L4.97559 3.07208C5.07324 3.32599 5.01465 3.61896 4.7998 3.77521L3.74512 4.63458C4.40918 5.98224 5.50293 7.07599 6.87012 7.74005L7.72949 6.68536C7.88574 6.49005 8.17871 6.41193 8.43262 6.50958L10.5615 7.42755C10.8154 7.56427 10.9717 7.85724 10.9131 8.13068Z" fill="#F77005"/>
</svg>
