<svg width="18" height="18" viewBox="0 0 18 18" fill="none" xmlns="http://www.w3.org/2000/svg">
<path d="M16.9668 13.4746L16.1699 16.8281C16.0703 17.3262 15.6719 17.6582 15.1738 17.6582C6.80664 17.625 0 10.8184 0 2.45117C0 1.95312 0.298828 1.55469 0.796875 1.45508L4.15039 0.658203C4.61523 0.558594 5.11328 0.824219 5.3125 1.25586L6.87305 4.875C7.03906 5.30664 6.93945 5.80469 6.57422 6.07031L4.78125 7.53125C5.91016 9.82227 7.76953 11.6816 10.0938 12.8105L11.5547 11.0176C11.8203 10.6855 12.3184 10.5527 12.75 10.7188L16.3691 12.2793C16.8008 12.5117 17.0664 13.0098 16.9668 13.4746Z" fill="#15B1D7"/>
</svg>
