<svg width="39" height="30" viewBox="0 0 39 30" fill="none" xmlns="http://www.w3.org/2000/svg">
<path d="M9.29801 30C7.23179 30 5.48124 29.4848 4.04636 28.4545C2.66887 27.4242 1.63576 26.0606 0.94702 24.3636C0.315673 22.6667 0 20.8485 0 18.9091C0 16.1212 0.545254 13.4848 1.63576 11C2.78366 8.51515 4.24724 6.33333 6.02649 4.45455C7.86313 2.51515 9.84327 1.0303 11.9669 0L17.9073 4.63636C16.3576 5.36364 14.894 6.24242 13.5166 7.27272C12.1391 8.24242 10.9338 9.33333 9.90066 10.5455C8.92494 11.7576 8.17881 13 7.66225 14.2727L8.09271 14.5455C8.43709 14.303 8.81015 14.1212 9.21192 14C9.67108 13.8788 10.2737 13.8182 11.0199 13.8182C12.053 13.8182 13.0861 14.0909 14.1192 14.6364C15.2097 15.1818 16.0993 16 16.7881 17.0909C17.5342 18.1818 17.9073 19.5758 17.9073 21.2727C17.9073 23.1515 17.5055 24.7576 16.702 26.0909C15.8985 27.3636 14.8366 28.3333 13.5166 29C12.1965 29.6667 10.7903 30 9.29801 30ZM30.3907 30C28.3245 30 26.5739 29.4848 25.1391 28.4545C23.7616 27.4242 22.7285 26.0606 22.0397 24.3636C21.4084 22.6667 21.0927 20.8485 21.0927 18.9091C21.0927 16.1212 21.638 13.4848 22.7285 11C23.8764 8.51515 25.34 6.33333 27.1192 4.45455C28.9558 2.51515 30.936 1.0303 33.0596 0L39 4.63636C37.4503 5.36364 35.9868 6.24242 34.6093 7.27272C33.2318 8.24242 32.0265 9.33333 30.9934 10.5455C30.0177 11.7576 29.2715 13 28.755 14.2727L29.1854 14.5455C29.5298 14.303 29.9029 14.1212 30.3046 14C30.7638 13.8788 31.3664 13.8182 32.1126 13.8182C33.1457 13.8182 34.1788 14.0909 35.2119 14.6364C36.3024 15.1818 37.1921 16 37.8808 17.0909C38.6269 18.1818 39 19.5758 39 21.2727C39 23.1515 38.5982 24.7576 37.7947 26.0909C36.9912 27.3636 35.9294 28.3333 34.6093 29C33.2892 29.6667 31.883 30 30.3907 30Z" fill="#1FB6DE"/>
</svg>
