<svg width="27" height="26" viewBox="0 0 27 26" fill="none" xmlns="http://www.w3.org/2000/svg">
<path d="M22.6914 0.4375C24.6738 0.4375 26.3164 2.08008 26.3164 4.0625V22.1875C26.3164 24.2266 24.6738 25.8125 22.6914 25.8125H4.56641C2.52734 25.8125 0.941406 24.2266 0.941406 22.1875V4.0625C0.941406 2.08008 2.52734 0.4375 4.56641 0.4375H22.6914ZM20.8223 16.8633C20.9355 16.4668 20.709 16.0137 20.3125 15.8438L17.2539 14.541C16.8574 14.3711 16.4609 14.4844 16.2344 14.7676L14.9883 16.2969C13.0059 15.334 11.4199 13.748 10.457 11.7656L11.9863 10.5195C12.2695 10.293 12.3828 9.89648 12.2129 9.5L10.9102 6.44141C10.7402 6.04492 10.2871 5.81836 9.89062 5.93164L7.05859 6.55469C6.66211 6.66797 6.37891 7.00781 6.37891 7.46094C6.37891 14.5977 12.1562 20.375 19.293 20.375C19.7461 20.375 20.0859 20.1484 20.1426 19.6953L20.8223 16.8633Z" fill="#15B1D7"/>
</svg>
