<svg width="50" height="50" viewBox="0 0 50 50" fill="none" xmlns="http://www.w3.org/2000/svg">
<path d="M14.1148 10.5381H10.1406V13.7174H14.1148V10.5381Z" fill="#09111D"/>
<path d="M48.6904 29.6143V26.4349H41.982L40.742 21.2843C40.655 20.9316 40.4498 20.6194 40.1605 20.3995C39.8713 20.1797 39.5155 20.0656 39.1523 20.0762H35.973V15.3071H32.7936V20.0762H28.0246C27.603 20.0762 27.1986 20.2437 26.9005 20.5418C26.6024 20.8399 26.4349 21.2442 26.4349 21.6659V26.4349H17.6917V18.4865H21.6659V15.3071H19.5675L20.6326 8.94841H23.2555V5.76904H13.7174V1H10.5381V5.76904H1V8.94841H3.62297L4.68806 15.3071H2.58968V18.4865H6.56388V45.5111H1V48.6904H48.6904V45.5111H45.5111V29.6143H48.6904ZM29.6143 23.2555H37.9124L38.7072 26.4349H29.6143V23.2555ZM6.85003 8.94841H17.4055L16.3404 15.3071H7.91511L6.85003 8.94841ZM14.5123 18.4865V23.2555H9.74325V18.4865H14.5123ZM9.74325 26.4349H14.5123V45.5111H9.74325V26.4349ZM28.422 40.742V45.5111H26.0375V40.742H28.422ZM33.9859 40.742V45.5111H31.6014V40.742H33.9859ZM42.3317 45.5111H37.1652V40.742H38.7549V37.5627H21.2684V40.742H22.8581V45.5111H17.6917V29.6143H42.3317V45.5111Z" fill="#09111D"/>
</svg>
