<svg width="50" height="50" viewBox="0 0 50 50" fill="none" xmlns="http://www.w3.org/2000/svg">
<path d="M43.6559 35.1648C45.4897 33.6935 46.7329 31.6228 47.1565 29.3339C48.3238 23.0261 43.7173 17.3593 37.7571 17.3593C37.7444 17.3593 32.7912 17.3636 32.7912 17.3636L30.0378 14.5001H28.0022V8.7816H45.9641V5.92236H7.29112V8.7816H25.253V14.5001H22.5037V17.3593H11.2769C10.6383 14.1006 7.86104 11.6408 4.54186 11.6408H3.16723V20.4644C1.56725 21.0546 0.417969 22.6436 0.417969 24.5074C0.417969 26.8722 2.26795 28.7962 4.54186 28.7962C6.09299 28.7962 7.44627 27.9006 8.15017 26.5809L19.8268 28.5915C20.2357 32.0277 22.3423 34.9306 25.253 36.381V40.2331H21.6984L19.3518 37.7926L17.4078 39.8144L20.5596 43.0923H43.7842L46.936 39.8144L44.992 37.7926L42.6453 40.2331H39.0909V37.2268C40.7483 36.9381 42.3272 36.2307 43.6559 35.1648ZM44.4456 25.9371H41.4547L39.7233 20.5613C42.1087 21.3051 43.9387 23.3528 44.4456 25.9371ZM36.7246 20.2186L38.5554 25.9371H35.9578L34.1296 20.2186H36.7246ZM4.54186 25.9371C3.78389 25.9371 3.16723 25.2958 3.16723 24.5075C3.16723 23.7192 3.78389 23.0778 4.54186 23.0778C5.29983 23.0778 5.91649 23.7192 5.91649 24.5075C5.91649 25.2958 5.29983 25.9371 4.54186 25.9371ZM36.3416 40.2332H28.0022V37.2595C28.4806 37.3345 28.9701 37.374 29.4685 37.374H36.3416V40.2332ZM37.3978 34.5148H29.4685C25.6281 34.5148 22.5037 31.3081 22.5037 27.3667V26.1543L8.60188 23.7605C8.34189 22.228 7.29763 20.9739 5.91649 20.4645V14.7451C7.51665 15.3351 8.66575 16.9251 8.66575 18.789V20.2186H25.253V17.3594H28.8991L31.0163 19.5613L33.9763 28.7954H44.4564C43.8417 32.109 40.8737 34.5148 37.3978 34.5148Z" fill="#1fb6de"/>
</svg>
