<svg width="50" height="50" viewBox="0 0 50 50" fill="none" xmlns="http://www.w3.org/2000/svg">
<path d="M25 47.5C24.7915 47.5 24.586 47.458 24.391 47.371C10.6195 41.251 5.5 36.406 5.5 29.5V8.50004C5.5 7.67054 6.1705 7.00004 7 7.00004C18.3685 7.00004 24.043 2.84204 24.1 2.80004C24.6325 2.39804 25.366 2.39804 25.8985 2.80004C25.9525 2.83904 31.723 7.00004 43 7.00004C43.8295 7.00004 44.5 7.67054 44.5 8.50004V29.5C44.5 36.406 39.3805 41.251 25.609 47.371C25.414 47.458 25.2085 47.5 25 47.5ZM8.5 9.97604V29.5C8.5 34.0795 11.281 38.1775 25 44.356C38.719 38.1775 41.5 34.078 41.5 29.5V9.97604C32.5345 9.70004 27.043 7.00603 25 5.78654C22.957 7.00603 17.4655 9.70154 8.5 9.97604Z" fill="#1fb6de"/>
<path d="M25 40.9031C24.781 40.9031 24.562 40.8551 24.3595 40.7591C12.493 35.1551 11.5 32.0096 11.5 29.5001V14.1521C11.5 13.3916 12.0685 12.7526 12.823 12.6626C18.1555 12.0266 22.042 10.5956 24.364 9.50811C24.766 9.31761 25.234 9.31761 25.636 9.50811C27.958 10.5956 31.846 12.0266 37.177 12.6626C37.9315 12.7526 38.5 13.3916 38.5 14.1521V29.5001C38.5 32.0096 37.507 35.1551 25.6405 40.7591C25.438 40.8536 25.219 40.9031 25 40.9031ZM14.5 15.4646V29.5001C14.5 30.2966 14.5 32.6891 25 37.7411C35.5 32.6891 35.5 30.2966 35.5 29.5001V15.4646C30.88 14.7806 27.3475 13.5521 25 12.5141C22.6525 13.5506 19.12 14.7806 14.5 15.4646Z" fill="#1fb6de"/>
<path d="M23.5004 32.4998C23.1029 32.4998 22.7219 32.3438 22.4399 32.0603L16.4399 26.0603C15.8534 25.4738 15.8534 24.5258 16.4399 23.9393C17.0264 23.3528 17.9744 23.3528 18.5609 23.9393L23.3384 28.7168L31.3004 18.0998C31.7969 17.4368 32.7389 17.3048 33.3989 17.7998C34.0619 18.2963 34.1969 19.2368 33.6989 19.8983L24.6989 31.8983C24.4379 32.2463 24.0404 32.4638 23.6054 32.4938C23.5709 32.4983 23.5349 32.4998 23.5004 32.4998Z" fill="#1fb6de"/>
</svg>
