<svg width="50" height="50" viewBox="0 0 50 50" fill="none" xmlns="http://www.w3.org/2000/svg">
<path d="M25.8895 16.9416C25.411 16.7512 24.8902 16.6453 24.3446 16.6453C23.7991 16.6453 23.2783 16.7512 22.7998 16.9416C22.315 15.163 20.6863 13.8511 18.7561 13.8511H11.7705V15.2482C11.7705 19.1001 14.9043 22.2338 18.7561 22.2338H20.3936C20.9703 23.8599 22.5233 25.0281 24.3446 25.0281C26.166 25.0281 27.719 23.8599 28.2957 22.2338H29.9331C33.785 22.2338 36.9188 19.1001 36.9188 15.2482V13.8511H29.9331C28.003 13.8511 26.3743 15.163 25.8895 16.9416ZM20.1533 19.4396H18.7561C16.9347 19.4396 15.3808 18.2717 14.8041 16.6453H18.7561C19.5265 16.6453 20.1533 17.2721 20.1533 18.0425V19.4396ZM24.3446 22.2338C23.5743 22.2338 22.9475 21.6071 22.9475 20.8367C22.9475 20.0663 23.5743 19.4396 24.3446 19.4396C25.115 19.4396 25.7418 20.0663 25.7418 20.8367C25.7418 21.6071 25.115 22.2338 24.3446 22.2338ZM29.9331 19.4396H28.536V18.0425C28.536 17.2721 29.1628 16.6444 29.9331 16.6444H33.8851C33.3085 18.2707 31.7546 19.4396 29.9331 19.4396Z" fill="white"/>
<path d="M44.9399 15.129L35.3576 8.80283C32.0854 6.62136 28.277 5.46826 24.3443 5.46826C20.4115 5.46826 16.6032 6.62136 13.3361 8.79938L3.74337 15.1325C-0.0793549 17.6808 -0.617155 23.0925 2.6333 26.3429L6.18163 29.8078V34.8079C6.18163 40.2005 10.5689 44.5878 15.9615 44.5878H32.727C38.1196 44.5878 42.5069 40.2005 42.5069 34.8079V29.8079L46.0552 26.3429C49.3069 23.0912 48.7676 17.6806 44.9399 15.129ZM32.727 41.7935H15.9615C12.588 41.7935 9.76554 39.3888 9.11643 36.2041H39.5721C38.923 39.3888 36.1005 41.7935 32.727 41.7935ZM39.7126 33.4108H8.97588V30.6165H39.7126V33.4108ZM44.0849 24.3616L40.5408 27.8223H8.14776L4.60372 24.3616C2.59046 22.3417 2.96098 19.0124 5.28812 17.4609L14.8809 11.1278C17.6925 9.25335 20.965 8.26251 24.3443 8.26251C27.7235 8.26251 30.996 9.25335 33.8129 11.1313L43.3953 17.4575C45.7409 19.0211 46.0887 22.3511 44.0849 24.3616Z" fill="white"/>
</svg>
